<svg width="307" height="294" viewBox="0 0 307 294" fill="none" xmlns="http://www.w3.org/2000/svg">
<rect width="307" height="294" fill="black"/>
<path d="M110.257 188.558C131.165 188.558 142.463 176.481 148.047 165.313L128.827 156.222C125.97 163.105 118.568 168.819 110.257 168.819C96.1019 168.819 86.1025 157.911 86.1025 143.756C86.1025 129.601 96.1019 118.692 110.257 118.692C118.568 118.692 125.97 124.406 128.827 131.289L148.047 122.198C142.333 110.77 131.165 98.9529 110.257 98.9529C83.6351 98.9529 63.3764 117.004 63.3764 143.756C63.3764 170.378 83.6351 188.558 110.257 188.558ZM238.352 187V100.381H216.015V132.717H180.043V100.381H157.707V187H180.043V152.197H216.015V187H238.352Z" fill="white"/>
</svg>
