<svg width="226" height="71" viewBox="0 0 226 71" fill="none" xmlns="http://www.w3.org/2000/svg">
<path d="M82.9004 20.5909C82.9004 19.5735 83.0804 18.5796 83.4404 17.6092C83.8161 16.6231 84.3561 15.731 85.0604 14.9327C85.7647 14.1188 86.6256 13.4771 87.643 13.0075C88.6603 12.5223 89.8186 12.2797 91.1177 12.2797C92.6516 12.2797 93.9742 12.6163 95.0855 13.2893C96.2124 13.9623 97.0498 14.8388 97.5976 15.9188L95.1089 17.6327C94.8272 17.0066 94.4594 16.5136 94.0055 16.1536C93.5516 15.7779 93.0664 15.5197 92.5498 15.3788C92.0333 15.2223 91.5246 15.144 91.0238 15.144C90.2099 15.144 89.4977 15.3084 88.8873 15.6371C88.2925 15.9658 87.7917 16.3962 87.3847 16.9284C86.9778 17.4605 86.6725 18.0553 86.4691 18.7127C86.2812 19.3701 86.1873 20.0274 86.1873 20.6848C86.1873 21.4205 86.3047 22.1326 86.5395 22.8213C86.7743 23.4944 87.103 24.097 87.5256 24.6291C87.9638 25.1456 88.4803 25.5604 89.0751 25.8734C89.6855 26.1708 90.3507 26.3195 91.0707 26.3195C91.5873 26.3195 92.1116 26.2334 92.6438 26.0613C93.1759 25.8891 93.669 25.6152 94.1229 25.2395C94.5768 24.8639 94.9289 24.3787 95.1794 23.7839L97.8324 25.31C97.5037 26.1395 96.9637 26.8439 96.2124 27.423C95.4768 28.0021 94.6472 28.4404 93.7237 28.7378C92.8003 29.0351 91.8846 29.1838 90.9768 29.1838C89.7873 29.1838 88.6995 28.9412 87.7134 28.456C86.7273 27.9552 85.8743 27.2978 85.1543 26.4839C84.45 25.6543 83.8943 24.7309 83.4874 23.7135C83.0961 22.6805 82.9004 21.6396 82.9004 20.5909ZM105.688 29.2777C104.686 29.2777 103.786 29.1134 102.988 28.7847C102.19 28.4404 101.509 27.9708 100.945 27.376C100.398 26.7813 99.975 26.1004 99.6776 25.3335C99.3802 24.5665 99.2315 23.7604 99.2315 22.9152C99.2315 22.0544 99.3802 21.2405 99.6776 20.4735C99.975 19.7066 100.398 19.0257 100.945 18.4309C101.509 17.8362 102.19 17.3744 102.988 17.0458C103.786 16.7014 104.686 16.5292 105.688 16.5292C106.69 16.5292 107.582 16.7014 108.364 17.0458C109.163 17.3744 109.844 17.8362 110.407 18.4309C110.97 19.0257 111.393 19.7066 111.675 20.4735C111.972 21.2405 112.121 22.0544 112.121 22.9152C112.121 23.7604 111.972 24.5665 111.675 25.3335C111.393 26.1004 110.97 26.7813 110.407 27.376C109.859 27.9708 109.186 28.4404 108.388 28.7847C107.59 29.1134 106.69 29.2777 105.688 29.2777ZM102.471 22.9152C102.471 23.6352 102.612 24.277 102.894 24.8404C103.176 25.3882 103.559 25.8187 104.044 26.1317C104.53 26.4447 105.078 26.6013 105.688 26.6013C106.283 26.6013 106.823 26.4447 107.308 26.1317C107.793 25.803 108.177 25.3648 108.458 24.8169C108.756 24.2535 108.904 23.6117 108.904 22.8918C108.904 22.1874 108.756 21.5535 108.458 20.99C108.177 20.4266 107.793 19.9883 107.308 19.6753C106.823 19.3622 106.283 19.2057 105.688 19.2057C105.078 19.2057 104.53 19.3701 104.044 19.6988C103.559 20.0118 103.176 20.4501 102.894 21.0135C102.612 21.5613 102.471 22.1952 102.471 22.9152ZM113.845 22.8918C113.845 21.7022 114.08 20.63 114.55 19.6753C115.019 18.7049 115.669 17.9379 116.498 17.3744C117.328 16.811 118.275 16.5292 119.339 16.5292C120.247 16.5292 121.061 16.7562 121.781 17.2101C122.516 17.6484 123.088 18.2118 123.495 18.9005V11.9041H126.641V25.5213C126.641 25.85 126.695 26.0848 126.805 26.2256C126.915 26.3665 127.102 26.4526 127.369 26.4839V29.043C126.821 29.1525 126.375 29.2073 126.03 29.2073C125.467 29.2073 124.997 29.0664 124.622 28.7847C124.262 28.503 124.058 28.1352 124.011 27.6812L123.964 26.9065C123.51 27.6734 122.892 28.2604 122.109 28.6673C121.343 29.0743 120.536 29.2777 119.691 29.2777C118.846 29.2777 118.063 29.1134 117.343 28.7847C116.639 28.456 116.021 28.0021 115.489 27.423C114.972 26.8439 114.565 26.1708 114.268 25.4039C113.986 24.6213 113.845 23.7839 113.845 22.8918ZM123.495 24.5352V21.6005C123.338 21.1466 123.088 20.7396 122.743 20.3796C122.399 20.0196 122.016 19.7379 121.593 19.5344C121.17 19.3153 120.748 19.2057 120.325 19.2057C119.84 19.2057 119.402 19.3075 119.01 19.5109C118.619 19.7144 118.275 19.9883 117.977 20.3327C117.696 20.677 117.476 21.0761 117.32 21.53C117.179 21.9839 117.109 22.4613 117.109 22.9622C117.109 23.463 117.187 23.9404 117.343 24.3943C117.516 24.8326 117.758 25.2161 118.071 25.5448C118.384 25.8734 118.744 26.1317 119.151 26.3195C119.574 26.5074 120.028 26.6013 120.513 26.6013C120.81 26.6013 121.108 26.5543 121.405 26.4604C121.718 26.3508 122.008 26.21 122.274 26.0378C122.556 25.85 122.798 25.6308 123.002 25.3804C123.221 25.1143 123.385 24.8326 123.495 24.5352ZM130.081 29.043V16.7405H133.227V29.043H130.081ZM130.081 15.0267V11.9041H133.227V15.0267H130.081ZM147.851 29.043H144.705V22.1405C144.705 21.1544 144.533 20.4344 144.188 19.9805C143.844 19.5266 143.367 19.2996 142.756 19.2996C142.334 19.2996 141.903 19.4092 141.465 19.6283C141.042 19.8475 140.659 20.1527 140.315 20.544C139.97 20.9196 139.72 21.3579 139.563 21.8587V29.043H136.417V16.7405H139.258V19.0179C139.571 18.4857 139.97 18.0397 140.455 17.6797C140.941 17.304 141.496 17.0223 142.122 16.8345C142.764 16.631 143.437 16.5292 144.141 16.5292C144.908 16.5292 145.534 16.6701 146.02 16.9518C146.521 17.2179 146.896 17.5857 147.147 18.0553C147.413 18.5092 147.593 19.0257 147.687 19.6048C147.796 20.184 147.851 20.7709 147.851 21.3657V29.043ZM155.752 29.1134C154.938 29.1134 154.186 28.9569 153.498 28.6438C152.825 28.3152 152.238 27.8612 151.737 27.2821C151.252 26.703 150.876 26.0378 150.61 25.2865C150.344 24.5352 150.211 23.737 150.211 22.8918C150.211 21.9996 150.352 21.17 150.633 20.4031C150.915 19.6361 151.307 18.9631 151.807 18.384C152.324 17.7892 152.926 17.3353 153.615 17.0223C154.32 16.6936 155.094 16.5292 155.939 16.5292C156.894 16.5292 157.732 16.7484 158.452 17.1866C159.172 17.6092 159.766 18.1805 160.236 18.9005V16.7405H162.983V28.456C162.983 29.6769 162.685 30.7177 162.091 31.5786C161.512 32.4551 160.706 33.1203 159.672 33.5742C158.639 34.0438 157.466 34.2785 156.151 34.2785C154.82 34.2785 153.693 34.0516 152.77 33.5977C151.847 33.1594 151.056 32.5334 150.399 31.7195L152.113 30.0525C152.582 30.6316 153.169 31.0855 153.873 31.4142C154.593 31.7429 155.353 31.9073 156.151 31.9073C156.824 31.9073 157.434 31.7821 157.982 31.5316C158.546 31.2968 158.992 30.9212 159.32 30.4047C159.665 29.9038 159.837 29.2543 159.837 28.456V26.9065C159.43 27.6108 158.851 28.1586 158.099 28.5499C157.364 28.9256 156.581 29.1134 155.752 29.1134ZM156.808 26.6013C157.153 26.6013 157.481 26.5465 157.794 26.4369C158.107 26.3274 158.397 26.1787 158.663 25.9908C158.929 25.803 159.164 25.5839 159.367 25.3335C159.571 25.0674 159.727 24.8013 159.837 24.5352V21.6005C159.649 21.1153 159.383 20.6927 159.039 20.3327C158.71 19.9727 158.334 19.6988 157.912 19.5109C157.505 19.3075 157.074 19.2057 156.62 19.2057C156.135 19.2057 155.697 19.3075 155.306 19.5109C154.914 19.7144 154.578 20.004 154.296 20.3796C154.014 20.7396 153.795 21.1466 153.639 21.6005C153.498 22.0387 153.427 22.5005 153.427 22.9857C153.427 23.4865 153.513 23.9561 153.686 24.3943C153.858 24.8326 154.093 25.2161 154.39 25.5448C154.703 25.8734 155.063 26.1317 155.47 26.3195C155.893 26.5074 156.339 26.6013 156.808 26.6013ZM171.459 20.5909C171.459 19.5735 171.639 18.5796 171.999 17.6092C172.375 16.6231 172.915 15.731 173.619 14.9327C174.323 14.1188 175.184 13.4771 176.201 13.0075C177.219 12.5223 178.377 12.2797 179.676 12.2797C181.21 12.2797 182.533 12.6163 183.644 13.2893C184.771 13.9623 185.608 14.8388 186.156 15.9188L183.667 17.6327C183.386 17.0066 183.018 16.5136 182.564 16.1536C182.11 15.7779 181.625 15.5197 181.108 15.3788C180.592 15.2223 180.083 15.144 179.582 15.144C178.768 15.144 178.056 15.3084 177.446 15.6371C176.851 15.9658 176.35 16.3962 175.943 16.9284C175.536 17.4605 175.231 18.0553 175.028 18.7127C174.84 19.3701 174.746 20.0274 174.746 20.6848C174.746 21.4205 174.863 22.1326 175.098 22.8213C175.333 23.4944 175.661 24.097 176.084 24.6291C176.522 25.1456 177.039 25.5604 177.634 25.8734C178.244 26.1708 178.909 26.3195 179.629 26.3195C180.146 26.3195 180.67 26.2334 181.202 26.0613C181.734 25.8891 182.227 25.6152 182.681 25.2395C183.135 24.8639 183.487 24.3787 183.738 23.7839L186.391 25.31C186.062 26.1395 185.522 26.8439 184.771 27.423C184.035 28.0021 183.206 28.4404 182.282 28.7378C181.359 29.0351 180.443 29.1838 179.535 29.1838C178.346 29.1838 177.258 28.9412 176.272 28.456C175.286 27.9552 174.433 27.2978 173.713 26.4839C173.008 25.6543 172.453 24.7309 172.046 23.7135C171.655 22.6805 171.459 21.6396 171.459 20.5909ZM188.587 11.9041H191.733V25.0987C191.733 25.6621 191.827 26.0456 192.015 26.2491C192.203 26.4369 192.461 26.5308 192.79 26.5308C193.04 26.5308 193.298 26.4995 193.565 26.4369C193.831 26.3743 194.065 26.2961 194.269 26.2021L194.691 28.5969C194.269 28.8004 193.776 28.9569 193.212 29.0664C192.649 29.176 192.14 29.2308 191.686 29.2308C190.7 29.2308 189.933 28.9725 189.385 28.456C188.853 27.9239 188.587 27.1726 188.587 26.2021V11.9041ZM196.297 24.4413V16.7405H199.443V23.7604C199.443 24.6996 199.615 25.4117 199.959 25.8969C200.304 26.3665 200.813 26.6013 201.486 26.6013C201.893 26.6013 202.292 26.523 202.683 26.3665C203.09 26.1943 203.458 25.9439 203.786 25.6152C204.131 25.2865 204.42 24.8717 204.655 24.3709V16.7405H207.801V25.5213C207.801 25.85 207.856 26.0848 207.965 26.2256C208.091 26.3665 208.286 26.4526 208.552 26.4839V29.043C208.239 29.0899 207.973 29.1212 207.754 29.1369C207.551 29.1682 207.363 29.1838 207.191 29.1838C206.627 29.1838 206.165 29.0586 205.805 28.8082C205.461 28.5421 205.258 28.1821 205.195 27.7282L205.125 26.7421C204.577 27.5717 203.872 28.2056 203.012 28.6438C202.151 29.0664 201.204 29.2777 200.171 29.2777C198.903 29.2777 197.94 28.8708 197.283 28.0569C196.626 27.2273 196.297 26.0221 196.297 24.4413ZM218.276 29.2777C217.337 29.2777 216.5 29.0664 215.764 28.6438C215.028 28.2212 214.449 27.6421 214.027 26.9065V29.043H211.28V11.9041H214.426V18.9005C214.864 18.1649 215.435 17.5857 216.14 17.1631C216.86 16.7405 217.697 16.5292 218.652 16.5292C219.45 16.5292 220.178 16.7014 220.835 17.0458C221.493 17.3744 222.056 17.8362 222.526 18.4309C223.011 19.0257 223.379 19.7066 223.629 20.4735C223.895 21.2405 224.028 22.0622 224.028 22.9387C224.028 23.8152 223.88 24.6369 223.582 25.4039C223.3 26.1708 222.901 26.8517 222.385 27.4465C221.868 28.0256 221.258 28.4795 220.553 28.8082C219.865 29.1212 219.106 29.2777 218.276 29.2777ZM217.407 26.6013C217.908 26.6013 218.362 26.5074 218.769 26.3195C219.192 26.1161 219.552 25.85 219.849 25.5213C220.162 25.1926 220.397 24.8091 220.553 24.3709C220.726 23.917 220.812 23.4474 220.812 22.9622C220.812 22.2892 220.671 21.6709 220.389 21.1074C220.123 20.5283 219.747 20.0666 219.262 19.7222C218.793 19.3779 218.237 19.2057 217.595 19.2057C217.141 19.2057 216.703 19.3153 216.28 19.5344C215.874 19.7379 215.506 20.0196 215.177 20.3796C214.864 20.7396 214.614 21.1466 214.426 21.6005V24.5352C214.52 24.8482 214.668 25.13 214.872 25.3804C215.091 25.6308 215.341 25.85 215.623 26.0378C215.905 26.21 216.194 26.3508 216.492 26.4604C216.805 26.5543 217.11 26.6013 217.407 26.6013Z" fill="white"/>
<path d="M84.1682 58.5642V41.8949H86.2812V58.5642H84.1682ZM90.267 58.5642V41.8949H92.38V58.5642H90.267ZM108.386 43.7731H102.634V58.5642H100.521V43.7731H94.7692V41.8949H108.386V43.7731ZM122.706 58.6816C121.61 58.6816 120.585 58.4468 119.63 57.9773C118.691 57.4921 117.869 56.8503 117.165 56.0521C116.461 55.2382 115.913 54.3304 115.522 53.3286C115.13 52.3113 114.935 51.2626 114.935 50.1826C114.935 49.0557 115.13 47.9913 115.522 46.9896C115.913 45.9722 116.453 45.0722 117.142 44.2896C117.846 43.507 118.668 42.8966 119.607 42.4584C120.562 42.0044 121.595 41.7775 122.706 41.7775C124.318 41.7775 125.649 42.114 126.697 42.787C127.746 43.4601 128.536 44.3366 129.068 45.4166L127.448 46.5435C126.963 45.5731 126.298 44.8531 125.453 44.3835C124.608 43.914 123.676 43.6792 122.659 43.6792C121.814 43.6792 121.047 43.8592 120.358 44.2192C119.669 44.5792 119.075 45.0722 118.574 45.6983C118.089 46.3087 117.713 47.0052 117.447 47.7878C117.196 48.5704 117.071 49.3843 117.071 50.2295C117.071 51.1217 117.212 51.9669 117.494 52.7652C117.791 53.5478 118.206 54.2443 118.738 54.8547C119.27 55.4495 119.889 55.919 120.593 56.2634C121.297 56.6077 122.056 56.7799 122.87 56.7799C123.825 56.7799 124.733 56.5373 125.594 56.0521C126.455 55.5669 127.268 54.8234 128.035 53.8217V56.0051C126.533 57.7894 124.756 58.6816 122.706 58.6816ZM127.777 51.8495H124.185V50.253H129.562V58.5642H127.777V51.8495ZM132.329 53.6573V46.3087H134.395V53.2582C134.395 54.5104 134.614 55.4495 135.052 56.0755C135.49 56.7016 136.14 57.0147 137.001 57.0147C137.564 57.0147 138.104 56.8973 138.621 56.6625C139.153 56.4121 139.63 56.0599 140.053 55.606C140.476 55.1521 140.804 54.6121 141.039 53.986V46.3087H143.105V56.2164C143.105 56.4668 143.152 56.6547 143.246 56.7799C143.356 56.8895 143.528 56.9521 143.763 56.9677V58.5642C143.528 58.5955 143.34 58.6112 143.199 58.6112C143.074 58.6268 142.949 58.6346 142.823 58.6346C142.432 58.6346 142.096 58.5173 141.814 58.2825C141.532 58.032 141.383 57.7268 141.368 57.3668L141.321 55.9347C140.789 56.8425 140.069 57.5468 139.161 58.0477C138.269 58.5486 137.29 58.799 136.226 58.799C134.943 58.799 133.972 58.3686 133.315 57.5077C132.657 56.6312 132.329 55.3477 132.329 53.6573ZM161.901 46.3087H163.897L158.685 58.5642H156.877L154.506 52.7886L152.158 58.5642H150.35L145.138 46.3087H147.11L151.336 56.5216L153.308 51.4974L151.242 46.3322H153.05L154.506 50.2295L155.961 46.3322H157.769L155.727 51.4974L157.699 56.5216L161.901 46.3087ZM164.568 55.019C164.568 54.2364 164.787 53.5634 165.226 52.9999C165.679 52.4208 166.298 51.9747 167.08 51.6617C167.863 51.3487 168.771 51.1921 169.804 51.1921C170.352 51.1921 170.931 51.2391 171.541 51.333C172.152 51.4113 172.692 51.5365 173.161 51.7087V50.8165C173.161 49.8774 172.879 49.1417 172.316 48.6096C171.752 48.0618 170.954 47.7878 169.921 47.7878C169.248 47.7878 168.599 47.9131 167.972 48.1635C167.362 48.3983 166.713 48.7426 166.024 49.1965L165.273 47.7409C166.071 47.1931 166.869 46.7861 167.667 46.52C168.466 46.2383 169.295 46.0974 170.156 46.0974C171.721 46.0974 172.958 46.5357 173.865 47.4122C174.773 48.2731 175.227 49.4783 175.227 51.0278V56.2164C175.227 56.4668 175.274 56.6547 175.368 56.7799C175.478 56.8895 175.65 56.9521 175.885 56.9677V58.5642C175.681 58.5955 175.501 58.619 175.345 58.6346C175.204 58.6503 175.086 58.6581 174.992 58.6581C174.507 58.6581 174.139 58.5251 173.889 58.259C173.654 57.9929 173.521 57.7112 173.49 57.4138L173.443 56.639C172.911 57.3277 172.214 57.8599 171.353 58.2355C170.492 58.6112 169.639 58.799 168.794 58.799C167.98 58.799 167.252 58.6346 166.611 58.306C165.969 57.9616 165.468 57.5077 165.108 56.9442C164.748 56.3651 164.568 55.7234 164.568 55.019ZM172.551 55.8877C172.738 55.6686 172.887 55.4495 172.997 55.2303C173.106 54.9956 173.161 54.7999 173.161 54.6434V53.1173C172.676 52.9295 172.167 52.7886 171.635 52.6947C171.103 52.5852 170.579 52.5304 170.062 52.5304C169.013 52.5304 168.16 52.7417 167.503 53.1643C166.861 53.5712 166.54 54.1347 166.54 54.8547C166.54 55.246 166.642 55.6295 166.846 56.0051C167.065 56.3651 167.378 56.6625 167.785 56.8973C168.207 57.1321 168.724 57.2494 169.334 57.2494C169.976 57.2494 170.586 57.1242 171.165 56.8738C171.745 56.6077 172.206 56.279 172.551 55.8877ZM189.166 58.5642H187.1V51.7087C187.1 50.4565 186.873 49.5174 186.419 48.8913C185.981 48.2652 185.347 47.9522 184.518 47.9522C183.985 47.9522 183.445 48.0931 182.898 48.3748C182.365 48.6565 181.896 49.04 181.489 49.5252C181.082 49.9948 180.785 50.5426 180.597 51.1687V58.5642H178.531V41.4253H180.597V48.9383C181.082 48.0618 181.739 47.3731 182.569 46.8722C183.414 46.3557 184.322 46.0974 185.292 46.0974C186.028 46.0974 186.638 46.2305 187.124 46.4966C187.625 46.747 188.024 47.107 188.321 47.5765C188.618 48.0461 188.83 48.5939 188.955 49.22C189.096 49.8304 189.166 50.5035 189.166 51.2391V58.5642ZM191.416 55.019C191.416 54.2364 191.636 53.5634 192.074 52.9999C192.528 52.4208 193.146 51.9747 193.929 51.6617C194.711 51.3487 195.619 51.1921 196.652 51.1921C197.2 51.1921 197.779 51.2391 198.389 51.333C199 51.4113 199.54 51.5365 200.009 51.7087V50.8165C200.009 49.8774 199.728 49.1417 199.164 48.6096C198.601 48.0618 197.802 47.7878 196.769 47.7878C196.096 47.7878 195.447 47.9131 194.821 48.1635C194.21 48.3983 193.561 48.7426 192.872 49.1965L192.121 47.7409C192.919 47.1931 193.717 46.7861 194.516 46.52C195.314 46.2383 196.143 46.0974 197.004 46.0974C198.569 46.0974 199.806 46.5357 200.714 47.4122C201.622 48.2731 202.075 49.4783 202.075 51.0278V56.2164C202.075 56.4668 202.122 56.6547 202.216 56.7799C202.326 56.8895 202.498 56.9521 202.733 56.9677V58.5642C202.529 58.5955 202.349 58.619 202.193 58.6346C202.052 58.6503 201.935 58.6581 201.841 58.6581C201.355 58.6581 200.988 58.5251 200.737 58.259C200.502 57.9929 200.369 57.7112 200.338 57.4138L200.291 56.639C199.759 57.3277 199.062 57.8599 198.202 58.2355C197.341 58.6112 196.488 58.799 195.642 58.799C194.829 58.799 194.101 58.6346 193.459 58.306C192.817 57.9616 192.316 57.5077 191.956 56.9442C191.596 56.3651 191.416 55.7234 191.416 55.019ZM199.399 55.8877C199.587 55.6686 199.735 55.4495 199.845 55.2303C199.955 54.9956 200.009 54.7999 200.009 54.6434V53.1173C199.524 52.9295 199.015 52.7886 198.483 52.6947C197.951 52.5852 197.427 52.5304 196.91 52.5304C195.862 52.5304 195.009 52.7417 194.351 53.1643C193.709 53.5712 193.389 54.1347 193.389 54.8547C193.389 55.246 193.49 55.6295 193.694 56.0051C193.913 56.3651 194.226 56.6625 194.633 56.8973C195.056 57.1321 195.572 57.2494 196.182 57.2494C196.824 57.2494 197.435 57.1242 198.014 56.8738C198.593 56.6077 199.055 56.279 199.399 55.8877ZM211.626 57.9538C211.454 58.032 211.219 58.1338 210.922 58.259C210.625 58.3842 210.28 58.4938 209.889 58.5877C209.498 58.6816 209.083 58.7286 208.645 58.7286C208.144 58.7286 207.682 58.6425 207.259 58.4703C206.837 58.2825 206.5 58.0007 206.25 57.6251C205.999 57.2338 205.874 56.7486 205.874 56.1695V47.9287H204.207V46.3087H205.874V42.2236H207.94V46.3087H210.687V47.9287H207.94V55.5356C207.972 55.9738 208.12 56.3025 208.386 56.5216C208.653 56.7251 208.966 56.8268 209.326 56.8268C209.732 56.8268 210.108 56.7564 210.452 56.6155C210.797 56.4747 211.024 56.3729 211.133 56.3103L211.626 57.9538ZM213.541 58.5642V46.3087H215.607V58.5642H213.541ZM213.541 44.0079V41.4253H215.607V44.0079H213.541Z" fill="white"/>
<path d="M21.7287 35.2168L53.8864 14.2498L53.8665 0.000473022L0 35.2168" fill="#5FB046"/>
<path d="M55.172 35.4062L1.30551 0.00025177L1.28565 14.3705L33.4433 35.5156L1.22607 56.1217V70.5037L55.172 35.4062Z" fill="#FAF8EB"/>
<path d="M0 35.2166L53.946 70.5034V56.1214L21.7171 35.2166" fill="#5FB046"/>
</svg>
