<svg width="27" height="26" viewBox="0 0 27 26" fill="none" xmlns="http://www.w3.org/2000/svg">
<path d="M9.16667 3.24976C6.17558 3.24976 3.75 5.67534 3.75 8.66642V17.3331C3.75 20.3242 6.17558 22.7498 9.16667 22.7498H17.8333C20.8244 22.7498 23.25 20.3242 23.25 17.3331V8.66642C23.25 5.67534 20.8244 3.24976 17.8333 3.24976H9.16667ZM20 5.41642C20.598 5.41642 21.0833 5.90176 21.0833 6.49976C21.0833 7.09776 20.598 7.58309 20 7.58309C19.402 7.58309 18.9167 7.09776 18.9167 6.49976C18.9167 5.90176 19.402 5.41642 20 5.41642ZM13.5 7.58309C16.4911 7.58309 18.9167 10.0087 18.9167 12.9998C18.9167 15.9908 16.4911 18.4164 13.5 18.4164C10.5089 18.4164 8.08333 15.9908 8.08333 12.9998C8.08333 10.0087 10.5089 7.58309 13.5 7.58309ZM13.5 9.74976C12.638 9.74976 11.8114 10.0922 11.2019 10.7017C10.5924 11.3112 10.25 12.1378 10.25 12.9998C10.25 13.8617 10.5924 14.6884 11.2019 15.2979C11.8114 15.9073 12.638 16.2498 13.5 16.2498C14.362 16.2498 15.1886 15.9073 15.7981 15.2979C16.4076 14.6884 16.75 13.8617 16.75 12.9998C16.75 12.1378 16.4076 11.3112 15.7981 10.7017C15.1886 10.0922 14.362 9.74976 13.5 9.74976Z" fill="white"/>
</svg>
