<svg width="26" height="26" viewBox="0 0 26 26" fill="none" xmlns="http://www.w3.org/2000/svg">
<path d="M20.5833 3.24976H5.41667C4.21958 3.24976 3.25 4.21934 3.25 5.41642V20.5831C3.25 21.7802 4.21958 22.7498 5.41667 22.7498H20.5833C21.7804 22.7498 22.75 21.7802 22.75 20.5831V5.41642C22.75 4.21934 21.7804 3.24976 20.5833 3.24976ZM9.75 18.4164H7.01675V10.8331H9.75V18.4164ZM8.33517 9.44317C7.49992 9.44317 6.942 8.88634 6.942 8.14317C6.942 7.40001 7.49883 6.84317 8.42725 6.84317C9.2625 6.84317 9.82042 7.40001 9.82042 8.14317C9.82042 8.88634 9.26358 9.44317 8.33517 9.44317ZM19.5 18.4164H16.8545V14.2716C16.8545 13.1254 16.1493 12.8611 15.8849 12.8611C15.6206 12.8611 14.7387 13.0377 14.7387 14.2716C14.7387 14.4482 14.7387 18.4164 14.7387 18.4164H12.0055V10.8331H14.7387V11.8915C15.0908 11.274 15.7961 10.8331 17.1188 10.8331C18.4416 10.8331 19.5 11.8915 19.5 14.2716V18.4164Z" fill="white"/>
</svg>
