<svg width="26" height="26" viewBox="0 0 26 26" fill="none" xmlns="http://www.w3.org/2000/svg">
<path d="M23.8334 4.33203C22.9884 4.83361 21.293 5.5172 20.2963 5.71436C20.2671 5.72195 20.2432 5.7317 20.2151 5.73928C19.3343 4.87045 18.1275 4.33203 16.7917 4.33203C14.0997 4.33203 11.9167 6.51495 11.9167 9.20703C11.9167 9.34895 11.9048 9.61003 11.9167 9.7487C8.28433 9.7487 5.51967 7.84636 3.53716 5.41536C3.32158 5.95703 3.22733 6.81286 3.22733 7.6167C3.22733 9.13445 4.41358 10.6251 6.26066 11.5492C5.9205 11.6369 5.54566 11.6998 5.15566 11.6998C4.52625 11.6998 3.86 11.534 3.25008 11.0314C3.25008 11.0498 3.25008 11.0671 3.25008 11.0866C3.25008 13.2078 5.50125 14.6519 7.50325 15.0538C7.097 15.2932 6.278 15.317 5.87825 15.317C5.59658 15.317 4.59991 15.1881 4.33341 15.1383C4.89025 16.877 6.89875 17.8542 8.813 17.8889C7.31583 19.0632 6.27691 19.4987 3.21108 19.4987H2.16675C4.10375 20.7402 6.5705 21.6664 9.04267 21.6664C17.0918 21.6664 21.6667 15.5315 21.6667 9.7487C21.6667 9.65553 21.6646 9.46053 21.6613 9.26445C21.6613 9.24495 21.6667 9.22653 21.6667 9.20703C21.6667 9.17778 21.6581 9.14961 21.6581 9.12036C21.6548 8.97303 21.6516 8.83545 21.6483 8.76395C22.5042 8.14645 23.2462 7.3762 23.8334 6.4987C23.048 6.84753 22.2052 7.08153 21.3201 7.1877C22.2236 6.64603 23.5073 5.3547 23.8334 4.33203Z" fill="white"/>
</svg>
