<svg width="122" height="82" viewBox="0 0 122 82" fill="none" xmlns="http://www.w3.org/2000/svg">
<path d="M79.7972 60.9822C79.7972 60.9822 73.6582 69.6451 80.1717 76.3802H4.78861L4.41296 59.9151L79.7972 60.9822Z" fill="#E7E5E5"/>
<path d="M4.41296 70.1347C5.41928 69.3315 17.1298 59.9565 78.3084 63.7313C78.3084 63.7313 78.4796 62.2518 79.8937 60.9352L5.43423 59.1317L4.41296 70.1347Z" fill="#CECECD"/>
<path d="M5.41928 66.5766C5.41928 65.9346 5.41928 65.2143 5.41928 64.433C5.41928 60.6296 8.18896 60.9351 8.18896 60.9351H81.3067V56.5631H7.43421C5.88223 56.5631 4.8047 57.0616 4.05686 57.7886L4.05456 57.7909C3.98678 57.8563 3.92588 57.9196 3.86499 57.9865C3.85925 57.9919 3.85122 57.999 3.84662 58.0058C3.81216 58.0462 3.77653 58.0807 3.74552 58.1197C2.34977 59.6922 -3.05974 66.827 3.16656 76.9133C3.85008 78.2299 5.11486 79.3441 7.43421 79.3441H81.3067V74.9707H8.18896C8.18896 74.9707 5.41928 75.2834 5.41928 71.4751C5.41928 70.6907 5.41928 69.9736 5.41928 69.3315C5.41928 69.3315 5.41928 68.2343 5.41928 66.5766Z" fill="#22B1B6"/>
<path d="M93.0102 39.3271C93.0102 39.3271 87.194 47.5313 93.3617 53.9128H21.9511L21.5938 38.3148L93.0102 39.3271Z" fill="#E7E5E5"/>
<path d="M21.5938 47.9967C22.5473 47.2361 33.6432 38.3539 91.5961 41.929C91.5961 41.929 91.7615 40.5284 93.0986 39.2823L22.5645 37.5703L21.5938 47.9967Z" fill="#CECECD"/>
<path d="M22.5474 44.6263C22.5474 44.0187 22.5474 43.3362 22.5474 42.594C22.5474 38.9902 25.1723 39.2823 25.1723 39.2823H94.4394V35.1386H24.4566C22.9874 35.1386 21.9673 35.6129 21.2585 36.3V36.2977L21.255 36.3C21.193 36.3619 21.1333 36.4238 21.077 36.4862C21.0712 36.493 21.0655 36.501 21.0598 36.5069C21.0264 36.5437 20.9931 36.5769 20.9644 36.6114C19.6387 38.1025 14.5164 44.865 20.4141 54.4195C21.0632 55.6647 22.2613 56.7202 24.4566 56.7202H94.4394V52.5802H25.1723C25.1723 52.5802 22.5474 52.8709 22.5474 49.2671C22.5474 48.524 22.5474 47.8428 22.5474 47.2361C22.5474 47.2361 22.5474 46.1942 22.5474 44.6263Z" fill="#EDF492"/>
<path d="M82.7024 16.7777C82.7024 16.7777 76.5611 25.4406 83.0769 32.1748H7.69273L7.31708 15.7098L82.7024 16.7777Z" fill="#E7E5E5"/>
<path d="M7.31708 25.9301C8.32225 25.1238 20.035 15.751 81.2102 19.5236C81.2102 19.5236 81.3837 18.0463 82.799 16.7306L8.33947 14.9262L7.31708 25.9301Z" fill="#CECECD"/>
<path d="M8.32223 22.3726C8.32223 21.7291 8.32223 21.0088 8.32223 20.2289C8.32223 16.4219 11.0931 16.7306 11.0931 16.7306H84.2119V12.3563H10.3372C8.78633 12.3563 7.70878 12.8572 6.96093 13.5846V13.5818L6.95751 13.5846C6.89318 13.6487 6.82998 13.7151 6.77025 13.7784C6.76221 13.7864 6.75647 13.7932 6.75073 13.8003C6.71626 13.8381 6.67949 13.8749 6.64962 13.913C5.25502 15.4876 -0.155663 22.6229 6.07064 32.7078C6.7553 34.0244 8.02011 35.1386 10.3372 35.1386H84.2119V30.7662H11.0931C11.0931 30.7662 8.32223 31.0745 8.32223 27.2705C8.32223 26.4861 8.32223 25.7691 8.32223 25.1238C8.32223 25.1238 8.32223 24.0275 8.32223 22.3726Z" fill="#DBCEFF"/>
<path d="M72.0292 39.2823H40.7713V35.1386H72.0292V39.2823Z" fill="#DDE758"/>
<path d="M71.7696 56.7202H40.5129V52.5802H71.7696V56.7202Z" fill="#DDE758"/>
<path d="M11.0931 30.7662C11.0931 30.7662 8.32223 31.0745 8.32223 27.2705C8.32223 26.4861 8.32223 25.7691 8.32223 25.1238C8.32223 25.1238 8.32223 24.0275 8.32223 22.3726C8.32223 21.7291 8.32223 21.0088 8.32223 20.2289C8.32223 16.4219 11.0931 16.7306 11.0931 16.7306H23.8351V12.3563H10.3372C8.78633 12.3563 7.70878 12.8572 6.96093 13.5846V13.5818L6.95751 13.5846C6.89318 13.6487 6.82998 13.7151 6.77025 13.7784C6.76221 13.7864 6.75647 13.7932 6.75073 13.8003C6.71626 13.8381 6.67949 13.8749 6.64962 13.913C5.25502 15.4876 -0.155663 22.6229 6.07064 32.7078C6.7553 34.0244 8.02011 35.1386 10.3372 35.1386H23.8351V30.7662H11.0931Z" fill="#B79EFF"/>
<path d="M69.0516 46.3001C66.3118 45.7213 62.869 45.9932 62.869 45.9932C62.869 45.9932 66.7702 48.7582 66.5795 54.849L69.5548 50.6905L73.6559 53.6786C73.6559 53.6786 72.3658 47.613 69.0516 46.3001Z" fill="#22B1B6"/>
<path d="M33.0574 24.1196C30.3165 23.5398 26.8748 23.8139 26.8748 23.8139C26.8748 23.8139 30.7748 26.5746 30.5853 32.6688L33.5594 28.5077L37.6605 31.4959C37.6605 31.4959 36.3705 25.4303 33.0574 24.1196Z" fill="#EA5645"/>
<path d="M8.18892 74.9707C8.18892 74.9707 5.41808 75.2799 5.41808 71.475C5.41808 70.6907 5.41808 69.9736 5.41808 69.3292C5.41808 69.3292 5.41808 68.2334 5.41808 66.5766C5.41808 65.9346 5.41808 65.2143 5.41808 64.433C5.41808 60.6273 8.18892 60.9351 8.18892 60.9351H20.9299V56.5618H7.43187C5.88219 56.5618 4.80351 57.0616 4.05681 57.7886V57.7864L4.05337 57.7886C3.98789 57.8542 3.92584 57.9196 3.8661 57.9843C3.85806 57.9919 3.85118 57.999 3.84543 58.0058C3.81212 58.0439 3.77534 58.0807 3.74433 58.1171C2.35088 59.6922 -3.05978 66.827 3.16652 76.9133C3.85004 78.2285 5.11596 79.3441 7.43187 79.3441H20.9299V74.9707H8.18892Z" fill="#0F8481"/>
<path d="M128.717 72.0567C129.08 73.1062 128.497 74.2631 127.412 74.6377L109.083 80.978C107.998 81.3522 106.824 80.8029 106.461 79.7542L82.004 9.03879C81.641 7.98744 82.2257 6.83282 83.3101 6.45637L101.639 0.118408C102.724 -0.25724 103.897 0.290718 104.261 1.34081L128.717 72.0567Z" fill="#61313E"/>
<path d="M128.717 72.0567C129.08 73.1062 128.497 74.2631 127.412 74.6377L109.083 80.978C107.998 81.3522 106.824 80.8029 106.461 79.7542L82.004 9.03879C81.641 7.98744 82.2257 6.83282 83.3101 6.45637L101.639 0.118408C102.724 -0.25724 103.897 0.290718 104.261 1.34081L128.717 72.0567Z" fill="#63A343"/>
<path d="M83.3526 6.58241C82.2682 6.95714 81.6834 8.11176 82.0487 9.16402L106.505 79.8794C106.867 80.9281 108.042 81.4774 109.126 81.1018L113.148 79.7107L87.3744 5.19138L83.3526 6.58241Z" fill="#4F823C"/>
<path d="M125.089 61.5693L102.833 69.2672L101.873 66.4896L124.129 58.7929L125.089 61.5693Z" fill="#EA5645"/>
<path d="M126.599 65.9313L104.343 73.6281L103.383 70.8505L125.639 63.1524L126.599 65.9313Z" fill="#EA5645"/>
<path d="M108.791 67.1133L102.806 69.1833L101.873 66.4896L107.858 64.4205L108.791 67.1133Z" fill="#D13431"/>
<path d="M110.328 71.5576L104.343 73.6281L103.383 70.8505L109.368 68.7799L110.328 71.5576Z" fill="#D13431"/>
<path d="M113.482 28.0037L91.2262 35.7014L83.6317 13.7452L105.888 6.04844L113.482 28.0037Z" fill="#EA5645"/>
<path d="M97.2101 33.6327L91.2262 35.7014L83.6317 13.7452L89.6156 11.676L97.2101 33.6327Z" fill="#D13431"/>
<path d="M111.618 22.6149L89.3618 30.3116L85.9971 20.5839L108.253 12.8859L111.618 22.6149Z" fill="#FFC23A"/>
<path d="M95.3572 28.2771L89.3733 30.3448L85.9971 20.5839L91.981 18.5149L95.3572 28.2771Z" fill="#F9A431"/>
</svg>
