<svg width="21" height="21" viewBox="0 0 21 21" fill="none" xmlns="http://www.w3.org/2000/svg">
<path d="M6.5625 12.75H7.45125L7.76625 12.4462C6.66375 11.1637 6 9.49875 6 7.6875C6 3.64875 9.27375 0.375 13.3125 0.375C17.3512 0.375 20.625 3.64875 20.625 7.6875C20.625 11.7262 17.3512 15 13.3125 15C11.5012 15 9.83625 14.3363 8.55375 13.2338L8.25 13.5488V14.4375L2.625 20.0512L0.94875 18.375L6.5625 12.75ZM13.3125 12.75C16.1138 12.75 18.375 10.4888 18.375 7.6875C18.375 4.88625 16.1138 2.625 13.3125 2.625C10.5112 2.625 8.25 4.88625 8.25 7.6875C8.25 10.4888 10.5112 12.75 13.3125 12.75Z" fill="white"/>
</svg>
