<svg width="800" height="800" viewBox="0 0 800 800" fill="none" xmlns="http://www.w3.org/2000/svg">
<g clip-path="url(#clip0_0_3)">
<path d="M400.344 0.353149C400.238 0.353149 400.097 0.370805 399.991 0.370805C399.868 0.370805 399.762 0.353149 399.638 0.353149C178.941 0.353149 0 179.277 0 400.009C0 620.706 178.941 799.647 399.638 799.647C399.762 799.647 399.868 799.647 399.991 799.647C400.097 799.647 400.238 799.647 400.344 799.647C621.041 799.647 799.982 620.706 799.982 400.009C800 179.277 621.059 0.353149 400.344 0.353149ZM400.344 685.238C400.238 685.238 400.097 685.22 399.991 685.22C399.868 685.22 399.762 685.238 399.638 685.238C363.514 685.238 334.223 655.964 334.223 619.823C334.223 583.717 363.514 554.444 399.638 554.444C399.762 554.444 399.868 554.444 399.991 554.444C400.097 554.444 400.238 554.444 400.344 554.444C436.45 554.444 465.777 583.717 465.777 619.823C465.777 655.947 436.503 685.238 400.344 685.238ZM494.149 186.763C489.877 252.036 460.038 446.161 460.038 446.161C460.038 478.895 433.219 505.414 400.486 505.414C400.309 505.414 400.132 505.414 399.973 505.414C399.815 505.414 399.62 505.414 399.461 505.414C366.745 505.414 339.926 478.859 339.926 446.161C339.926 446.161 310.106 252.036 305.833 186.763C303.714 154.082 328.75 93.399 399.479 93.399C399.656 93.399 399.832 93.4166 399.991 93.4166C400.15 93.4166 400.327 93.399 400.503 93.399C471.214 93.399 496.286 154.082 494.149 186.763Z" fill="#EFB216"/>
</g>
<defs>
<clipPath id="clip0_0_3">
<rect width="800" height="800" fill="white"/>
</clipPath>
</defs>
</svg>
