<svg width="360" height="106" viewBox="0 0 360 106" fill="none" xmlns="http://www.w3.org/2000/svg">
<path d="M196.813 60.5764C196.697 62.1411 196.575 63.4921 196.402 64.9296C196.238 66.3447 196.049 67.7543 195.83 69.1602C195.404 71.9765 194.866 74.7798 194.228 77.5897C192.897 83.2085 191.277 88.8226 188.234 94.5194C187.434 95.9467 186.564 97.3646 185.431 98.7816C184.321 100.178 182.873 101.653 181.306 102.711C178.141 104.899 174.252 104.026 170.954 104.266C167.632 104.524 165.117 103.708 161.927 104.266C160.47 103.891 159.029 104.436 157.66 103.887C156.974 103.618 156.301 103.314 155.634 102.999C154.945 102.68 154.352 102.347 153.589 101.928L155.98 95.7088L157.716 95.9336L159.536 96.1223C160.749 96.2208 161.951 96.2812 163.128 96.2858C165.479 96.2914 167.738 96.0554 169.683 95.5174C171.634 94.9664 173.2 94.1329 174.308 93.056C174.884 92.4994 175.299 92.0032 175.813 91.2496C176.315 90.5184 176.784 89.5734 177.249 88.6126C178.167 86.6344 178.953 84.3737 179.607 82.0061C180.293 79.6506 180.853 77.1864 181.351 74.6842C181.864 72.1847 182.278 69.635 182.672 67.0769L183.207 63.2301C183.366 61.9692 183.545 60.6191 183.664 59.4734L196.813 60.5764Z" fill="#F89E63"/>
<path d="M196.869 53.0062C190.479 46.6924 182.602 50.4193 179.46 62.2451C176.318 74.0689 175.828 81.6399 175.828 81.6399L196.064 85.9197C199.742 74.6329 203.413 59.4724 196.869 53.0062Z" fill="#2A373C"/>
<path d="M154.604 92.8449L150.101 91.0702L149.903 100.931C149.903 100.931 157.537 104.306 159.092 100.429L158.545 97.9694C158.075 95.861 156.62 93.9683 154.604 92.8449Z" fill="#F89E63"/>
<path d="M144.704 91.3304L142.023 99.6038L149.903 100.931L150.101 91.0702L144.704 91.3304Z" fill="#F89E63"/>
<path d="M151.575 97.8969C151.386 97.8969 151.203 97.7919 151.11 97.6079L142.992 81.6315C142.86 81.3695 142.96 81.0461 143.216 80.9095C143.473 80.7748 143.789 80.8761 143.923 81.1381L152.04 97.1145C152.173 97.3765 152.073 97.6999 151.816 97.8374L151.575 97.8969Z" fill="#2A373C"/>
<path d="M196.118 46.6739L205.817 43.8455L218.291 43.2434C222.182 43.0547 225.699 45.5542 226.915 49.3388C229.293 56.749 231.48 67.4839 233.074 76.7488C234.86 87.1371 235.805 90.0759 236 104.266L212.48 104.266H189C187.938 74.6728 184.69 69.8496 183.056 60.1684C182.399 56.2668 184.359 52.4032 187.854 50.701L196.118 46.6739Z" fill="#2A373C"/>
<path d="M204.167 24.5256C206.162 29.5423 204.961 38.7431 201.021 36.1395C197.079 33.5369 202.95 21.4621 204.167 24.5256Z" fill="#2A373C"/>
<path d="M201.95 27.7333L198.181 33.6169L193.05 41.6367C193.402 41.8243 194.186 43.0825 194.636 44.0107C195.573 45.9416 196.347 47.3874 192.383 50.1508C191.534 50.7427 191 51.7787 191.193 52.811C191.425 54.0626 192.648 55.2808 196.928 54.5077C201.885 53.6129 205.202 50.9331 207.669 48.4104C209.095 46.9525 208.767 45.8552 207.394 44.3452C203.504 40.0682 202.34 33.2396 201.95 27.7333Z" fill="#F89E63"/>
<path d="M175.441 20.7989C174.272 23.5019 178.428 31.1602 183.18 28.0642C187.931 24.9672 177.513 16.0089 175.441 20.7989Z" fill="#2A373C"/>
<path d="M198.357 56.1552C198.23 56.1552 198.118 56.0613 198.098 55.9294C197.747 53.6315 196.295 52.1755 194.614 50.489C192.507 48.3733 190.118 45.976 189.332 41.2864C189.309 41.1405 189.403 41.003 189.547 40.977C189.698 40.9491 189.825 41.0504 189.849 41.1953C190.606 45.7149 192.931 48.0481 194.982 50.1053C196.656 51.7871 198.237 53.3742 198.616 55.8458C198.638 55.9917 198.541 56.1292 198.398 56.1524L198.357 56.1552Z" fill="white"/>
<path d="M200.286 18.0792C202.063 26.4958 203.524 31.3377 200.582 36.6935C196.155 44.7486 185.065 43.6531 180.85 35.9065C177.056 28.9339 174.788 16.3407 181.849 10.905C188.806 5.54916 198.509 9.66174 200.286 18.0792Z" fill="#F89E63"/>
<path d="M202.731 23.8578C199.899 27.9731 192.466 20.4142 193.072 15.3409C185.692 19.6365 177.679 25.3733 172.814 20.5387C167.202 14.9618 168.741 6.97263 175.317 6.25995C174.153 8.58012 180.74 9.6106 184.287 6.02117C190.238 5.72205e-05 199.639 1.26094 199.466 6.14008C204.004 4.29565 208.958 14.8131 202.731 23.8578Z" fill="#2A373C"/>
<path d="M198.598 7.50037C200.354 6.16513 199.183 1.40028 195.116 2.86102e-06C198.983 0.510124 202.99 3.46121 198.598 7.50037Z" fill="#2A373C"/>
<path d="M205.354 23.4843C205.447 25.5777 204.675 27.5281 203.634 28.7918C202.068 30.691 199.655 29.1755 199.096 26.8052C198.593 24.6709 199.245 21.376 201.294 20.3557C203.313 19.3504 205.249 21.0907 205.354 23.4843Z" fill="#F89E63"/>
<path d="M188.477 24.9011C188.696 25.584 188.525 26.2688 188.093 26.4305C187.662 26.5922 187.135 26.1703 186.917 25.4864C186.697 24.8044 186.869 24.1205 187.3 23.9589C187.731 23.7972 188.258 24.219 188.477 24.9011Z" fill="#2A373C"/>
<path d="M181.028 27.6972C181.247 28.3802 181.075 29.0641 180.644 29.2267C180.213 29.3884 179.686 28.9646 179.467 28.2826C179.249 27.6006 179.42 26.9158 179.851 26.7551C180.282 26.5924 180.809 27.0152 181.028 27.6972Z" fill="#2A373C"/>
<path d="M183.575 27.3368C183.575 27.3368 183.625 31.1725 182.883 33.3737C184.219 33.8699 185.693 32.6945 185.693 32.6945L183.575 27.3368Z" fill="#F57739"/>
<path d="M187.566 36.44C190.18 35.5154 191.078 33.3328 191.118 33.2315C191.161 33.1237 191.11 33.0001 191.005 32.9565C190.899 32.9128 190.779 32.9648 190.736 33.0717C190.725 33.0977 189.707 35.5842 186.69 36.2541C186.578 36.2792 186.508 36.3917 186.534 36.5059C186.557 36.6193 186.667 36.6908 186.779 36.6667C187.057 36.6035 187.32 36.5282 187.566 36.44Z" fill="#2A373C"/>
<path d="M189.158 21.9518L189.31 21.8088C189.433 21.6127 189.378 21.3516 189.186 21.2252C187.29 19.981 185.554 20.8015 185.481 20.8368C185.278 20.9121 185.188 21.1881 185.286 21.399C185.385 21.609 185.63 21.6982 185.835 21.5988C185.907 21.5653 187.251 20.9567 188.74 21.9351C188.871 22.0215 189.031 22.0225 189.158 21.9518Z" fill="#2A373C"/>
<path d="M179.551 23.2883L179.522 23.0792C179.434 22.8646 179.193 22.7624 178.983 22.8516C176.901 23.7352 176.572 25.6624 176.559 25.7432C176.504 25.956 176.674 26.1892 176.9 26.2273C177.125 26.2645 177.335 26.1093 177.373 25.8798C177.387 25.7999 177.663 24.3243 179.299 23.6302C179.442 23.5698 179.534 23.4351 179.551 23.2883Z" fill="#2A373C"/>
<path d="M225.309 49.6258C226.185 51.1292 226.946 52.4803 227.697 53.9317C228.448 55.3607 229.177 56.7982 229.89 58.2468C231.329 61.1365 232.63 64.1071 233.874 67.1354C235.082 70.1784 236.221 73.2847 237.168 76.5433C238.092 79.8131 238.915 83.1898 239.229 86.9985C239.368 88.9108 239.399 90.9392 239.024 93.2287C238.855 94.2907 238.493 95.7728 237.819 97.1424C237.16 98.5194 236.172 99.8175 235.046 100.803C233.92 101.806 232.697 102.496 231.536 102.978C230.371 103.461 229.253 103.747 228.195 103.932C226.079 104.302 224.173 104.239 222.372 104.094C220.572 103.941 218.872 103.636 217.23 103.243C215.587 102.861 213.999 102.399 212.451 101.865C209.333 100.804 206.439 99.5657 203.492 97.9898L205.796 91.7355C211.445 92.8273 217.515 93.8438 222.608 93.5241C223.858 93.448 225.025 93.2268 225.9 92.9471C226.782 92.6674 227.275 92.2512 227.238 92.122L227.16 92.0328C227.136 91.9845 227.132 91.9315 227.181 91.4502C227.249 90.6437 227.188 89.5231 227.005 88.3328C226.647 85.9262 225.907 83.226 224.976 80.5509C224.046 77.8628 222.97 75.1384 221.772 72.44C220.609 69.725 219.306 67.0396 218.007 64.3459C217.349 63.0014 216.674 61.6652 215.982 60.3393L213.928 56.4488L225.309 49.6258Z" fill="#F89E63"/>
<path d="M221.052 43.3899C212.267 42.0231 207.955 49.726 212.087 61.2275C216.219 72.7298 220.105 79.1923 220.105 79.1923L239.029 70.7023C235.638 59.3217 230.048 44.7884 221.052 43.3899Z" fill="#2A373C"/>
<path d="M200.934 90.8454L196.875 92.0952L202.627 100.448C202.627 100.448 211.156 97.3246 209.409 93.5335L207.266 92.2857C205.429 91.2152 203.106 90.0844 200.934 90.8454Z" fill="#F89E63"/>
<path d="M193.292 97.8525L197.35 102.003L202.627 100.448L196.875 92.0952L193.292 97.8525Z" fill="#F89E63"/>
<path d="M203.453 24.526C203.453 25.419 202.868 26.1418 202.148 26.1418C201.427 26.1418 200.843 25.419 200.843 24.526C200.843 23.6331 201.427 22.9092 202.148 22.9092C202.868 22.9092 203.453 23.6331 203.453 24.526Z" fill="white"/>
<path d="M203.233 28.8L202.475 28.774L202.011 25.048L203.453 24.7172L203.233 28.8Z" fill="white"/>
<path d="M208.449 99.0332C205.693 99.0332 203.307 98.6216 201.836 97.265C200.787 96.2968 200.254 94.8881 200.254 93.0762C200.254 88.6013 201.163 84.9719 201.964 81.7699C203.232 76.7068 204.233 72.7085 201.196 67.7811C196.364 59.9443 197.802 48.9883 201.183 42.1254C203.774 36.8708 202.893 31.0551 202.562 28.8659C202.519 28.5798 202.486 28.3595 202.471 28.2146C202.457 28.0668 202.561 27.9358 202.705 27.92C202.844 27.9126 202.978 28.013 202.992 28.1598C203.006 28.3001 203.038 28.511 203.079 28.7842C203.417 31.0198 204.316 36.9591 201.652 42.367C198.334 49.0989 196.916 59.8347 201.639 67.4958C204.797 72.6175 203.719 76.9205 202.471 81.9028C201.677 85.0741 200.778 88.6682 200.778 93.0762C200.778 94.7534 201.238 95.9929 202.187 96.8682C204.634 99.1252 210.051 98.5519 215.292 97.999C217.633 97.7519 220.055 97.4954 222.191 97.4954C222.335 97.4954 222.453 97.6153 222.453 97.763C222.453 97.9117 222.335 98.0316 222.191 98.0316C220.081 98.0316 217.674 98.2862 215.345 98.5324C212.995 98.7805 210.608 99.0332 208.449 99.0332Z" fill="white"/>
<path d="M233.08 97.0498H222.737C222.435 97.0498 222.192 97.2988 222.192 97.6063V98.3506C222.192 98.6591 222.435 98.9091 222.737 98.9091H233.08C233.382 98.9091 233.625 98.6591 233.625 98.3506V97.6063C233.625 97.2988 233.382 97.0498 233.08 97.0498Z" fill="white"/>
<path d="M361.45 105H-17.4496C-19.953 105 -22 103.65 -22 102C-22 100.35 -19.953 99 -17.4496 99H361.45C363.953 99 366 100.35 366 102C366 103.65 363.953 105 361.45 105Z" fill="#406FBF"/>
<path d="M297.974 105.097H238.993C237.329 105.097 235.967 103.705 235.967 102.003C235.967 100.301 237.329 98.909 238.993 98.909H297.974C299.639 98.909 301 100.301 301 102.003C301 103.116 300.418 104.098 299.549 104.642C299.089 104.931 298.55 105.097 297.974 105.097Z" fill="#3665B9"/>
<path d="M83.2517 90.6876C82.5493 90.6876 81.9805 91.2693 81.9805 91.9876V97.6091C81.9805 98.3274 82.5493 98.9091 83.2517 98.9091H124.462C124.691 98.9091 124.876 98.7195 124.876 98.4853V91.1104C124.876 90.8772 124.691 90.6876 124.462 90.6876H83.2517Z" fill="#406FBF"/>
<path d="M124.876 98.1256H107.641C107.236 98.1256 106.907 97.7902 106.907 97.3748V92.2216C106.907 91.8062 107.236 91.4708 107.641 91.4708H124.876V98.1256Z" fill="#E6EFFA"/>
<path d="M104.8 90.6876H63.176C62.4736 90.6876 61.9048 91.2693 61.9048 91.9876V97.6091C61.9048 98.3274 62.4736 98.9091 63.176 98.9091H104.8C105.502 98.9091 106.071 98.3274 106.071 97.6091V91.9876C106.071 91.2693 105.502 90.6876 104.8 90.6876Z" fill="#406FBF"/>
<path d="M104.8 98.9091H93.4487C93.735 98.9091 93.9667 98.6712 93.9667 98.3794V91.2182C93.9667 90.9246 93.735 90.6876 93.4487 90.6876H97.3477H104.8C105.501 90.6876 106.07 91.2693 106.07 91.9876V97.6091C106.07 98.3274 105.501 98.9091 104.8 98.9091Z" fill="#3563B7"/>
<path d="M87.1386 98.9091H84.3281C84.6143 98.9091 84.8461 98.6712 84.8461 98.3794V91.2182C84.8461 90.9246 84.6143 90.6876 84.3281 90.6876H87.1386C86.8523 90.6876 86.6206 90.9246 86.6206 91.2182V98.3794C86.6206 98.6712 86.8523 98.9091 87.1386 98.9091Z" fill="#3563B7"/>
<path d="M78.0179 98.9091H63.176C62.4736 98.9091 61.9048 98.3274 61.9048 97.6091V91.9876C61.9048 91.2693 62.4736 90.6876 63.176 90.6876H78.0179C77.7316 90.6876 77.4999 90.9246 77.4999 91.2182V98.3794C77.4999 98.6712 77.7316 98.9091 78.0179 98.9091Z" fill="#3563B7"/>
<path d="M84.3283 98.9091H78.0177C77.7315 98.9091 77.4998 98.6712 77.4998 98.3794V91.2182C77.4998 90.9246 77.7315 90.6876 78.0177 90.6876H84.3283C84.6145 90.6876 84.8462 90.9246 84.8462 91.2182V98.3794C84.8462 98.6712 84.6145 98.9091 84.3283 98.9091Z" fill="#3B69BC"/>
<path d="M93.4496 98.9091H87.139C86.8528 98.9091 86.6211 98.6712 86.6211 98.3794V91.2182C86.6211 90.9246 86.8528 90.6876 87.139 90.6876H93.4496C93.7358 90.6876 93.9675 90.9246 93.9675 91.2182V98.3794C93.9675 98.6712 93.7358 98.9091 93.4496 98.9091Z" fill="#3B69BC"/>
<path d="M75.7998 80.5677C75.0974 80.5677 74.5286 81.1494 74.5286 81.8667V89.3875C74.5286 90.1049 75.0974 90.6875 75.7998 90.6875H120.441C120.669 90.6875 120.854 90.4979 120.854 90.2637V80.9905C120.854 80.7564 120.669 80.5677 120.441 80.5677H75.7998Z" fill="#406FBF"/>
<path d="M120.854 89.9031H100.189C99.784 89.9031 99.4551 89.5676 99.4551 89.1542V82.0998C99.4551 81.6863 99.784 81.3499 100.189 81.3499H120.854V89.9031Z" fill="#E6EFFA"/>
<path d="M97.3485 80.5677H62.3437C61.6413 80.5677 61.0725 81.1494 61.0725 81.8667V89.3875C61.0725 90.1049 61.6413 90.6875 62.3437 90.6875H97.3485C98.0509 90.6875 98.6197 90.1049 98.6197 89.3875V81.8667C98.6197 81.1494 98.0509 80.5677 97.3485 80.5677Z" fill="#406FBF"/>
<path d="M97.3485 90.6875H62.3437C61.6413 90.6875 61.0725 90.1049 61.0725 89.3875V81.8667C61.0725 81.1494 61.6413 80.5677 62.3437 80.5677H68.5262H72.5133H73.8318H97.3485C98.0509 80.5677 98.6197 81.1494 98.6197 81.8667V89.3875C98.6197 90.1049 98.0509 90.6875 97.3485 90.6875ZM68.4362 82.5748C68.0091 82.5748 67.662 82.9297 67.662 83.3664V87.8888C67.662 88.3245 68.0091 88.6795 68.4362 88.6795H94.0656C94.4935 88.6795 94.8406 88.3245 94.8406 87.8888V83.3664C94.8406 82.9297 94.4935 82.5748 94.0656 82.5748H68.4362Z" fill="#5D87CD"/>
<path d="M94.0654 88.6795H68.436C68.009 88.6795 67.6619 88.3245 67.6619 87.8887V83.3664C67.6619 82.9297 68.009 82.5747 68.436 82.5747H94.0654C94.4934 82.5747 94.8405 82.9297 94.8405 83.3664V87.8887C94.8405 88.3245 94.4934 88.6795 94.0654 88.6795Z" fill="#4A77C4"/>
<path d="M88.8969 75.719C88.1945 75.719 87.6257 76.0618 87.6257 76.4855V79.7999C87.6257 80.2227 88.1945 80.5674 88.8969 80.5674H130.107C130.335 80.5674 130.521 80.455 130.521 80.3175V75.968C130.521 75.8305 130.335 75.719 130.107 75.719H88.8969Z" fill="#406FBF"/>
<path d="M130.521 80.106H113.116C112.804 80.106 112.553 79.8468 112.553 79.529V76.7572C112.553 76.4385 112.804 76.1811 113.116 76.1811H130.521V80.106Z" fill="#E6EFFA"/>
<path d="M110.741 75.719H68.5262C67.9874 75.719 67.5503 76.165 67.5503 76.7169V79.5686C67.5503 80.1196 67.9874 80.5674 68.5262 80.5674H110.741C111.28 80.5674 111.717 80.1196 111.717 79.5686V76.7169C111.717 76.165 111.28 75.719 110.741 75.719Z" fill="#406FBF"/>
<path d="M110.741 80.5674H108.108C108.213 80.5674 108.298 80.4801 108.298 80.3723V75.9132C108.298 75.8063 108.213 75.719 108.108 75.719H110.741C111.28 75.719 111.717 76.165 111.717 76.7169V79.5686C111.717 80.1196 111.28 80.5674 110.741 80.5674ZM106.814 80.5674H73.8318C73.9372 80.5674 74.0226 80.4792 74.0226 80.3714V75.915C74.0226 75.8072 73.9372 75.719 73.8318 75.719H103.289H106.814C106.709 75.719 106.624 75.8063 106.624 75.9132V80.3723C106.624 80.4801 106.709 80.5674 106.814 80.5674ZM72.5133 80.5674H68.5262C67.9874 80.5674 67.5503 80.1196 67.5503 79.5686V76.7169C67.5503 76.165 67.9874 75.719 68.5262 75.719H72.5133C72.4079 75.719 72.3216 75.8072 72.3216 75.915V80.3714C72.3216 80.4792 72.4079 80.5674 72.5133 80.5674Z" fill="#3563B7"/>
<path d="M73.8317 80.5674H72.5133C72.4079 80.5674 72.3215 80.4792 72.3215 80.3714V75.915C72.3215 75.8072 72.4079 75.719 72.5133 75.719H73.8317C73.9371 75.719 74.0225 75.8072 74.0225 75.915V80.3714C74.0225 80.4792 73.9371 80.5674 73.8317 80.5674Z" fill="#3B69BC"/>
<path d="M108.108 80.5674H106.814C106.708 80.5674 106.624 80.4801 106.624 80.3723V75.9132C106.624 75.8063 106.708 75.719 106.814 75.719H108.108C108.213 75.719 108.298 75.8063 108.298 75.9132V80.3723C108.298 80.4801 108.213 80.5674 108.108 80.5674Z" fill="#3B69BC"/>
<path d="M81.4453 68.713C80.7429 68.713 80.1741 69.0568 80.1741 69.4796V74.9525C80.1741 75.3762 80.7429 75.7191 81.4453 75.7191H126.086C126.314 75.7191 126.5 75.6076 126.5 75.4691V68.963C126.5 68.8255 126.314 68.713 126.086 68.713H81.4453Z" fill="#406FBF"/>
<path d="M126.5 75.2572H105.664C105.353 75.2572 105.101 74.9989 105.101 74.6812V69.7509C105.101 69.4331 105.353 69.1748 105.664 69.1748H126.5V75.2572Z" fill="#E6EFFA"/>
<path d="M103.289 68.713H67.6934C67.1546 68.713 66.7175 69.16 66.7175 69.711V74.7211C66.7175 75.2721 67.1546 75.7191 67.6934 75.7191H103.289C103.828 75.7191 104.265 75.2721 104.265 74.7211V69.711C104.265 69.16 103.828 68.713 103.289 68.713Z" fill="#406FBF"/>
<path d="M103.289 75.7191H67.6934C67.1546 75.7191 66.7175 75.2721 66.7175 74.7211V69.711C66.7175 69.16 67.1546 68.713 67.6934 68.713H103.289C103.828 68.713 104.265 69.16 104.265 69.711V74.7211C104.265 75.2721 103.828 75.7191 103.289 75.7191Z" fill="#3B69BB"/>
<path d="M181.013 97.362H143.51C143.094 97.362 142.754 97.7104 142.754 98.135C142.754 98.5606 143.094 98.9091 143.51 98.9091H181.013C181.429 98.9091 181.769 98.5606 181.769 98.135C181.769 97.7104 181.429 97.362 181.013 97.362Z" fill="white"/>
<path d="M254.378 95.522H279.02L281.246 98.8178H252.151L254.378 95.522Z" fill="#2A373C"/>
<path d="M292.432 39.2266C292.432 41.0989 290.947 42.6172 289.117 42.6172C287.286 42.6172 285.802 41.0989 285.802 39.2266C285.802 37.3552 287.286 35.8369 289.117 35.8369C290.947 35.8369 292.432 37.3552 292.432 39.2266Z" fill="#040606"/>
<path d="M267.513 97.753C267.378 97.753 267.239 97.7252 267.107 97.6676C266.573 97.438 266.324 96.809 266.55 96.2645L290.291 38.8103C290.515 38.2649 291.128 38.0075 291.662 38.2407C292.196 38.4702 292.445 39.0993 292.22 39.6438L268.479 97.098C268.31 97.5068 267.922 97.753 267.513 97.753Z" fill="#2A373C"/>
<path d="M291.254 40.2978C291.036 40.2978 290.815 40.229 290.627 40.0841L247.507 7.03209C247.044 6.67621 246.949 6.00535 247.297 5.5324C247.643 5.05944 248.301 4.96187 248.763 5.31682L291.884 38.3707C292.346 38.7247 292.441 39.3955 292.093 39.8694C291.888 40.15 291.573 40.2978 291.254 40.2978Z" fill="#2A373C"/>
<path d="M294.571 39.2266C294.571 41.0989 293.086 42.6172 291.256 42.6172C289.424 42.6172 287.94 41.0989 287.94 39.2266C287.94 37.3552 289.424 35.8369 291.256 35.8369C293.086 35.8369 294.571 37.3552 294.571 39.2266Z" fill="#2A373C"/>
<path d="M250.475 8.56609C249.183 9.88646 247.088 9.88646 245.796 8.56609C244.505 7.24479 244.505 5.10302 245.796 3.78266C247.088 2.46136 249.183 2.46136 250.475 3.78266C251.767 5.10302 251.767 7.24479 250.475 8.56609Z" fill="#2A373C"/>
<path d="M243.5 21.6305C240.606 24.5909 235.914 24.5909 233.02 21.6305C230.126 18.6711 230.126 13.8737 233.02 10.9142C235.914 7.95477 240.606 7.95477 243.5 10.9142C246.394 13.8737 246.394 18.6711 243.5 21.6305Z" fill="#406FBF"/>
<path d="M241.964 22.8374L231.84 12.4845L241.964 22.8374Z" fill="#B8D2EF"/>
<path d="M248.136 6.17443C241.931 -0.170036 231.873 -0.170036 225.669 6.17443L248.136 29.1485C254.339 22.804 254.339 12.518 248.136 6.17443Z" fill="#2A373C"/>
<path d="M207.049 43.7858V24.4774L213.292 18.3401V43.4838L207.049 43.7858Z" fill="#DDE4EC"/>
<path d="M235.776 72.2015C235.771 72.1903 235.767 72.1791 235.764 72.168L235.788 72.1569L235.776 72.2015ZM237.551 66.0177C234.086 55.6778 228.848 44.6019 221.052 43.3903C220.376 43.2853 219.724 43.2332 219.103 43.2332C219.032 43.2332 218.962 43.2342 218.893 43.2351C218.829 43.2342 218.765 43.2332 218.701 43.2332C218.566 43.2332 218.429 43.236 218.291 43.2434L213.292 43.4841V18.3404L225.67 6.17461L231.84 12.4847C231.18 13.6527 230.85 14.9628 230.85 16.273C230.85 18.2122 231.574 20.1514 233.021 21.6306C234.467 23.1108 236.363 23.8505 238.261 23.8505C239.541 23.8505 240.822 23.5132 241.964 22.8377L248.136 29.1487L237.551 66.0177Z" fill="#EAF1FA"/>
<path d="M204.274 39.1967C203.914 38.3066 203.608 37.3858 203.345 36.4482C203.355 36.3655 203.364 36.2828 203.373 36.2001C203.726 35.9111 204.026 35.4754 204.274 34.9327V39.1967Z" fill="#DDE4EC"/>
<path d="M206.918 43.7923C205.815 42.4422 204.951 40.8746 204.274 39.1965V34.9325C205.165 32.9757 205.36 29.6278 204.805 26.7622C204.821 26.7204 204.837 26.6786 204.853 26.6358L207.049 24.4774V43.7858L206.918 43.7923Z" fill="#D3D9E1"/>
<path d="M188.387 98.9091H185.329C185.364 98.8663 185.397 98.8245 185.431 98.7818C186.47 97.4818 187.288 96.1819 188.034 94.8745C188.156 96.1838 188.274 97.5292 188.387 98.9091ZM163.208 96.286C163.181 96.286 163.155 96.286 163.128 96.286C161.951 96.2813 160.749 96.2209 159.536 96.1224L157.754 95.9375C157.034 94.6757 155.943 93.5904 154.604 92.8452L150.101 91.0705L148.996 91.1234L148.259 89.673V82.2646L189.179 42.0421C189.283 42.0616 189.385 42.0802 189.489 42.0969C190.1 44.8854 191.303 46.8107 192.627 48.3764L189.138 50.0758C185.088 50.7932 181.386 54.9986 179.46 62.2453C176.318 74.0692 175.828 81.6402 175.828 81.6402L179.493 82.4151C178.862 84.634 178.114 86.7488 177.249 88.6128C176.784 89.5735 176.315 90.5185 175.813 91.2498C175.3 92.0034 174.884 92.4996 174.308 93.0561C173.2 94.1331 171.634 94.9665 169.683 95.5175C167.76 96.049 165.53 96.286 163.208 96.286ZM193.119 48.1357C191.835 46.6369 190.659 44.8064 190.045 42.1741C190.47 42.2224 190.896 42.2465 191.322 42.2465C192.037 42.2465 192.749 42.1778 193.449 42.0384C193.768 42.4491 194.16 43.0921 194.467 43.6766C194.527 43.7908 194.583 43.9033 194.635 44.012C194.648 44.0389 194.662 44.065 194.676 44.0919C195.181 45.1317 195.619 46.0358 195.262 47.0922L193.119 48.1357Z" fill="#EAF1FA"/>
<path d="M142.248 98.9091H131.325L144.96 85.5056L147.844 91.1792L144.703 91.3306L142.248 98.9091ZM148.259 89.673L145.748 84.7316L148.259 82.2646V89.673Z" fill="#E6EEF7"/>
<path d="M185.329 98.9091H181.013C181.429 98.9091 181.769 98.5606 181.769 98.135C181.769 97.7104 181.429 97.362 181.013 97.362H158.381C158.223 96.8695 158.013 96.3919 157.754 95.9375L159.536 96.1224C160.749 96.2209 161.952 96.2813 163.128 96.286C163.155 96.286 163.181 96.286 163.208 96.286C165.53 96.286 167.76 96.049 169.683 95.5175C171.634 94.9665 173.2 94.1331 174.308 93.0561C174.884 92.4996 175.3 92.0034 175.813 91.2498C176.316 90.5185 176.784 89.5735 177.249 88.6128C178.114 86.7488 178.862 84.634 179.493 82.4151L183.897 83.3471C183.897 83.349 183.897 83.3508 183.896 83.3527L186.839 83.9743C187.26 87.3063 187.666 90.932 188.034 94.8745C187.288 96.1819 186.471 97.4818 185.431 98.7818C185.397 98.8245 185.364 98.8663 185.329 98.9091Z" fill="#F9A87B"/>
<path d="M183.897 83.3468L179.493 82.4149L175.828 81.6399C175.828 81.6399 176.318 74.0689 179.46 62.2451C181.386 54.9984 185.088 50.7929 189.138 50.0756L187.854 50.7009C184.36 52.4032 182.399 56.2667 183.057 60.1684C183.687 63.9028 184.622 68.7995 185.595 75.1059C184.848 77.6612 184.277 80.4831 183.897 83.3468Z" fill="#364A5B"/>
<path d="M186.838 83.9742L183.896 83.3525C183.897 83.3507 183.897 83.3488 183.897 83.3469L186.838 83.9686C186.838 83.9695 186.838 83.9732 186.838 83.9742Z" fill="#BB8164"/>
<path d="M186.838 83.9686L183.897 83.347C184.277 80.4833 184.847 77.6613 185.594 75.1061C186.009 77.7979 186.43 80.7453 186.838 83.9686Z" fill="#2D3E4B"/>
<path d="M158.381 97.3619H152.099C152.099 97.2783 152.08 97.1937 152.04 97.1148L150.058 93.2141L150.101 91.0704L154.604 92.8452C155.943 93.5904 157.034 94.6757 157.754 95.9375C158.013 96.3919 158.223 96.8695 158.381 97.3619ZM150.985 97.3619H149.975L150.013 95.4497L150.985 97.3619Z" fill="#F9A87B"/>
<path d="M143.509 98.9091H142.248L144.703 91.3306L147.844 91.1792L150.013 95.4497L149.975 97.362H143.509C143.094 97.362 142.753 97.7104 142.753 98.135C142.753 98.5606 143.094 98.9091 143.509 98.9091ZM150.058 93.2141L148.996 91.1234L150.101 91.0705L150.058 93.2141Z" fill="#F9A87B"/>
<path d="M152.099 97.3619H150.985L150.013 95.4497L147.844 91.1791L144.961 85.5056L145.749 84.7315L148.259 89.6729L148.996 91.1234L150.058 93.2141L152.04 97.1148C152.08 97.1937 152.099 97.2783 152.099 97.3619Z" fill="#364A5B"/>
<path d="M196.875 92.0953L193.291 97.8526L194.324 98.9091H188.387C188.274 97.5292 188.156 96.1838 188.034 94.8745C187.666 90.932 187.26 87.3063 186.838 83.9743C186.838 83.9734 186.838 83.9696 186.838 83.9687C186.43 80.7454 186.009 77.798 185.594 75.1062C184.622 68.7998 183.687 63.903 183.056 60.1686C182.399 56.267 184.359 52.4034 187.854 50.7012L189.138 50.0758L192.626 48.3763C192.905 48.7071 193.191 49.0212 193.477 49.325C193.161 49.5871 192.797 49.8621 192.383 50.1511C191.534 50.743 191 51.779 191.192 52.8113C191.375 53.7907 192.164 54.7496 194.549 54.7496C195.211 54.7496 195.997 54.6762 196.928 54.508C197.172 54.4634 197.412 54.4151 197.648 54.3631C197.848 54.8258 197.999 55.3211 198.087 55.8637C198.103 60.0292 199.004 64.2264 201.196 67.7814C204.233 72.7089 203.232 76.7071 201.964 81.7703C201.288 84.4705 200.536 87.4755 200.317 91.0361L196.875 92.0953ZM220.621 93.5839C216.212 93.5839 211.254 92.7764 206.544 91.8798C205.286 91.1987 203.86 90.5966 202.436 90.5966C201.933 90.5966 201.429 90.6718 200.934 90.8456L200.852 90.8707C201.084 87.4439 201.815 84.529 202.471 81.9031C203.719 76.9209 204.797 72.6178 201.639 67.4962C199.52 64.0591 198.637 60.0023 198.608 55.9659C198.619 55.9288 198.622 55.8879 198.616 55.8461C198.613 55.8265 198.61 55.807 198.607 55.7884C198.606 55.2272 198.622 54.6669 198.653 54.1094C202.673 52.9684 205.5 50.6287 207.669 48.4107C209.095 46.9528 208.767 45.8555 207.394 44.3456C207.23 44.1662 207.071 43.9813 206.917 43.7927L207.048 43.7862L213.292 43.4842L218.291 43.2435C218.428 43.2361 218.565 43.2333 218.701 43.2333C218.764 43.2333 218.829 43.2343 218.893 43.2352C211.588 43.3727 208.309 50.7132 212.087 61.2279C214.239 67.222 216.327 71.8475 217.83 74.9027C217.852 77.0928 218.086 79.1463 218.547 80.8727C219.66 85.0429 222.956 86.1857 226.232 86.1857C226.355 86.1857 226.48 86.1848 226.603 86.1811C226.766 86.9179 226.901 87.6381 227.005 88.3331C227.188 89.5234 227.249 90.644 227.181 91.4505C227.132 91.9318 227.136 91.9848 227.16 92.0331L227.238 92.1223C227.275 92.2515 226.782 92.6677 225.9 92.9474C225.025 93.2271 223.858 93.4482 222.608 93.5244C221.96 93.5653 221.297 93.5839 220.621 93.5839ZM193.877 48.9766C193.622 48.7071 193.369 48.4275 193.119 48.1357L195.261 47.0922C195.069 47.6609 194.645 48.2741 193.877 48.9766Z" fill="#364A5B"/>
<path d="M226.232 86.1855C222.956 86.1855 219.66 85.0426 218.547 80.8725C218.086 79.146 217.852 77.0925 217.83 74.9024C219.213 77.7104 220.105 79.1925 220.105 79.1925L223.866 77.5051C224.255 78.5235 224.626 79.54 224.976 80.5509C225.638 82.453 226.204 84.368 226.603 86.1809C226.48 86.1846 226.355 86.1855 226.232 86.1855Z" fill="#2D3E4B"/>
<path d="M203.373 36.2001C203.679 33.3085 203.368 30.7514 203.149 29.2554C203.317 29.1328 203.48 28.9785 203.634 28.7917C204.093 28.2333 204.501 27.5411 204.804 26.7624C205.359 29.628 205.165 32.9759 204.273 34.9327C204.026 35.4754 203.725 35.9111 203.373 36.2001ZM202.949 34.8779C202.639 33.5139 202.412 32.1359 202.244 30.7904C202.263 30.4095 202.266 30.0229 202.258 29.6299C202.392 29.6104 202.527 29.576 202.66 29.5249C202.838 30.7793 203.055 32.6897 202.949 34.8779Z" fill="#364A5B"/>
<path d="M194.549 54.7495C192.164 54.7495 191.375 53.7906 191.193 52.8112C191 51.7789 191.534 50.7429 192.383 50.151C192.797 49.862 193.161 49.5869 193.477 49.3249C193.858 49.7291 194.24 50.1138 194.615 50.4892C195.879 51.7584 197.014 52.8976 197.649 54.363C197.412 54.415 197.172 54.4633 196.928 54.5079C195.998 54.6761 195.212 54.7495 194.549 54.7495ZM198.13 54.1567C197.448 52.5817 196.241 51.371 194.982 50.1054C194.619 49.7412 194.248 49.3686 193.878 48.9765C194.645 48.274 195.069 47.6608 195.262 47.0921C195.619 46.0356 195.181 45.1315 194.675 44.0918C194.745 44.2293 194.809 44.3668 194.881 44.5043C196.19 43.4348 197.427 41.6434 198.044 39.8315C199.02 39.0063 199.884 37.9638 200.582 36.6936C201.664 34.7237 202.15 32.8245 202.245 30.7905C202.412 32.136 202.639 33.5139 202.949 34.878C202.839 37.1368 202.384 39.6921 201.183 42.1256C199.546 45.4493 198.365 49.7328 198.13 54.1567ZM198.654 54.1093C198.893 49.7932 200.052 45.6147 201.652 42.3672C202.623 40.3964 203.12 38.355 203.345 36.4483C203.607 37.3858 203.914 38.3067 204.274 39.1968C204.95 40.8749 205.815 42.4425 206.918 43.7926C207.071 43.9812 207.23 44.1661 207.394 44.3454C208.767 45.8554 209.095 46.9527 207.669 48.4106C205.5 50.6286 202.673 52.9682 198.654 54.1093ZM194.466 43.6764C194.16 43.092 193.768 42.449 193.449 42.0383C193.449 42.0383 193.449 42.0383 193.45 42.0383C193.769 42.4462 194.162 43.0901 194.466 43.6764Z" fill="#F9A87B"/>
<path d="M194.676 44.0915C194.662 44.0646 194.649 44.0387 194.635 44.0118C194.583 43.9035 194.527 43.7915 194.467 43.6776C194.528 43.7915 194.584 43.9035 194.637 44.0109C194.65 44.0378 194.662 44.0646 194.676 44.0915Z" fill="#BCC4CD"/>
<path d="M194.881 44.5043C194.809 44.3667 194.745 44.2292 194.675 44.0917C194.662 44.0648 194.649 44.0378 194.636 44.0109C194.584 43.9031 194.527 43.7907 194.466 43.6764C194.162 43.09 193.769 42.4461 193.45 42.0382C195.103 41.7074 196.684 40.9808 198.044 39.8314C197.427 41.6433 196.19 43.4348 194.881 44.5043Z" fill="#D5906C"/>
<path d="M198.608 55.9656C198.607 55.9062 198.607 55.8476 198.607 55.7882C198.61 55.8067 198.613 55.8263 198.616 55.8458C198.623 55.8876 198.619 55.9285 198.608 55.9656ZM198.087 55.8634C197.999 55.3208 197.848 54.8255 197.648 54.3628C197.014 52.8975 195.879 51.7583 194.614 50.489C194.24 50.1136 193.858 49.7289 193.477 49.3248C193.191 49.0209 192.905 48.7068 192.626 48.3761C191.302 46.8104 190.1 44.8851 189.489 42.0967C189.674 42.1273 189.86 42.1524 190.045 42.1738C190.659 44.8061 191.835 46.6366 193.119 48.1354C193.369 48.4272 193.622 48.7068 193.878 48.9763C194.247 49.3684 194.619 49.741 194.982 50.1053C196.241 51.3708 197.448 52.5815 198.13 54.1565C198.1 54.7242 198.086 55.2938 198.087 55.8634Z" fill="#EFF6FC"/>
<path d="M191.322 42.2463C190.896 42.2463 190.47 42.2222 190.045 42.1738C189.86 42.1525 189.674 42.1274 189.489 42.0967C189.385 42.08 189.283 42.0614 189.179 42.0419L201.796 29.641C201.858 29.6466 201.922 29.6503 201.985 29.6503C202.075 29.6503 202.167 29.6438 202.258 29.6299C202.266 30.0229 202.263 30.4095 202.244 30.7904C202.15 32.8244 201.664 34.7237 200.582 36.6935C199.884 37.9637 199.02 39.0063 198.044 39.8314C196.683 40.9808 195.103 41.7074 193.45 42.0382C193.449 42.0382 193.449 42.0382 193.449 42.0382C192.749 42.1776 192.037 42.2463 191.322 42.2463Z" fill="#F9A87B"/>
<path d="M201.985 29.6503C201.922 29.6503 201.858 29.6466 201.796 29.641L202.565 28.8846C202.593 29.0723 202.626 29.287 202.66 29.5249C202.527 29.576 202.393 29.6103 202.258 29.6298C202.167 29.6438 202.076 29.6503 201.985 29.6503ZM203.15 29.2554C203.126 29.0881 203.102 28.9348 203.081 28.7945L203.233 28.8001L203.266 28.1961L204.852 26.636C204.837 26.6788 204.821 26.7206 204.804 26.7624C204.501 27.5411 204.094 28.2333 203.634 28.7917C203.48 28.9785 203.318 29.1327 203.15 29.2554Z" fill="#F9A87B"/>
<path d="M228.108 98.9091H211.404C212.699 98.8124 214.027 98.6721 215.345 98.5327C217.674 98.2865 220.081 98.0319 222.191 98.0319H222.192V98.3506C222.192 98.6591 222.436 98.9091 222.737 98.9091H228.108ZM206.093 98.9091H205.865C205.879 98.9007 205.893 98.8933 205.905 98.8858C205.968 98.8942 206.03 98.9016 206.093 98.9091ZM208.432 98.4984C207.814 98.4984 207.217 98.4779 206.648 98.4296C208.571 97.1733 210.286 95.4376 209.409 93.5337L207.266 92.2858C207.033 92.1502 206.792 92.0136 206.544 91.8798C211.255 92.7764 216.212 93.5839 220.621 93.5839C221.297 93.5839 221.96 93.5653 222.608 93.5244C223.859 93.4482 225.025 93.2271 225.9 92.9474C226.783 92.6677 227.275 92.2515 227.238 92.1223L227.161 92.0331C227.136 91.9848 227.132 91.9318 227.181 91.4505C227.249 90.644 227.188 89.5234 227.005 88.3331C226.902 87.6381 226.766 86.9179 226.604 86.1811C226.204 84.3683 225.639 82.4532 224.976 80.5512C224.626 79.5402 224.256 78.5237 223.866 77.5053L235.764 72.1681C235.767 72.1792 235.771 72.1904 235.775 72.2015L228.642 97.0498H222.737C222.473 97.0498 222.253 97.2412 222.203 97.4967C222.198 97.4958 222.195 97.4958 222.191 97.4958C220.055 97.4958 217.633 97.7522 215.292 97.9994C212.947 98.2475 210.566 98.4984 208.432 98.4984Z" fill="#F9A87B"/>
<path d="M220.105 79.1923C220.105 79.1923 219.213 77.7103 217.83 74.9023C216.327 71.8471 214.239 67.2216 212.087 61.2275C208.309 50.7128 211.588 43.3723 218.893 43.2348C218.962 43.2338 219.032 43.2329 219.103 43.2329C219.724 43.2329 220.376 43.2849 221.052 43.3899C228.848 44.6016 234.085 55.6775 237.551 66.0174L235.788 72.1565L235.764 72.1677L223.866 77.5049L220.105 79.1923Z" fill="#364A5B"/>
<path d="M205.866 98.9091H201.568L196.875 92.0953L200.317 91.0361C200.277 91.6967 200.255 92.376 200.255 93.0766C200.255 94.8885 200.787 96.2971 201.837 97.2653C202.831 98.1824 204.243 98.6675 205.906 98.8858C205.893 98.8933 205.879 98.9007 205.866 98.9091ZM206.648 98.4296C204.788 98.2716 203.222 97.8228 202.187 96.8686C201.239 95.9933 200.778 94.7537 200.778 93.0766C200.778 92.3184 200.804 91.5834 200.853 90.8707L200.934 90.8456C201.43 90.6718 201.933 90.5966 202.436 90.5966C203.86 90.5966 205.287 91.1987 206.544 91.8798C206.792 92.0136 207.033 92.1502 207.266 92.2858L209.409 93.5337C210.286 95.4376 208.572 97.1733 206.648 98.4296Z" fill="#F9A87B"/>
<path d="M201.567 98.9091H194.324L193.292 97.8526L196.875 92.0953L201.567 98.9091Z" fill="#F9A87B"/>
<path d="M203.233 28.8L203.081 28.7945C203.08 28.7917 203.08 28.788 203.08 28.7843C203.06 28.6514 203.041 28.5334 203.027 28.4312L203.266 28.1961L203.233 28.8Z" fill="#EFF6FC"/>
<path d="M211.404 98.9091H206.092C206.03 98.9016 205.968 98.8942 205.905 98.8858C204.242 98.6675 202.83 98.1824 201.836 97.2653C200.787 96.2971 200.254 94.8885 200.254 93.0766C200.254 92.376 200.276 91.6967 200.317 91.0361C200.536 87.4755 201.288 84.4705 201.965 81.7703C203.232 76.7071 204.233 72.7089 201.196 67.7814C199.004 64.2264 198.103 60.0292 198.087 55.8637C198.085 55.2941 198.1 54.7245 198.13 54.1568C198.364 49.7329 199.546 45.4494 201.183 42.1257C202.383 39.6922 202.839 37.1369 202.949 34.8781C203.055 32.6899 202.838 30.7795 202.66 29.5251C202.626 29.2872 202.593 29.0726 202.565 28.8849L203.027 28.4314C203.041 28.5336 203.059 28.6516 203.079 28.7845C203.08 28.7882 203.08 28.7919 203.081 28.7947C203.102 28.935 203.126 29.0883 203.149 29.2556C203.368 30.7516 203.679 33.3087 203.373 36.2003C203.364 36.283 203.355 36.3657 203.345 36.4484C203.12 38.3551 202.623 40.3965 201.652 42.3673C200.052 45.6148 198.893 49.7933 198.653 54.1094C198.623 54.6669 198.606 55.2272 198.607 55.7884C198.607 55.8479 198.607 55.9065 198.608 55.9659C198.637 60.0023 199.52 64.0591 201.639 67.4961C204.797 72.6178 203.719 76.9209 202.472 81.9031C201.815 84.529 201.084 87.4439 200.852 90.8707C200.804 91.5834 200.778 92.3184 200.778 93.0766C200.778 94.7537 201.238 95.9933 202.187 96.8686C203.222 97.8228 204.788 98.2716 206.648 98.4296C207.217 98.4779 207.813 98.4984 208.431 98.4984C210.566 98.4984 212.946 98.2475 215.292 97.9994C217.633 97.7522 220.055 97.4958 222.191 97.4958C222.195 97.4958 222.198 97.4958 222.203 97.4967C222.196 97.532 222.192 97.5692 222.192 97.6063V98.0319H222.191C220.081 98.0319 217.674 98.2865 215.345 98.5327C214.027 98.6721 212.698 98.8124 211.404 98.9091Z" fill="#EFF6FC"/>
<path d="M228.108 98.9091H222.737C222.435 98.9091 222.192 98.6591 222.192 98.3506V98.0319V97.6063C222.192 97.5692 222.196 97.532 222.203 97.4967C222.253 97.2412 222.473 97.0498 222.737 97.0498H228.642L228.108 98.9091Z" fill="#EFF6FC"/>
<path d="M181.013 98.9091H143.51C143.094 98.9091 142.754 98.5606 142.754 98.135C142.754 97.7104 143.094 97.362 143.51 97.362H149.975H150.985H152.099H158.381H181.013C181.429 97.362 181.769 97.7104 181.769 98.135C181.769 98.5606 181.429 98.9091 181.013 98.9091Z" fill="#EFF6FC"/>
<path d="M238.261 23.8504C236.364 23.8504 234.467 23.1108 233.021 21.6306C231.574 20.1513 230.85 18.2121 230.85 16.2729C230.85 14.9628 231.18 13.6526 231.84 12.4846L241.964 22.8376C240.822 23.5131 239.541 23.8504 238.261 23.8504Z" fill="#B8D2EF"/>
</svg>
