<svg width="217" height="230" viewBox="0 0 217 230" fill="none" xmlns="http://www.w3.org/2000/svg">
<path d="M183.751 137.851C182.936 160.916 177.849 172.405 171.373 186.716C169.338 191.211 165.351 194.483 160.595 195.8C142.882 200.703 118.582 205.219 89.7234 204.253C69.5558 203.578 52.0393 200.387 37.8846 196.676C31.6702 195.046 26.9591 189.919 25.8172 183.596C20.2364 152.704 26.566 138.093 34.219 130.501C51.971 112.891 70.0951 126.712 92.7647 109.212C114.385 92.5212 107.321 71.5451 126.932 62.2893C143.841 54.308 168.776 60.6131 180.662 75.4677C185.632 81.68 185.073 100.488 183.751 137.851Z" fill="#A57A50"/>
<path d="M116.778 143.49C131.549 135.031 140.82 127.265 142.263 122.205C142.557 121.176 142.759 120.194 142.891 119.268C151.439 121.472 158.651 124.458 158.784 127.904C159.011 133.777 138.677 141.255 116.778 143.49ZM73.092 140.275C72.2784 140.071 71.4785 139.862 70.6973 139.649L72.5189 139.164C72.5175 139.165 72.5168 139.165 72.5153 139.167C72.7803 139.477 73.0452 139.788 73.3095 140.098C73.2368 140.157 73.1648 140.216 73.092 140.275ZM50.6427 130.856C50.205 130.365 50.0019 129.929 50.0552 129.565C50.2086 128.513 52.5645 127.784 57.1761 126.978C56.5829 127.317 55.9968 127.658 55.4179 127.999C53.7654 128.958 52.1778 129.909 50.6427 130.856Z" fill="#906B47"/>
<path d="M96.9352 58.8614C96.2671 60.6556 95.5686 62.4348 94.9307 64.2435C93.032 69.1871 91.1636 74.1465 89.311 79.0721L89.2462 79.2032C89.0806 79.6114 88.928 80.0672 88.7624 80.4755C88.5773 80.9975 88.3635 81.5044 88.1784 82.0256C87.5621 83.6406 86.9616 85.2232 86.3611 86.8051C86.0112 87.7353 85.6771 88.6325 85.343 89.5289C87.318 90.336 89.424 91.2987 91.6165 92.4543C93.6721 93.5372 95.5456 94.6532 97.2398 95.7534C97.877 94.8894 98.8044 93.5747 99.821 91.8977C100.68 90.4815 101.183 89.4274 101.631 88.6627C103.096 86.16 104.433 83.8401 105.702 81.7312C107.632 78.4378 109.381 75.5865 110.922 73.0809C113.115 69.632 115.932 65.2263 115.792 59.7607C115.716 56.7798 114.841 54.1381 114.289 52.6376C113.073 48.9684 111.397 46.2971 110.142 44.5698C108.599 44.4762 106.358 44.5979 104.084 45.7348C99.6677 47.9409 96.9849 53.0429 96.9352 58.8614Z" fill="#FC8872"/>
<path d="M105.709 24.5413C107.641 29.1155 109.605 33.6977 111.537 38.2719C112.222 39.8632 112.875 41.4465 113.56 43.0377C115.617 42.1406 118.269 41.2024 121.44 40.5911C125.481 39.812 128.994 39.8272 131.602 40.041C126.107 34.2622 123.575 30.5944 122.293 28.2443C122.083 27.8584 120.75 25.0885 118.29 20.8656C117.876 20.1557 117.502 19.4206 117.12 18.7185C113.327 20.6619 109.502 22.598 105.709 24.5413Z" fill="#FC8872"/>
<path d="M111.537 38.2719C109.605 33.6976 107.641 29.1154 105.709 24.5412C109.502 22.5979 113.327 20.6618 117.12 18.7185C117.502 19.4205 117.876 20.1556 118.29 20.8655C118.742 23.0155 118.771 25.3735 118.393 27.4328C117.612 31.953 114.61 36.6374 111.537 38.2719Z" fill="#F94933"/>
<path d="M111.298 33.1137C106.648 34.3694 101.861 31.6175 100.605 26.9684L97.3144 14.7807C96.7989 12.8705 97.9286 10.9049 99.838 10.3894L109.762 7.71021C111.671 7.19468 113.637 8.32438 114.153 10.2339L117.444 22.4215C118.699 27.0714 115.948 31.858 111.298 33.1137Z" fill="#FC8872"/>
<path d="M117.444 22.4215C115.432 22.9601 113.42 23.4987 111.408 24.0372C106.71 20.9513 102.013 17.866 97.3147 14.7807C97.129 13.502 97.0836 11.6868 97.9282 9.91418C100.639 4.22463 111.125 1.99978 115.877 6.41706C119.262 9.56496 118.855 15.2653 118.732 16.9926C118.566 19.3262 117.95 21.1961 117.444 22.4215Z" fill="#FC8872"/>
<path d="M94.4817 6.63223C97.1551 6.81728 97.8261 7.03471 97.8333 7.2176C97.8427 7.48256 96.456 7.51352 95.1304 8.31561C93.7415 9.15587 92.9675 10.5102 92.5117 11.6939C93.9474 11.5816 95.3831 11.4693 96.8196 11.3562C95.3831 12.6235 93.9474 13.89 92.5117 15.1579C97.2876 17.413 99.8544 17.1236 101.324 16.3963C102.045 16.0399 103.841 14.9153 105.317 15.5215C105.656 15.6605 106.267 15.9924 106.686 16.2516C107.366 16.6714 107.66 16.9615 108.381 17.3007C110.892 18.4836 112.486 16.5519 114.589 17.4713C117.183 18.6068 116.936 22.5028 117.951 22.5078C119.241 22.5136 121.868 16.2228 119.951 10.3093C117.724 3.4397 110.48 1.05788 109.531 0.760519C104.305 -0.881111 99.8055 0.559633 98.2553 1.13564C99.7191 1.67061 101.184 2.20559 102.647 2.74056C101.698 2.68512 99.1387 2.6664 96.7346 4.34547C95.6546 5.10004 94.936 5.96694 94.4817 6.63223Z" fill="#00010E"/>
<path d="M113.261 18.7942C113.987 20.88 115.721 22.1717 117.134 21.68C118.546 21.1882 119.104 19.0987 118.377 17.0128C117.652 14.9277 115.917 13.6353 114.504 14.127C113.092 14.6195 112.535 16.709 113.261 18.7942Z" fill="#FC8872"/>
<path d="M104.18 29.4532C104.262 29.59 105.271 31.2086 106.791 31.2216C108.4 31.2353 110.124 29.4489 110.053 26.9267C109.052 27.0535 107.63 27.3631 106.111 28.1659C105.33 28.5784 104.689 29.0335 104.18 29.4532Z" fill="white"/>
<path d="M140.073 125.512C138.641 126.593 136.506 128.053 133.803 129.62C130.235 131.674 127.37 132.891 126.315 133.35L88.4205 150.001L81.8791 152.866C81.4471 153.054 81.0418 153.244 80.609 153.433C80.0683 153.784 79.5009 154.163 78.9602 154.541C75.7705 156.649 72.5542 158.785 69.3919 160.921C66.581 157.974 63.8507 155.028 61.0671 152.054C61.2831 151.271 61.5531 150.568 62.0132 149.893C63.3913 148.622 64.7968 147.351 66.3103 146.027C71.7701 141.189 78.2308 135.999 85.6909 130.756C97.5293 122.377 108.746 116.105 118.072 111.51C125.424 116.214 132.749 120.863 140.073 125.512Z" fill="#FC8872"/>
<path d="M34.4523 199.74C32.8402 197.783 31.2742 195.825 29.6614 193.868C29.9861 193.442 30.3108 192.97 30.6356 192.545C31.7026 191.08 32.7697 189.617 33.8367 188.153C34.6943 186.948 35.5763 185.767 36.4338 184.563C42.0175 176.725 48.4602 161.548 61.5753 149.989C62.4004 149.263 63.5769 148.263 65.0529 147.137C66.4966 146.9 68.329 146.813 70.3522 147.262C70.7396 147.347 71.109 147.448 71.4582 147.557C72.2106 147.786 72.9176 148.108 73.5556 148.595C75.1367 149.591 76.4169 151.129 77.2312 153.046C77.3745 153.326 77.4948 153.63 77.5912 153.959C76.5602 156.854 74.7681 161.281 71.4754 165.956C70.8958 166.783 70.2932 167.586 69.6884 168.295C64.86 174.391 59.3058 178.006 48.6352 187.063C46.725 188.675 44.3252 190.737 41.5538 193.225C39.784 194.789 37.8746 196.542 35.8261 198.485C35.3603 198.864 34.9182 199.314 34.4523 199.74Z" fill="#FC8872"/>
<path d="M13.8018 210.061C13.3755 210.278 12.5482 210.632 11.677 210.53C11.2155 210.475 10.2255 210.231 10.327 209.681C10.4069 209.252 11.3314 208.937 11.3033 208.775C11.276 208.615 10.3911 208.966 9.31825 208.869C8.86248 208.828 8.23679 208.771 8.18063 208.375C8.12375 207.978 8.67312 207.474 8.77104 207.385C8.49167 207.464 6.82484 207.913 6.21787 207.147C6.11275 207.014 5.86434 206.701 6.04219 206.342C6.21211 205.998 6.65708 205.842 6.72548 205.819C6.43963 205.873 5.84059 205.948 5.29914 205.683C4.78577 205.432 4.08447 204.761 4.44376 204.087C4.7296 203.551 5.63538 203.11 6.53755 203.255C4.55464 203.088 3.57831 201.631 3.99735 200.243C4.36024 199.042 5.66418 198.24 5.87731 198.112C7.98695 198.121 10.0966 198.131 12.2055 198.142C18.3479 196.271 24.4904 194.401 30.6328 192.53C32.3781 194.527 34.1242 196.523 35.8695 198.52C35.2992 199.325 34.4302 200.564 33.3869 202.092C30.9885 205.605 30.4506 206.577 29.3058 207.108C28.7262 207.377 27.3956 207.81 25.4055 206.777C24.008 207.575 21.9437 208.592 19.4049 209.284C17.0843 209.916 15.159 210.061 13.8018 210.061Z" fill="#FC8872"/>
<path d="M6.90978 203.613C6.6945 203.613 6.48785 203.598 6.28697 203.566C5.05863 203.355 3.77412 202.676 3.61284 201.359C3.51924 200.598 3.76116 199.41 4.74542 198.564C5.35815 198.039 6.02201 197.848 6.47058 197.781C6.66282 197.751 6.82698 197.881 6.85434 198.065C6.88242 198.249 6.7557 198.421 6.57066 198.448C6.21065 198.502 5.67568 198.656 5.18608 199.077C4.3487 199.796 4.22557 200.798 4.2839 201.277C4.43366 202.501 6.00617 202.833 6.31865 202.887C7.33891 203.046 8.49885 202.779 9.85968 202.099C10.0231 202.019 10.229 202.083 10.3126 202.251C10.3954 202.417 10.3284 202.62 10.1606 202.704C8.94742 203.309 7.85732 203.613 6.90978 203.613Z" fill="#E8564B"/>
<path d="M6.72516 206.157C6.561 206.157 6.41772 206.039 6.39108 205.874C6.36228 205.689 6.48756 205.516 6.67116 205.486C7.30405 205.384 7.93767 205.238 8.55184 205.049C9.64554 204.716 10.7335 204.247 11.7825 203.653C11.9431 203.56 12.149 203.615 12.2433 203.78C12.3341 203.943 12.2772 204.149 12.1152 204.241C11.0222 204.859 9.88963 205.348 8.74841 205.695C8.10543 205.892 7.44301 206.047 6.77916 206.153L6.72516 206.157Z" fill="#E8564B"/>
<path d="M8.77113 207.723C8.63001 207.723 8.49753 207.634 8.45073 207.493C8.39097 207.316 8.486 207.123 8.66313 207.064C9.54802 206.768 10.43 206.395 11.2869 205.959C11.5943 205.802 11.8866 205.643 12.1667 205.483C12.3251 205.386 12.5339 205.445 12.6275 205.608C12.7197 205.771 12.6642 205.977 12.5022 206.069C12.2142 206.234 11.9104 206.399 11.5929 206.561C10.7087 207.012 9.79499 207.397 8.87913 207.705L8.77113 207.723Z" fill="#E8564B"/>
<path d="M11.3031 209.113C11.1778 209.113 11.0576 209.043 11 208.921C10.9179 208.753 10.9877 208.552 11.1569 208.471L14.8131 206.704C14.9737 206.619 15.1825 206.69 15.2632 206.861C15.3445 207.029 15.2747 207.23 15.1055 207.311L11.45 209.078L11.3031 209.113Z" fill="#E8564B"/>
<path d="M123.45 123.89C121.855 124.728 119.531 125.863 116.639 126.972C112.8 128.458 109.773 129.215 108.638 129.54L63.4989 141.567L61.7695 142.027C61.3101 142.162 60.8774 142.27 60.418 142.405C59.5259 142.811 58.6064 143.244 57.7151 143.649C54.5254 145.108 51.3631 146.595 48.1734 148.081C48.0654 147.541 47.4167 144.784 44.7404 143.054C42.6322 141.703 40.4974 141.811 39.8213 141.865C40.092 140.459 40.6594 138.702 41.8755 137C42.1189 136.648 42.3622 136.351 42.6056 136.053C44.1464 134.999 45.7405 133.972 47.4167 132.891C49.9303 131.269 52.5792 129.648 55.4175 127.999C59.5525 125.566 64.0397 123.16 68.9048 120.755C81.9061 114.295 93.9339 109.808 103.854 106.699C110.395 112.456 116.936 118.16 123.45 123.89Z" fill="#FC8872"/>
<path d="M138.629 106.989C139.496 107.897 141.776 110.522 142.393 114.647C143.383 121.261 139.23 125.946 138.754 126.466C130.031 127.569 123.248 127.581 118.567 127.364C117.02 127.293 116.264 127.222 115.339 126.923C107.449 124.369 104.626 110.794 103.626 104.388C103.12 94.0615 102.615 83.735 102.109 73.4093C101.404 72.0377 100.703 70.427 100.121 68.5823C98.6929 64.0628 98.564 60.0185 98.7332 57.168C98.6475 55.818 98.5885 52.1272 100.851 48.3773C103.579 43.8549 107.811 42.3515 108.951 41.9879C115.358 40.5386 121.766 39.0884 128.174 37.639C128.623 37.49 133.901 35.8376 138.283 39.3124C141.773 42.0787 143.242 46.9445 141.921 51.5116C140.503 67.4217 139.084 83.3325 137.666 99.2427C137.987 101.825 138.308 104.407 138.629 106.989Z" fill="#FC8872"/>
<path d="M78.9601 154.541C77.1219 149.811 75.3111 145.054 73.4736 140.297C73.4758 140.297 73.4772 140.297 73.4794 140.297C76.8411 144.241 80.2036 148.184 83.5653 152.127L81.8791 152.866C81.4471 153.054 81.0417 153.244 80.609 153.433C80.0682 153.784 79.5009 154.163 78.9601 154.541Z" fill="#F94933"/>
<path d="M57.7153 143.649C56.9586 138.432 56.2011 133.188 55.4177 127.999C56.9312 129.188 58.418 130.377 59.9315 131.594C62.3911 133.891 64.8506 136.188 67.3102 138.486C66.0401 139.513 64.77 140.541 63.4992 141.567L61.7697 142.027C61.3103 142.162 60.8776 142.27 60.4182 142.405C59.5261 142.811 58.6067 143.243 57.7153 143.649Z" fill="#F94933"/>
<path d="M121.653 112.464C102.169 123.501 82.6854 134.538 63.2018 145.574C60.5363 139.549 57.8715 133.524 55.2053 127.499C67.0272 120.595 80.4879 114.036 95.637 108.578C98.3975 107.583 101.13 106.656 103.831 105.791C109.772 108.015 115.712 110.24 121.653 112.464Z" fill="#9A1F37"/>
<path d="M138.406 105.597C139.427 106.487 141.061 108.131 142.142 110.621C142.143 110.621 144.209 115.381 142.263 122.205C140.036 130.014 119.168 144.266 88.2042 157.569C82.9748 151.435 77.7446 145.3 72.5151 139.167C85.628 129.158 98.7416 119.15 111.855 109.141C120.705 107.96 129.555 106.779 138.406 105.597Z" fill="#9A1F37"/>
<path d="M18.7157 210.839C15.5815 211.665 12.4466 212.491 9.31234 213.317C5.58555 213.117 2.40093 211.001 1.20355 207.911C0.11647 205.107 1.07754 202.495 1.20355 202.167C1.49443 201.41 2.25261 199.802 4.97642 197.887C9.20722 194.914 13.9147 194.202 16.8926 194.05C17.4629 198.595 18.0331 203.14 18.6034 207.686C23.3 206.161 27.9967 204.637 32.6926 203.113C32.7833 203.241 33.715 204.617 33.1318 206.222C32.6616 207.514 31.5428 208.04 31.3296 208.136C27.1255 209.037 22.9206 209.938 18.7157 210.839Z" fill="#E23B3A"/>
<path d="M45.9571 197.676C43.5141 196.993 41.1092 196.284 38.6669 195.602C38.69 195.067 38.6857 194.494 38.7094 193.96C38.7461 192.148 38.7829 190.337 38.8196 188.526C38.834 187.047 38.8815 185.574 38.8959 184.095C38.9888 174.473 35.6695 158.37 39.7261 141.355C39.9421 140.45 40.2423 139.277 40.6484 137.908C40.8126 137.356 41.1423 136.865 41.5952 136.509C42.4916 135.802 44.026 134.672 45.3623 134.096C45.9175 133.857 46.438 133.705 46.4388 133.705C47.1869 133.461 47.9508 133.321 48.7529 133.356C50.6192 133.268 52.5488 133.796 54.3143 134.902C54.5922 135.05 54.8644 135.231 55.1315 135.444C55.9429 138.408 57.0071 143.065 56.9826 148.782C56.9805 149.792 56.9452 150.796 56.8559 151.723C56.385 159.486 53.8988 165.629 50.3319 179.163C49.6882 181.578 48.9005 184.643 48.0523 188.269C47.4957 190.565 46.9334 193.095 46.3646 195.86C46.1997 196.438 46.0946 197.059 45.9571 197.676Z" fill="#FC8872"/>
<path d="M34.9286 217.958C34.704 218.38 34.2281 219.143 33.454 219.558C33.0451 219.777 32.0939 220.144 31.8621 219.635C31.6814 219.237 32.2603 218.45 32.1443 218.333C32.0299 218.218 31.5057 219.012 30.5704 219.546C30.1729 219.773 29.6272 220.085 29.3543 219.791C29.0807 219.498 29.2427 218.771 29.2722 218.643C29.0879 218.867 27.9783 220.189 27.0423 219.908C26.8796 219.86 26.4973 219.745 26.4375 219.349C26.3799 218.97 26.6557 218.587 26.6982 218.529C26.4951 218.737 26.0465 219.141 25.4504 219.233C24.8866 219.322 23.9275 219.173 23.8361 218.415C23.7634 217.811 24.2544 216.932 25.0767 216.533C23.3551 217.532 21.7207 216.896 21.27 215.518C20.8804 214.325 21.4903 212.921 21.5925 212.694C23.3278 211.495 25.063 210.295 26.7982 209.096C30.7655 204.048 34.7321 198.998 38.6986 193.95C41.2719 194.587 43.846 195.225 46.42 195.864C46.4136 196.851 46.4092 198.364 46.4287 200.214C46.4726 204.468 46.5878 205.573 45.9535 206.663C45.6316 207.216 44.7878 208.332 42.5651 208.623C41.8753 210.078 40.7643 212.094 39.0788 214.113C37.538 215.96 36.0418 217.181 34.9286 217.958Z" fill="#FC8872"/>
<path d="M23.3079 217.367C22.675 217.367 22.0572 217.169 21.5942 216.654C21.0816 216.083 20.5984 214.972 20.9217 213.713C21.1356 212.883 21.6201 212.335 21.8894 212.082C22.0255 211.955 22.2394 211.959 22.3675 212.098C22.4942 212.234 22.487 212.447 22.351 212.576C22.1364 212.777 21.7483 213.216 21.5769 213.882C21.3019 214.951 21.7735 215.843 22.0954 216.202C22.9176 217.114 24.3987 216.491 24.6874 216.357C25.6083 215.908 26.4111 215.019 27.1383 213.685C27.2276 213.519 27.4379 213.463 27.5963 213.55C27.7611 213.639 27.8209 213.844 27.7323 214.007C26.936 215.469 26.0331 216.452 25.0489 216.932C24.4656 217.205 23.8795 217.367 23.3079 217.367Z" fill="#E8564B"/>
<path d="M26.6971 218.867C26.6093 218.867 26.5207 218.833 26.4538 218.763C26.3241 218.63 26.3292 218.414 26.4638 218.285C26.9153 217.851 27.3509 217.369 27.7563 216.853C28.4612 215.956 29.084 214.949 29.6053 213.858C29.6866 213.693 29.8875 213.625 30.0567 213.7C30.2237 213.78 30.295 213.983 30.2151 214.151C29.6708 215.285 29.0228 216.334 28.2862 217.27C27.8628 217.811 27.4063 218.316 26.9311 218.774C26.8663 218.836 26.7821 218.867 26.6971 218.867Z" fill="#E8564B"/>
<path d="M29.2713 218.98C29.2015 218.98 29.1302 218.959 29.0711 218.915C28.9199 218.804 28.889 218.591 28.9991 218.441C29.555 217.692 30.0655 216.882 30.5184 216.033C30.6811 215.729 30.8301 215.43 30.9684 215.139C31.0476 214.971 31.2521 214.901 31.4169 214.979C31.5861 215.058 31.6589 215.26 31.5782 215.429C31.4371 215.729 31.2823 216.038 31.1153 216.351C30.6465 217.23 30.1173 218.069 29.5435 218.843C29.4758 218.933 29.3743 218.98 29.2713 218.98Z" fill="#E8564B"/>
<path d="M32.1445 218.67L31.9789 218.627C31.8154 218.536 31.7585 218.33 31.85 218.167L33.8365 214.625C33.9287 214.46 34.1346 214.406 34.2951 214.496C34.4593 214.587 34.5155 214.792 34.4248 214.955L32.4382 218.497C32.3763 218.609 32.2618 218.67 32.1445 218.67Z" fill="#E8564B"/>
<path d="M38.6592 217.476C36.438 219.837 34.2175 222.199 31.9962 224.56C28.7295 226.365 24.907 226.257 22.2544 224.271C19.8474 222.469 19.2779 219.744 19.2117 219.399C19.1195 218.922 18.7825 216.939 20.1441 213.771C22.2638 208.84 26.3686 205.99 28.61 204.685C31.3713 208.077 34.1318 211.469 36.893 214.862C40.0683 211.08 43.2443 207.299 46.4195 203.518C46.565 203.58 48.0835 204.252 48.4392 205.923C48.7257 207.268 48.0554 208.307 47.9251 208.501C44.8362 211.493 41.7481 214.485 38.6592 217.476Z" fill="#E23B3A"/>
<path d="M48.0521 188.607C47.7857 188.549 47.6784 188.364 47.7245 188.183L55.785 157.433C55.8333 157.253 56.0126 157.147 56.1976 157.191C56.3783 157.239 56.4856 157.424 56.4395 157.605L48.379 188.354C48.3386 188.506 48.2026 188.607 48.0521 188.607Z" fill="#DB664E"/>
<path d="M37.8343 195.387C37.6212 195.372 37.4815 195.208 37.4973 195.022L38.6191 181.073C38.6349 180.889 38.7977 180.75 38.9834 180.765C39.1685 180.779 39.3082 180.943 39.2923 181.129L38.1705 195.078C38.1561 195.253 38.0085 195.387 37.8343 195.387Z" fill="#DB664E"/>
<path d="M31.0914 203.97C31.0173 203.97 30.9445 203.946 30.8826 203.898C30.7365 203.783 30.7098 203.57 30.8257 203.424L37.5687 194.842C37.6839 194.695 37.8963 194.671 38.0424 194.785C38.1893 194.899 38.2152 195.112 38.0993 195.259L31.3564 203.841C31.2909 203.925 31.1915 203.97 31.0914 203.97Z" fill="#DB664E"/>
<path d="M73.4734 136.691C73.356 136.691 73.2415 136.629 73.1796 136.52C73.0882 136.357 73.1451 136.151 73.3071 136.059L107.64 116.586C107.801 116.493 108.007 116.551 108.101 116.714C108.192 116.876 108.136 117.082 107.973 117.174L73.6397 136.647L73.4734 136.691Z" fill="#DB664E"/>
<path d="M147.993 106.781C145.399 108.213 137.83 112.186 128.451 113.808C121.234 115.078 112.936 114.971 105.017 111.24C102.8 110.186 100.394 108.753 97.9885 106.807C99.7727 100.699 101.449 92.1844 101.043 82.0488C100.854 77.1296 100.178 72.7239 99.34 68.9388C96.6644 56.7756 99.5834 46.1532 106.287 42.5316C107.638 41.7748 109.746 41.0447 112.747 41.1261C110.882 46.8833 110.53 50.0996 111.693 50.8031C113.503 51.8838 118.937 46.9913 127.991 36.0716C128.748 35.8822 133.992 34.7475 138.668 38.1798C142.506 41.0181 143.425 45.0725 143.614 46.0726C144.047 52.0724 144.479 58.0738 144.912 64.0744C145.939 78.3184 146.966 92.5358 147.993 106.781Z" fill="#FAEB93"/>
<path d="M117.093 126.051H59.3504C58.0609 126.051 58.004 124.865 59.223 123.403L69.5105 111.06C70.7302 109.598 72.7635 108.412 74.0538 108.412H131.797C133.086 108.412 133.143 109.598 131.924 111.06L121.637 123.403C120.417 124.865 118.383 126.051 117.093 126.051Z" fill="#E0E0E0"/>
<path d="M108.963 41.9907C108.261 47.586 107.585 53.1545 106.909 58.749C106.828 65.8851 106.72 73.0478 106.612 80.1838C104.692 79.6157 102.801 79.075 100.881 78.5076C99.3943 78.0749 97.8809 77.6429 96.3948 77.1835C94.0432 76.5075 91.6917 75.8321 89.3401 75.1293C91.0696 70.5342 92.3944 66.9658 93.0971 64.993C97.9349 51.8297 99.3944 47.1266 104.097 44.0723C106.044 42.8022 107.882 42.2607 108.963 41.9907Z" fill="#FAEB93"/>
<path d="M129.852 113.547L131.924 111.06C133.143 109.598 133.086 108.412 131.797 108.412H129.162C131.438 91.1231 133.716 73.8176 135.992 56.533C136.83 58.2358 137.668 59.966 138.56 61.6681C140.831 66.3986 143.182 71.1017 145.533 75.8855L145.588 76.0209C145.655 76.1656 145.729 76.3132 145.805 76.4622C146.535 86.5676 147.264 96.6672 147.994 106.781C145.529 108.141 138.579 111.793 129.852 113.547Z" fill="#F8E261"/>
<path d="M128.451 113.808C128.688 112.01 128.925 110.211 129.162 108.412H131.797C133.086 108.412 133.143 109.598 131.924 111.06L129.852 113.546C129.391 113.639 128.923 113.726 128.451 113.808Z" fill="#DDC226"/>
<path d="M164.697 88.6972C163.724 89.4547 162.103 90.5088 159.832 91.1302C156.345 92.0496 153.426 91.2929 152.183 90.8868C151.183 88.3732 150.182 85.887 149.182 83.3728C149.156 83.2647 149.128 83.1841 149.074 83.1294C148.372 81.6699 147.669 80.2378 146.939 78.751C146.669 78.2369 146.453 77.7509 146.209 77.2641C146.02 76.8588 145.777 76.4261 145.588 76.0207L145.533 75.8853C143.182 71.1016 140.831 66.3984 138.56 61.6679C137.668 59.9658 136.83 58.2356 135.992 56.5328C135.478 50.0728 134.992 43.5855 134.56 37.1256C136.668 37.3689 139.776 37.991 143.29 39.5851C144.75 40.2065 147.291 41.3693 149.507 43.3695C153.615 46.9912 154.913 52.0457 155.913 56.0194C156.696 58.857 157.588 62.074 158.67 65.7223C159.319 68.0206 160.075 70.4795 160.886 73.1557C160.914 73.2911 160.94 73.3718 160.968 73.4531C161.535 75.318 161.86 76.2374 162.103 76.9668C162.914 79.5351 163.914 83.3727 164.697 88.6972Z" fill="#FC8872"/>
<path d="M108.813 109.815C109.993 112.749 111.173 115.683 112.353 118.617C129.036 116.431 141.233 112.821 148.955 110.077C154.421 108.135 159.798 105.861 162.789 100.426C165.207 96.0335 165.046 91.4283 164.685 88.6922C163.359 88.5986 161.239 88.5245 158.655 88.7858C158.655 88.7858 155.423 88.6159 152.365 90.007C137.848 96.6095 123.33 103.212 108.813 109.815Z" fill="#FC8872"/>
<path d="M113.757 124.401H59.6099C58.4946 124.401 57.4765 123.763 56.9883 122.76L38.0016 83.7104C37.0605 81.7743 38.4703 79.5214 40.6231 79.5214H94.7703C95.8863 79.5214 96.9044 80.1579 97.3926 81.1616L116.379 120.211C117.32 122.147 115.91 124.401 113.757 124.401Z" fill="#E0E0E0"/>
<path d="M117.598 122.938C117.477 122.938 117.358 122.871 117.298 122.755L109.941 108.567C109.855 108.401 109.92 108.198 110.085 108.112C110.25 108.025 110.454 108.09 110.54 108.256L117.898 122.444C117.984 122.611 117.919 122.814 117.754 122.899L117.598 122.938Z" fill="#BCAD8E"/>
<path d="M100.881 78.5077C99.3941 78.075 97.8806 77.643 96.3945 77.1836C97.8266 70.2369 99.2595 63.3176 100.692 56.3709C100.773 63.7496 100.827 71.1283 100.881 78.5077Z" fill="#F9C007"/>
<path d="M160.898 73.2134C160.895 73.1955 160.89 73.1762 160.886 73.1561H160.967C160.944 73.1755 160.921 73.1941 160.898 73.2134Z" fill="#3F2764"/>
<path d="M149.074 83.1294C148.371 81.6699 147.669 80.2378 146.939 78.751C146.668 78.2369 146.452 77.7509 146.209 77.2642C146.087 77.0035 145.943 76.7314 145.805 76.4621C145.729 76.313 145.655 76.1654 145.588 76.0207L145.533 75.8853C145.479 75.7781 145.479 74.6152 145.479 74.6152C150.615 74.1292 155.751 73.6425 160.886 73.1558C160.89 73.1759 160.894 73.1954 160.898 73.2134C156.921 76.5722 152.971 79.8512 149.074 83.1294Z" fill="#F94933"/>
<path d="M162.366 72.764C155.271 75.0162 148.176 77.2692 141.081 79.5214C138.378 70.6803 135.675 61.8393 132.972 52.9989C132.461 51.7245 131.988 50.1318 131.789 48.2685C131.18 42.5739 133.532 38.1091 134.668 36.2493C137.476 36.3911 141.832 37.0233 146.148 39.6528C153.221 43.9621 155.994 51.0823 158.65 57.8979C159.994 61.3497 161.588 66.3825 162.366 72.764Z" fill="#FAEB93"/>
<path d="M151.915 90.5499C151.771 90.5499 151.636 90.4563 151.591 90.3109C151.537 90.133 151.637 89.9444 151.815 89.889L157.03 88.2826C157.211 88.2365 157.398 88.3301 157.452 88.5072C157.506 88.6851 157.406 88.8737 157.228 88.9292L152.013 90.5355L151.915 90.5499Z" fill="#DB664E"/>
<path d="M77.8326 110.527C76.4797 110.527 74.82 109.14 73.8091 107.032C72.6002 104.507 72.7788 101.905 74.2094 101.22C74.4449 101.107 74.6991 101.053 74.9662 101.053C76.3191 101.053 77.9787 102.44 78.9889 104.549C80.1985 107.073 80.0192 109.676 78.5893 110.361C78.3539 110.473 78.099 110.527 77.8326 110.527Z" fill="#C5C5C5"/>
<path d="M149.157 229.433C148.002 229.297 147.229 228.391 147.372 227.412L158.021 154.333C158.163 153.354 159.17 152.658 160.257 152.786C161.411 152.923 162.184 153.829 162.041 154.808L151.392 227.887C151.249 228.867 150.243 229.562 149.157 229.433Z" fill="#D94160"/>
<path d="M131.614 220.794L131.233 220.703C130.254 220.468 129.644 219.474 129.88 218.495L145.844 152.028C146.08 151.048 147.073 150.439 148.052 150.674L148.433 150.766C149.412 151.001 150.022 151.995 149.786 152.974L133.822 219.442C133.587 220.421 132.593 221.03 131.614 220.794Z" fill="#D94160"/>
<path d="M198.435 228.518C199.583 228.338 200.313 227.404 200.126 226.432L186.139 153.81C185.952 152.837 184.915 152.18 183.835 152.348C182.687 152.527 181.957 153.462 182.144 154.435L196.131 227.056C196.319 228.029 197.355 228.687 198.435 228.518Z" fill="#D94160"/>
<path d="M215.257 219.068L215.633 218.962C216.603 218.686 217.17 217.667 216.894 216.699L198.202 150.947C197.926 149.978 196.908 149.41 195.939 149.686L195.562 149.793C194.593 150.069 194.026 151.087 194.302 152.056L212.995 217.808C213.27 218.777 214.288 219.344 215.257 219.068Z" fill="#D94160"/>
<path d="M205.812 150.831C205.86 151.377 205.909 151.922 205.956 152.469C197.852 151.691 185.9 151.338 172.549 151.613C159.198 151.889 147.271 152.735 139.206 153.846C139.231 153.299 139.257 152.751 139.282 152.204C135.672 152.184 132.062 152.165 128.451 152.146C128.484 153.752 128.517 155.358 128.55 156.964C128.601 159.417 148.382 160.998 172.732 160.496C197.083 159.993 216.781 157.597 216.731 155.144C216.698 153.538 216.665 151.932 216.632 150.326C213.025 150.495 209.419 150.662 205.812 150.831Z" fill="#DB664E"/>
<path d="M163.833 160.589C162.945 160.589 162.068 160.586 161.2 160.58C159.811 160.571 158.45 160.555 157.118 160.532C153.897 160.475 150.853 160.378 148.04 160.244C146.606 160.177 145.234 160.099 143.926 160.012C134.537 159.392 128.578 158.309 128.55 156.964C128.517 155.358 128.484 153.752 128.451 152.146C132.062 152.165 135.672 152.185 139.282 152.204C139.257 152.751 139.231 153.299 139.206 153.846C147.271 152.735 159.198 151.889 172.549 151.613C175.584 151.55 178.546 151.52 181.408 151.52C191.134 151.52 199.694 151.868 205.956 152.469C205.909 151.922 205.86 151.377 205.812 150.831C209.419 150.662 213.025 150.495 216.632 150.326C216.665 151.932 216.698 153.538 216.731 155.144C216.731 155.148 216.731 155.152 216.731 155.155C216.727 156.544 210.392 157.914 200.472 158.932C199.163 159.066 197.793 159.194 196.365 159.316C193.552 159.554 190.523 159.766 187.321 159.946C185.991 160.02 184.631 160.089 183.245 160.151C179.878 160.304 176.356 160.421 172.732 160.496C169.684 160.558 166.708 160.589 163.833 160.589Z" fill="#DD8470"/>
<path d="M216.631 150.326C216.682 152.779 196.983 155.175 172.633 155.677C148.282 156.18 128.502 154.599 128.451 152.146C128.401 149.693 148.099 147.297 172.45 146.795C196.8 146.292 216.581 147.873 216.631 150.326Z" fill="#E9ADA0"/>
<path d="M185.815 150.403C185.815 151.935 178.478 153.177 169.428 153.177C160.377 153.177 153.04 151.935 153.04 150.403C153.04 148.872 160.377 147.63 169.428 147.63C178.478 147.63 185.815 148.872 185.815 150.403Z" fill="white"/>
<path d="M171.78 151.614H167.075C162.838 151.614 159.404 148.908 159.404 145.57V133.715C162.02 133.182 165.595 132.676 169.855 132.712C173.718 132.744 176.986 133.212 179.451 133.715C179.451 137.666 179.451 141.618 179.451 145.57C179.451 148.908 176.016 151.614 171.78 151.614Z" fill="white"/>
<path d="M178.077 134.031C178.065 134.391 172.771 134.575 169.339 134.575C165.883 134.576 160.613 134.39 160.601 134.031C160.59 133.701 165.008 133.229 169.25 133.222C173.596 133.216 178.088 133.698 178.077 134.031Z" fill="#9A1F37"/>
<path d="M160.45 145.771C159.023 145.771 157.648 145.37 156.538 144.605C155.363 143.797 154.591 142.67 154.364 141.435C153.975 139.315 155.098 136.572 157.593 135.839C159.474 135.287 161.592 136.058 162.86 137.766L160.69 139.375C160.105 138.589 159.143 138.198 158.357 138.431C157.301 138.742 156.868 140.104 157.022 140.946C157.117 141.464 157.5 141.986 158.07 142.379C158.956 142.991 160.154 143.203 161.359 142.986L161.852 145.642C161.384 145.729 160.914 145.771 160.45 145.771Z" fill="white"/>
<path d="M171.974 151.68H167.269C164.539 151.68 162.025 150.59 160.543 148.763C160.425 148.618 160.448 148.406 160.593 148.289C160.735 148.175 160.949 148.192 161.068 148.338C162.423 150.008 164.74 151.004 167.269 151.004H171.974C174.78 151.004 177.3 149.786 178.548 147.825C178.65 147.669 178.858 147.624 179.015 147.722C179.172 147.823 179.218 148.031 179.118 148.189C177.745 150.342 175.008 151.68 171.974 151.68Z" fill="#97B7FD"/>
</svg>
