<svg width="226" height="71" viewBox="0 0 226 71" fill="none" xmlns="http://www.w3.org/2000/svg">
<path d="M83.1003 20.5909C83.1003 19.5735 83.2802 18.5796 83.6402 17.6092C84.0159 16.6231 84.5559 15.731 85.2602 14.9327C85.9646 14.1188 86.8254 13.4771 87.8428 13.0075C88.8602 12.5223 90.0184 12.2797 91.3175 12.2797C92.8514 12.2797 94.174 12.6163 95.2853 13.2893C96.4122 13.9623 97.2496 14.8388 97.7974 15.9188L95.3088 17.6327C95.027 17.0066 94.6592 16.5136 94.2053 16.1536C93.7514 15.7779 93.2662 15.5197 92.7497 15.3788C92.2332 15.2223 91.7245 15.144 91.2236 15.144C90.4097 15.144 89.6975 15.3084 89.0871 15.6371C88.4923 15.9658 87.9915 16.3962 87.5845 16.9284C87.1776 17.4605 86.8724 18.0553 86.6689 18.7127C86.4811 19.3701 86.3872 20.0274 86.3872 20.6848C86.3872 21.4205 86.5046 22.1326 86.7393 22.8213C86.9741 23.4944 87.3028 24.097 87.7254 24.6291C88.1637 25.1456 88.6802 25.5604 89.2749 25.8734C89.8854 26.1708 90.5506 26.3195 91.2706 26.3195C91.7871 26.3195 92.3114 26.2334 92.8436 26.0613C93.3758 25.8891 93.8688 25.6152 94.3227 25.2395C94.7766 24.8639 95.1288 24.3787 95.3792 23.7839L98.0322 25.31C97.7035 26.1395 97.1635 26.8439 96.4122 27.423C95.6766 28.0021 94.847 28.4404 93.9236 28.7378C93.0001 29.0351 92.0845 29.1838 91.1767 29.1838C89.9871 29.1838 88.8993 28.9412 87.9132 28.456C86.9272 27.9552 86.0741 27.2978 85.3541 26.4839C84.6498 25.6543 84.0942 24.7309 83.6872 23.7135C83.2959 22.6805 83.1003 21.6396 83.1003 20.5909ZM105.888 29.2777C104.886 29.2777 103.986 29.1134 103.188 28.7847C102.39 28.4404 101.709 27.9708 101.145 27.376C100.597 26.7813 100.175 26.1004 99.8774 25.3335C99.58 24.5665 99.4313 23.7604 99.4313 22.9152C99.4313 22.0544 99.58 21.2405 99.8774 20.4735C100.175 19.7066 100.597 19.0257 101.145 18.4309C101.709 17.8362 102.39 17.3744 103.188 17.0458C103.986 16.7014 104.886 16.5292 105.888 16.5292C106.889 16.5292 107.782 16.7014 108.564 17.0458C109.363 17.3744 110.043 17.8362 110.607 18.4309C111.17 19.0257 111.593 19.7066 111.875 20.4735C112.172 21.2405 112.321 22.0544 112.321 22.9152C112.321 23.7604 112.172 24.5665 111.875 25.3335C111.593 26.1004 111.17 26.7813 110.607 27.376C110.059 27.9708 109.386 28.4404 108.588 28.7847C107.789 29.1134 106.889 29.2777 105.888 29.2777ZM102.671 22.9152C102.671 23.6352 102.812 24.277 103.094 24.8404C103.376 25.3882 103.759 25.8187 104.244 26.1317C104.73 26.4447 105.277 26.6013 105.888 26.6013C106.483 26.6013 107.023 26.4447 107.508 26.1317C107.993 25.803 108.376 25.3648 108.658 24.8169C108.956 24.2535 109.104 23.6117 109.104 22.8918C109.104 22.1874 108.956 21.5535 108.658 20.99C108.376 20.4266 107.993 19.9883 107.508 19.6753C107.023 19.3622 106.483 19.2057 105.888 19.2057C105.277 19.2057 104.73 19.3701 104.244 19.6988C103.759 20.0118 103.376 20.4501 103.094 21.0135C102.812 21.5613 102.671 22.1952 102.671 22.9152ZM114.045 22.8918C114.045 21.7022 114.28 20.63 114.749 19.6753C115.219 18.7049 115.869 17.9379 116.698 17.3744C117.528 16.811 118.475 16.5292 119.539 16.5292C120.447 16.5292 121.261 16.7562 121.981 17.2101C122.716 17.6484 123.288 18.2118 123.694 18.9005V11.9041H126.841V25.5213C126.841 25.85 126.895 26.0848 127.005 26.2256C127.114 26.3665 127.302 26.4526 127.568 26.4839V29.043C127.021 29.1525 126.574 29.2073 126.23 29.2073C125.667 29.2073 125.197 29.0664 124.821 28.7847C124.461 28.503 124.258 28.1352 124.211 27.6812L124.164 26.9065C123.71 27.6734 123.092 28.2604 122.309 28.6673C121.542 29.0743 120.736 29.2777 119.891 29.2777C119.046 29.2777 118.263 29.1134 117.543 28.7847C116.839 28.456 116.221 28.0021 115.689 27.423C115.172 26.8439 114.765 26.1708 114.468 25.4039C114.186 24.6213 114.045 23.7839 114.045 22.8918ZM123.694 24.5352V21.6005C123.538 21.1466 123.288 20.7396 122.943 20.3796C122.599 20.0196 122.215 19.7379 121.793 19.5344C121.37 19.3153 120.948 19.2057 120.525 19.2057C120.04 19.2057 119.602 19.3075 119.21 19.5109C118.819 19.7144 118.475 19.9883 118.177 20.3327C117.895 20.677 117.676 21.0761 117.52 21.53C117.379 21.9839 117.308 22.4613 117.308 22.9622C117.308 23.463 117.387 23.9404 117.543 24.3943C117.715 24.8326 117.958 25.2161 118.271 25.5448C118.584 25.8734 118.944 26.1317 119.351 26.3195C119.774 26.5074 120.228 26.6013 120.713 26.6013C121.01 26.6013 121.308 26.5543 121.605 26.4604C121.918 26.3508 122.208 26.21 122.474 26.0378C122.755 25.85 122.998 25.6308 123.201 25.3804C123.421 25.1143 123.585 24.8326 123.694 24.5352ZM130.281 29.043V16.7405H133.427V29.043H130.281ZM130.281 15.0267V11.9041H133.427V15.0267H130.281ZM148.051 29.043H144.905V22.1405C144.905 21.1544 144.733 20.4344 144.388 19.9805C144.044 19.5266 143.567 19.2996 142.956 19.2996C142.534 19.2996 142.103 19.4092 141.665 19.6283C141.242 19.8475 140.859 20.1527 140.514 20.544C140.17 20.9196 139.92 21.3579 139.763 21.8587V29.043H136.617V16.7405H139.458V19.0179C139.771 18.4857 140.17 18.0397 140.655 17.6797C141.14 17.304 141.696 17.0223 142.322 16.8345C142.964 16.631 143.637 16.5292 144.341 16.5292C145.108 16.5292 145.734 16.6701 146.22 16.9518C146.72 17.2179 147.096 17.5857 147.346 18.0553C147.613 18.5092 147.793 19.0257 147.886 19.6048C147.996 20.184 148.051 20.7709 148.051 21.3657V29.043ZM155.952 29.1134C155.138 29.1134 154.386 28.9569 153.698 28.6438C153.025 28.3152 152.438 27.8612 151.937 27.2821C151.452 26.703 151.076 26.0378 150.81 25.2865C150.544 24.5352 150.411 23.737 150.411 22.8918C150.411 21.9996 150.552 21.17 150.833 20.4031C151.115 19.6361 151.506 18.9631 152.007 18.384C152.524 17.7892 153.126 17.3353 153.815 17.0223C154.519 16.6936 155.294 16.5292 156.139 16.5292C157.094 16.5292 157.931 16.7484 158.651 17.1866C159.371 17.6092 159.966 18.1805 160.436 18.9005V16.7405H163.183V28.456C163.183 29.6769 162.885 30.7177 162.291 31.5786C161.711 32.4551 160.905 33.1203 159.872 33.5742C158.839 34.0438 157.665 34.2785 156.351 34.2785C155.02 34.2785 153.893 34.0516 152.97 33.5977C152.046 33.1594 151.256 32.5334 150.599 31.7195L152.312 30.0525C152.782 30.6316 153.369 31.0855 154.073 31.4142C154.793 31.7429 155.552 31.9073 156.351 31.9073C157.024 31.9073 157.634 31.7821 158.182 31.5316C158.745 31.2968 159.191 30.9212 159.52 30.4047C159.864 29.9038 160.037 29.2543 160.037 28.456V26.9065C159.63 27.6108 159.051 28.1586 158.299 28.5499C157.564 28.9256 156.781 29.1134 155.952 29.1134ZM157.008 26.6013C157.352 26.6013 157.681 26.5465 157.994 26.4369C158.307 26.3274 158.597 26.1787 158.863 25.9908C159.129 25.803 159.364 25.5839 159.567 25.3335C159.771 25.0674 159.927 24.8013 160.037 24.5352V21.6005C159.849 21.1153 159.583 20.6927 159.238 20.3327C158.91 19.9727 158.534 19.6988 158.111 19.5109C157.705 19.3075 157.274 19.2057 156.82 19.2057C156.335 19.2057 155.897 19.3075 155.505 19.5109C155.114 19.7144 154.778 20.004 154.496 20.3796C154.214 20.7396 153.995 21.1466 153.838 21.6005C153.698 22.0387 153.627 22.5005 153.627 22.9857C153.627 23.4865 153.713 23.9561 153.885 24.3943C154.058 24.8326 154.292 25.2161 154.59 25.5448C154.903 25.8734 155.263 26.1317 155.67 26.3195C156.092 26.5074 156.538 26.6013 157.008 26.6013ZM171.659 20.5909C171.659 19.5735 171.839 18.5796 172.199 17.6092C172.574 16.6231 173.114 15.731 173.819 14.9327C174.523 14.1188 175.384 13.4771 176.401 13.0075C177.419 12.5223 178.577 12.2797 179.876 12.2797C181.41 12.2797 182.733 12.6163 183.844 13.2893C184.971 13.9623 185.808 14.8388 186.356 15.9188L183.867 17.6327C183.586 17.0066 183.218 16.5136 182.764 16.1536C182.31 15.7779 181.825 15.5197 181.308 15.3788C180.792 15.2223 180.283 15.144 179.782 15.144C178.968 15.144 178.256 15.3084 177.646 15.6371C177.051 15.9658 176.55 16.3962 176.143 16.9284C175.736 17.4605 175.431 18.0553 175.227 18.7127C175.04 19.3701 174.946 20.0274 174.946 20.6848C174.946 21.4205 175.063 22.1326 175.298 22.8213C175.533 23.4944 175.861 24.097 176.284 24.6291C176.722 25.1456 177.239 25.5604 177.833 25.8734C178.444 26.1708 179.109 26.3195 179.829 26.3195C180.346 26.3195 180.87 26.2334 181.402 26.0613C181.934 25.8891 182.427 25.6152 182.881 25.2395C183.335 24.8639 183.687 24.3787 183.938 23.7839L186.591 25.31C186.262 26.1395 185.722 26.8439 184.971 27.423C184.235 28.0021 183.406 28.4404 182.482 28.7378C181.559 29.0351 180.643 29.1838 179.735 29.1838C178.546 29.1838 177.458 28.9412 176.472 28.456C175.486 27.9552 174.633 27.2978 173.913 26.4839C173.208 25.6543 172.653 24.7309 172.246 23.7135C171.854 22.6805 171.659 21.6396 171.659 20.5909ZM188.787 11.9041H191.933V25.0987C191.933 25.6621 192.027 26.0456 192.215 26.2491C192.403 26.4369 192.661 26.5308 192.99 26.5308C193.24 26.5308 193.498 26.4995 193.764 26.4369C194.03 26.3743 194.265 26.2961 194.469 26.2021L194.891 28.5969C194.469 28.8004 193.976 28.9569 193.412 29.0664C192.849 29.176 192.34 29.2308 191.886 29.2308C190.9 29.2308 190.133 28.9725 189.585 28.456C189.053 27.9239 188.787 27.1726 188.787 26.2021V11.9041ZM196.497 24.4413V16.7405H199.643V23.7604C199.643 24.6996 199.815 25.4117 200.159 25.8969C200.504 26.3665 201.012 26.6013 201.685 26.6013C202.092 26.6013 202.491 26.523 202.883 26.3665C203.29 26.1943 203.658 25.9439 203.986 25.6152C204.331 25.2865 204.62 24.8717 204.855 24.3709V16.7405H208.001V25.5213C208.001 25.85 208.056 26.0848 208.165 26.2256C208.291 26.3665 208.486 26.4526 208.752 26.4839V29.043C208.439 29.0899 208.173 29.1212 207.954 29.1369C207.751 29.1682 207.563 29.1838 207.391 29.1838C206.827 29.1838 206.365 29.0586 206.005 28.8082C205.661 28.5421 205.458 28.1821 205.395 27.7282L205.324 26.7421C204.777 27.5717 204.072 28.2056 203.211 28.6438C202.351 29.0664 201.404 29.2777 200.371 29.2777C199.103 29.2777 198.14 28.8708 197.483 28.0569C196.825 27.2273 196.497 26.0221 196.497 24.4413ZM218.476 29.2777C217.537 29.2777 216.699 29.0664 215.964 28.6438C215.228 28.2212 214.649 27.6421 214.226 26.9065V29.043H211.48V11.9041H214.626V18.9005C215.064 18.1649 215.635 17.5857 216.339 17.1631C217.059 16.7405 217.897 16.5292 218.852 16.5292C219.65 16.5292 220.378 16.7014 221.035 17.0458C221.692 17.3744 222.256 17.8362 222.725 18.4309C223.211 19.0257 223.578 19.7066 223.829 20.4735C224.095 21.2405 224.228 22.0622 224.228 22.9387C224.228 23.8152 224.079 24.6369 223.782 25.4039C223.5 26.1708 223.101 26.8517 222.585 27.4465C222.068 28.0256 221.458 28.4795 220.753 28.8082C220.065 29.1212 219.305 29.2777 218.476 29.2777ZM217.607 26.6013C218.108 26.6013 218.562 26.5074 218.969 26.3195C219.392 26.1161 219.752 25.85 220.049 25.5213C220.362 25.1926 220.597 24.8091 220.753 24.3709C220.925 23.917 221.012 23.4474 221.012 22.9622C221.012 22.2892 220.871 21.6709 220.589 21.1074C220.323 20.5283 219.947 20.0666 219.462 19.7222C218.992 19.3779 218.437 19.2057 217.795 19.2057C217.341 19.2057 216.903 19.3153 216.48 19.5344C216.073 19.7379 215.706 20.0196 215.377 20.3796C215.064 20.7396 214.813 21.1466 214.626 21.6005V24.5352C214.719 24.8482 214.868 25.13 215.072 25.3804C215.291 25.6308 215.541 25.85 215.823 26.0378C216.105 26.21 216.394 26.3508 216.692 26.4604C217.005 26.5543 217.31 26.6013 217.607 26.6013Z" fill="black"/>
<path d="M84.3681 58.5642V41.8949H86.4811V58.5642H84.3681ZM90.4668 58.5642V41.8949H92.5798V58.5642H90.4668ZM108.586 43.7731H102.834V58.5642H100.721V43.7731H94.9691V41.8949H108.586V43.7731ZM122.906 58.6816C121.81 58.6816 120.785 58.4468 119.83 57.9773C118.891 57.4921 118.069 56.8503 117.365 56.0521C116.661 55.2382 116.113 54.3304 115.722 53.3286C115.33 52.3113 115.135 51.2626 115.135 50.1826C115.135 49.0557 115.33 47.9913 115.722 46.9896C116.113 45.9722 116.653 45.0722 117.342 44.2896C118.046 43.507 118.868 42.8966 119.807 42.4584C120.761 42.0044 121.794 41.7775 122.906 41.7775C124.518 41.7775 125.848 42.114 126.897 42.787C127.946 43.4601 128.736 44.3366 129.268 45.4166L127.648 46.5435C127.163 45.5731 126.498 44.8531 125.653 44.3835C124.807 43.914 123.876 43.6792 122.859 43.6792C122.014 43.6792 121.247 43.8592 120.558 44.2192C119.869 44.5792 119.275 45.0722 118.774 45.6983C118.288 46.3087 117.913 47.0052 117.647 47.7878C117.396 48.5704 117.271 49.3843 117.271 50.2295C117.271 51.1217 117.412 51.9669 117.694 52.7652C117.991 53.5478 118.406 54.2443 118.938 54.8547C119.47 55.4495 120.088 55.919 120.793 56.2634C121.497 56.6077 122.256 56.7799 123.07 56.7799C124.025 56.7799 124.933 56.5373 125.794 56.0521C126.654 55.5669 127.468 54.8234 128.235 53.8217V56.0051C126.733 57.7894 124.956 58.6816 122.906 58.6816ZM127.977 51.8495H124.385V50.253H129.761V58.5642H127.977V51.8495ZM132.529 53.6573V46.3087H134.595V53.2582C134.595 54.5104 134.814 55.4495 135.252 56.0755C135.69 56.7016 136.34 57.0147 137.201 57.0147C137.764 57.0147 138.304 56.8973 138.821 56.6625C139.353 56.4121 139.83 56.0599 140.253 55.606C140.675 55.1521 141.004 54.6121 141.239 53.986V46.3087H143.305V56.2164C143.305 56.4668 143.352 56.6547 143.446 56.7799C143.555 56.8895 143.728 56.9521 143.962 56.9677V58.5642C143.728 58.5955 143.54 58.6112 143.399 58.6112C143.274 58.6268 143.148 58.6346 143.023 58.6346C142.632 58.6346 142.295 58.5173 142.014 58.2825C141.732 58.032 141.583 57.7268 141.568 57.3668L141.521 55.9347C140.988 56.8425 140.268 57.5468 139.361 58.0477C138.469 58.5486 137.49 58.799 136.426 58.799C135.142 58.799 134.172 58.3686 133.515 57.5077C132.857 56.6312 132.529 55.3477 132.529 53.6573ZM162.101 46.3087H164.097L158.885 58.5642H157.077L154.706 52.7886L152.358 58.5642H150.55L145.338 46.3087H147.31L151.536 56.5216L153.508 51.4974L151.442 46.3322H153.25L154.706 50.2295L156.161 46.3322H157.969L155.926 51.4974L157.899 56.5216L162.101 46.3087ZM164.768 55.019C164.768 54.2364 164.987 53.5634 165.425 52.9999C165.879 52.4208 166.498 51.9747 167.28 51.6617C168.063 51.3487 168.971 51.1921 170.004 51.1921C170.551 51.1921 171.131 51.2391 171.741 51.333C172.351 51.4113 172.891 51.5365 173.361 51.7087V50.8165C173.361 49.8774 173.079 49.1417 172.516 48.6096C171.952 48.0618 171.154 47.7878 170.121 47.7878C169.448 47.7878 168.798 47.9131 168.172 48.1635C167.562 48.3983 166.912 48.7426 166.224 49.1965L165.472 47.7409C166.271 47.1931 167.069 46.7861 167.867 46.52C168.665 46.2383 169.495 46.0974 170.356 46.0974C171.921 46.0974 173.157 46.5357 174.065 47.4122C174.973 48.2731 175.427 49.4783 175.427 51.0278V56.2164C175.427 56.4668 175.474 56.6547 175.568 56.7799C175.677 56.8895 175.85 56.9521 176.084 56.9677V58.5642C175.881 58.5955 175.701 58.619 175.544 58.6346C175.404 58.6503 175.286 58.6581 175.192 58.6581C174.707 58.6581 174.339 58.5251 174.089 58.259C173.854 57.9929 173.721 57.7112 173.69 57.4138L173.643 56.639C173.11 57.3277 172.414 57.8599 171.553 58.2355C170.692 58.6112 169.839 58.799 168.994 58.799C168.18 58.799 167.452 58.6346 166.811 58.306C166.169 57.9616 165.668 57.5077 165.308 56.9442C164.948 56.3651 164.768 55.7234 164.768 55.019ZM172.751 55.8877C172.938 55.6686 173.087 55.4495 173.197 55.2303C173.306 54.9956 173.361 54.7999 173.361 54.6434V53.1173C172.876 52.9295 172.367 52.7886 171.835 52.6947C171.303 52.5852 170.778 52.5304 170.262 52.5304C169.213 52.5304 168.36 52.7417 167.703 53.1643C167.061 53.5712 166.74 54.1347 166.74 54.8547C166.74 55.246 166.842 55.6295 167.045 56.0051C167.264 56.3651 167.578 56.6625 167.984 56.8973C168.407 57.1321 168.924 57.2494 169.534 57.2494C170.176 57.2494 170.786 57.1242 171.365 56.8738C171.944 56.6077 172.406 56.279 172.751 55.8877ZM189.366 58.5642H187.3V51.7087C187.3 50.4565 187.073 49.5174 186.619 48.8913C186.181 48.2652 185.547 47.9522 184.717 47.9522C184.185 47.9522 183.645 48.0931 183.097 48.3748C182.565 48.6565 182.096 49.04 181.689 49.5252C181.282 49.9948 180.984 50.5426 180.797 51.1687V58.5642H178.731V41.4253H180.797V48.9383C181.282 48.0618 181.939 47.3731 182.769 46.8722C183.614 46.3557 184.522 46.0974 185.492 46.0974C186.228 46.0974 186.838 46.2305 187.324 46.4966C187.824 46.747 188.223 47.107 188.521 47.5765C188.818 48.0461 189.03 48.5939 189.155 49.22C189.296 49.8304 189.366 50.5035 189.366 51.2391V58.5642ZM191.616 55.019C191.616 54.2364 191.835 53.5634 192.274 52.9999C192.728 52.4208 193.346 51.9747 194.128 51.6617C194.911 51.3487 195.819 51.1921 196.852 51.1921C197.4 51.1921 197.979 51.2391 198.589 51.333C199.2 51.4113 199.74 51.5365 200.209 51.7087V50.8165C200.209 49.8774 199.927 49.1417 199.364 48.6096C198.801 48.0618 198.002 47.7878 196.969 47.7878C196.296 47.7878 195.647 47.9131 195.021 48.1635C194.41 48.3983 193.761 48.7426 193.072 49.1965L192.321 47.7409C193.119 47.1931 193.917 46.7861 194.715 46.52C195.514 46.2383 196.343 46.0974 197.204 46.0974C198.769 46.0974 200.006 46.5357 200.914 47.4122C201.821 48.2731 202.275 49.4783 202.275 51.0278V56.2164C202.275 56.4668 202.322 56.6547 202.416 56.7799C202.526 56.8895 202.698 56.9521 202.933 56.9677V58.5642C202.729 58.5955 202.549 58.619 202.393 58.6346C202.252 58.6503 202.134 58.6581 202.04 58.6581C201.555 58.6581 201.187 58.5251 200.937 58.259C200.702 57.9929 200.569 57.7112 200.538 57.4138L200.491 56.639C199.959 57.3277 199.262 57.8599 198.401 58.2355C197.541 58.6112 196.688 58.799 195.842 58.799C195.028 58.799 194.301 58.6346 193.659 58.306C193.017 57.9616 192.516 57.5077 192.156 56.9442C191.796 56.3651 191.616 55.7234 191.616 55.019ZM199.599 55.8877C199.787 55.6686 199.935 55.4495 200.045 55.2303C200.154 54.9956 200.209 54.7999 200.209 54.6434V53.1173C199.724 52.9295 199.215 52.7886 198.683 52.6947C198.151 52.5852 197.627 52.5304 197.11 52.5304C196.061 52.5304 195.208 52.7417 194.551 53.1643C193.909 53.5712 193.588 54.1347 193.588 54.8547C193.588 55.246 193.69 55.6295 193.894 56.0051C194.113 56.3651 194.426 56.6625 194.833 56.8973C195.255 57.1321 195.772 57.2494 196.382 57.2494C197.024 57.2494 197.634 57.1242 198.214 56.8738C198.793 56.6077 199.254 56.279 199.599 55.8877ZM211.826 57.9538C211.654 58.032 211.419 58.1338 211.122 58.259C210.824 58.3842 210.48 58.4938 210.089 58.5877C209.698 58.6816 209.283 58.7286 208.845 58.7286C208.344 58.7286 207.882 58.6425 207.459 58.4703C207.037 58.2825 206.7 58.0007 206.45 57.6251C206.199 57.2338 206.074 56.7486 206.074 56.1695V47.9287H204.407V46.3087H206.074V42.2236H208.14V46.3087H210.887V47.9287H208.14V55.5356C208.171 55.9738 208.32 56.3025 208.586 56.5216C208.852 56.7251 209.165 56.8268 209.525 56.8268C209.932 56.8268 210.308 56.7564 210.652 56.6155C210.997 56.4747 211.224 56.3729 211.333 56.3103L211.826 57.9538ZM213.741 58.5642V46.3087H215.807V58.5642H213.741ZM213.741 44.0079V41.4253H215.807V44.0079H213.741Z" fill="black"/>
<path d="M21.9288 35.2166L54.0865 14.2496L54.0666 0.000228882L0.200073 35.2166" fill="#5FB046"/>
<path d="M55.372 35.4062L1.50546 0.00025177L1.4856 14.3705L33.6433 35.5156L1.42603 56.1217V70.5037L55.372 35.4062Z" fill="#FAF8EB"/>
<path d="M0.200073 35.2166L54.146 70.5034V56.1214L21.9171 35.2166" fill="#5FB046"/>
</svg>
