<svg width="469" height="351" viewBox="0 0 469 351" fill="none" xmlns="http://www.w3.org/2000/svg">
<path d="M468.78 336.304C468.78 344.029 363.931 350.29 234.59 350.29C105.251 350.29 0.400047 344.029 0.400047 336.304C0.400047 328.58 105.251 322.318 234.59 322.318C363.931 322.318 468.78 328.58 468.78 336.304Z" fill="#F3F2F1"/>
<path d="M312.59 202.083H209.512C207.569 202.083 205.978 200.456 205.978 198.468V194.311C205.978 192.325 207.569 190.698 209.512 190.698H312.59C314.533 190.698 316.124 192.325 316.124 194.311V198.468C316.124 200.456 314.533 202.083 312.59 202.083Z" fill="#2A373C"/>
<path d="M311.605 328.887H316.124L310.923 202.083H304.671L311.605 328.887Z" fill="#406FBF"/>
<path d="M316.124 328.887H311.605L304.966 207.468H311.144L316.124 328.887Z" fill="#A4C3E9"/>
<path d="M270.013 328.887H265.494L270.695 202.083H276.947L270.013 328.887Z" fill="#406FBF"/>
<path d="M270.013 328.887H265.494L270.695 202.083H270.697L270.476 207.468H276.652L271.894 294.497L271.877 294.806L270.986 311.096L270.97 311.405L270.013 328.887ZM276.733 205.998L276.945 202.083H276.947L276.733 205.998Z" fill="#A4C3E9"/>
<path d="M252.089 328.887H256.608L251.407 202.083H245.156L252.089 328.887Z" fill="#406FBF"/>
<path d="M256.608 328.887H252.089L245.45 207.468H251.627L251.406 202.083H251.407L256.608 328.887ZM245.421 206.924L245.156 202.083H245.159L245.421 206.924Z" fill="#A4C3E9"/>
<path d="M210.497 328.887H205.978L211.179 202.083H217.431L210.497 328.887Z" fill="#406FBF"/>
<path d="M210.497 328.887H205.978L208.12 276.676C209.355 278.842 210.556 280.898 211.703 282.825C211.917 288.606 212.088 293.621 212.213 297.51L211.755 305.882L211.738 306.191L210.497 328.887Z" fill="#A4C3E9"/>
<path d="M311.149 207.467H311.144L310.923 202.082H304.671L304.966 207.467H304.96L304.668 202.082H310.927L311.149 207.467Z" fill="#B4CEEE"/>
<path d="M304.668 202.083H310.927V202.079H304.668V202.083Z" fill="#22497D"/>
<path d="M311.144 207.467H304.966L304.671 202.082H310.923L311.144 207.467Z" fill="#80A8DE"/>
<path d="M276.653 207.467H276.652L276.733 205.997L276.653 207.467Z" fill="#A8C3E9"/>
<path d="M270.696 202.083H276.945V202.079H270.696V202.083Z" fill="#22497D"/>
<path d="M276.652 207.467H270.475L270.696 202.082H276.945L276.733 205.997L276.652 207.467Z" fill="#80A8DE"/>
<path d="M245.45 207.467L245.421 206.926L245.45 207.467Z" fill="#B4CEEE"/>
<path d="M245.159 202.083H251.406V202.079H245.159V202.083Z" fill="#22497D"/>
<path d="M251.627 207.467H245.45L245.421 206.924L245.159 202.082H251.406L251.627 207.467Z" fill="#80A8DE"/>
<path d="M249.187 310.252L238.958 315.807L222.853 293.559L233.083 288.005L249.187 310.252Z" fill="#F89E63"/>
<path d="M235.271 312.373L245.944 304.785C246.331 304.509 246.812 304.576 247.098 304.948L253.488 313.214C254.151 314.071 253.905 315.504 253 316.124C249.24 318.7 247.545 319.6 242.629 322.584C239.606 324.419 232.354 328.773 227.9 330.753C223.544 332.69 221.657 328.171 223.374 326.927C227.436 323.978 232.824 318.195 234.041 314.134C234.261 313.402 234.703 312.778 235.271 312.373Z" fill="#2A373C"/>
<path d="M240.61 298.401L238.68 295.736L238.686 295.733L240.616 298.398L240.61 298.401Z" fill="#C3C5C2"/>
<path d="M234.234 302.149C234.362 301.021 234.506 299.714 234.666 298.252L238.68 295.737L240.61 298.402L234.234 302.149Z" fill="#DC834C"/>
<path d="M257.767 156.247C257.767 156.247 178.361 153.719 178.089 187.647C177.697 236.412 222.956 300.445 222.956 300.445L240.576 288.406C240.576 288.406 209.562 241.85 209.296 203.784C232.7 197.028 287.787 201.263 294.942 181.43C300.795 165.205 297.737 156.247 297.737 156.247H257.767Z" fill="#406FBF"/>
<path d="M235.896 286.171C236.037 284.688 236.181 283.145 236.325 281.552C237.026 282.734 237.662 283.782 238.215 284.68L235.896 286.171ZM211.704 282.824C209.025 278.327 206.057 273.129 203.031 267.434C191.045 244.877 178.091 214.45 178.087 188.291C178.087 188.076 178.087 187.862 178.089 187.647C178.164 178.275 184.276 171.685 193.086 167.055H232.595C217.185 172.276 204.75 179.674 205.954 189.853C208.812 214.002 210.724 256.413 211.704 282.824ZM238.211 199.589C238.139 198.922 238.063 198.261 237.984 197.612C242.132 197.612 247.441 197.672 253.34 197.672C254.539 197.672 255.763 197.669 257.007 197.663C250.821 198.43 244.411 199.011 238.211 199.589Z" fill="#3563B7"/>
<path d="M245.438 291.504L224.375 304.696L217.77 297.841L240.911 282.942L245.438 291.504Z" fill="#2A373C"/>
<path d="M234.518 314.418C233.055 315.973 231.767 316.809 231.017 316.672C230.705 316.617 230.475 316.388 230.31 315.974C230.234 315.784 230.243 315.629 230.338 315.484C230.792 314.79 232.929 314.484 234.518 314.418ZM233.055 316.46C233.933 315.836 234.778 314.962 235.351 314.313L235.397 314.018L235.151 313.854C234.701 313.854 230.734 313.886 229.89 315.177C229.694 315.475 229.667 315.823 229.81 316.183C230.048 316.779 230.423 317.125 230.923 317.215C231.56 317.33 232.32 316.984 233.055 316.46Z" fill="#406FBF"/>
<path d="M231.329 311.342C231.514 311.209 231.714 311.164 231.94 311.201C232.896 311.356 234.061 312.901 234.663 313.844C233.351 313.717 231.36 312.847 231.032 312.05C230.969 311.899 230.935 311.69 231.23 311.421L231.329 311.342ZM235.305 314.354L235.39 314.258L235.384 313.991C235.312 313.865 233.626 310.92 232.026 310.657C231.595 310.585 231.207 310.706 230.872 311.008C230.471 311.373 230.352 311.82 230.535 312.265C231.037 313.479 233.833 314.5 235.17 314.403L235.305 314.354Z" fill="#406FBF"/>
<path d="M230.277 323.887L218.798 323.332L216.92 295.62L228.397 296.176L230.277 323.887Z" fill="#F89E63"/>
<path d="M218.535 321.333L231.528 320.913C232 320.897 232.368 321.222 232.41 321.694L233.365 332.184C233.464 333.272 232.496 334.337 231.406 334.353C226.88 334.419 224.711 334.217 218.998 334.402C215.483 334.515 208.568 335.05 203.75 334.43C199.037 333.823 199.669 328.953 201.765 328.776C206.73 328.36 213.383 324.852 216.567 322.125C217.14 321.634 217.844 321.356 218.535 321.333Z" fill="#2A373C"/>
<path d="M216.815 322.618C214.761 323.107 213.234 323.09 212.677 322.559C212.446 322.339 212.374 322.019 212.456 321.58C212.494 321.378 212.584 321.252 212.742 321.183C213.493 320.855 215.447 321.789 216.815 322.618ZM214.501 323.516C215.568 323.483 216.744 323.218 217.569 322.993L217.766 322.771L217.646 322.497C217.269 322.246 213.925 320.064 212.53 320.676C212.206 320.817 211.998 321.095 211.927 321.478C211.809 322.107 211.938 322.608 212.31 322.962C212.783 323.413 213.605 323.544 214.501 323.516Z" fill="#406FBF"/>
<path d="M215.78 318.26C216.004 318.253 216.196 318.327 216.366 318.484C217.084 319.147 217.239 321.091 217.242 322.215C216.209 321.379 215.004 319.541 215.152 318.69C215.18 318.528 215.263 318.334 215.655 318.273L215.78 318.26ZM217.509 323.003L217.631 322.969L217.768 322.741C217.776 322.597 217.93 319.188 216.727 318.076C216.403 317.775 216.016 317.66 215.574 317.726C215.042 317.81 214.705 318.118 214.622 318.594C214.395 319.892 216.196 322.304 217.37 322.97L217.509 323.003Z" fill="#406FBF"/>
<path d="M229.434 311.454L229.125 306.903H229.132L229.442 311.454H229.434Z" fill="#C3C5C2"/>
<path d="M217.999 311.475L217.656 306.443L229.124 306.904L229.434 311.454L217.999 311.475Z" fill="#DC834C"/>
<path d="M286.015 156.247C286.015 156.247 202.93 164.279 205.954 189.853C210.319 226.738 212.478 306.235 212.478 306.235L233.653 307.084C233.653 307.084 242.626 235.383 237.984 197.612C259.485 197.612 312.121 199.197 316.921 185.947C321.161 174.243 319.647 156.247 319.647 156.247H286.015Z" fill="#406FBF"/>
<path d="M235.991 308.419L210.576 307.131L209.663 295.819L237.533 297.788L235.991 308.419Z" fill="#2A373C"/>
<path d="M267.573 81.3231C267.42 83.4031 267.258 85.1991 267.027 87.1098C266.81 88.991 266.558 90.8647 266.267 92.7335C265.701 96.4772 264.986 100.204 264.137 103.939C262.368 111.408 260.215 118.871 256.17 126.443C255.106 128.34 253.95 130.225 252.443 132.109C250.969 133.965 249.043 135.926 246.96 137.332C242.753 140.241 237.966 141.626 233.583 141.946C229.166 142.288 225.028 141.737 221.16 140.741C219.223 140.242 217.348 139.625 215.528 138.896C214.616 138.538 213.722 138.134 212.834 137.715C211.919 137.29 211.131 136.848 210.117 136.291L213.294 128.024L215.603 128.323L218.022 128.574C219.635 128.705 221.233 128.785 222.797 128.791C225.921 128.799 228.924 128.485 231.51 127.77C234.103 127.037 236.185 125.929 237.658 124.498C238.424 123.758 238.976 123.098 239.658 122.097C240.326 121.125 240.95 119.869 241.567 118.591C242.788 115.962 243.833 112.957 244.702 109.809C245.614 106.678 246.358 103.403 247.02 100.076C247.703 96.7539 248.252 93.3646 248.776 89.9643L249.488 84.8507C249.698 83.1746 249.937 81.38 250.094 79.857L267.573 81.3231Z" fill="#F89E63"/>
<path d="M267.648 71.2602C259.153 62.8673 248.683 67.8215 244.507 83.5413C240.33 99.2586 239.679 109.323 239.679 109.323L266.578 115.012C271.467 100.008 276.347 79.8556 267.648 71.2602Z" fill="#2A373C"/>
<path d="M211.466 124.218L205.48 121.858L205.216 134.966C205.216 134.966 215.365 139.453 217.431 134.299L216.704 131.029C216.08 128.227 214.146 125.711 211.466 124.218Z" fill="#F89E63"/>
<path d="M198.305 122.204L194.742 133.202L205.216 134.965L205.48 121.858L198.305 122.204Z" fill="#F89E63"/>
<path d="M207.439 130.933C207.187 130.933 206.945 130.793 206.821 130.548L196.03 109.311C195.854 108.963 195.987 108.533 196.328 108.352C196.669 108.172 197.09 108.307 197.267 108.655L208.057 129.893C208.235 130.241 208.1 130.671 207.76 130.854L207.439 130.933Z" fill="#2A373C"/>
<path d="M266.65 62.8429L279.543 59.0831L296.124 58.2827C301.296 58.032 305.972 61.3545 307.588 66.3853C310.749 76.2356 313.656 90.5054 315.775 102.821C318.149 116.63 319.387 137.384 319.647 156.248H257.767C256.355 116.909 251.459 93.6501 249.287 80.781C248.412 75.5946 251.019 70.4588 255.664 68.196L266.65 62.8429Z" fill="#2A373C"/>
<path d="M277.349 33.4009C280.001 40.0695 278.405 52.3 273.166 48.8391C267.927 45.3794 275.731 29.3286 277.349 33.4009Z" fill="#2A373C"/>
<path d="M274.402 37.6651L269.392 45.4861L262.571 56.1466C263.04 56.3961 264.081 58.0685 264.68 59.3025C265.925 61.8691 266.954 63.791 261.684 67.4644C260.556 68.2511 259.846 69.6283 260.102 71.0006C260.411 72.6643 262.037 74.2836 267.726 73.256C274.315 72.0665 278.725 68.5044 282.004 65.1509C283.899 63.213 283.463 61.7542 281.638 59.7471C276.467 54.0617 274.92 44.9846 274.402 37.6651Z" fill="#F89E63"/>
<path d="M239.164 28.4472C237.61 32.0403 243.134 42.2204 249.451 38.1049C255.767 33.9881 241.918 22.08 239.164 28.4472Z" fill="#2A373C"/>
<path d="M269.626 75.4463C269.457 75.4463 269.308 75.3215 269.282 75.1462C268.814 72.0916 266.886 70.1561 264.651 67.9143C261.85 65.1019 258.675 61.9152 257.63 55.6814C257.598 55.4875 257.724 55.3047 257.915 55.2701C258.115 55.233 258.284 55.3677 258.317 55.5603C259.323 61.5681 262.413 64.6696 265.139 67.4042C267.365 69.6399 269.467 71.7495 269.97 75.035C269.999 75.2289 269.87 75.4117 269.68 75.4426L269.626 75.4463Z" fill="white"/>
<path d="M272.19 24.8321C274.552 36.0201 276.494 42.4565 272.583 49.5759C266.699 60.2834 251.958 58.8272 246.354 48.5297C241.31 39.2611 238.295 22.5211 247.682 15.2955C256.93 8.17604 269.828 13.6428 272.19 24.8321Z" fill="#F89E63"/>
<path d="M275.441 32.5138C271.676 37.9843 261.796 27.9363 262.6 21.1924C252.791 26.9025 242.139 34.5283 235.672 28.1018C228.213 20.6885 230.257 10.0686 238.999 9.12124C237.451 12.2054 246.208 13.5752 250.923 8.80383C258.834 0.800045 271.331 2.47612 271.1 8.9619C277.133 6.51013 283.718 20.4908 275.441 32.5138Z" fill="#2A373C"/>
<path d="M269.946 10.7695C272.281 8.99462 270.724 2.66076 265.318 0.799389C270.458 1.47749 275.785 5.40033 269.946 10.7695Z" fill="#2A373C"/>
<path d="M278.927 32.0168C279.05 34.7996 278.025 37.3921 276.64 39.0719C274.559 41.5966 271.351 39.5821 270.608 36.4312C269.939 33.594 270.806 29.2142 273.53 27.858C276.214 26.5216 278.787 28.835 278.927 32.0168Z" fill="#F89E63"/>
<path d="M256.492 33.9001C256.784 34.8079 256.556 35.7182 255.982 35.9331C255.41 36.1481 254.709 35.5873 254.419 34.6782C254.127 33.7716 254.355 32.8625 254.928 32.6476C255.501 32.4327 256.201 32.9935 256.492 33.9001Z" fill="#2A373C"/>
<path d="M246.59 37.617C246.881 38.5248 246.653 39.4339 246.081 39.6501C245.508 39.865 244.808 39.3017 244.516 38.3951C244.225 37.4885 244.454 36.5782 245.026 36.3645C245.599 36.1484 246.299 36.7104 246.59 37.617Z" fill="#2A373C"/>
<path d="M249.976 37.138C249.976 37.138 250.043 42.2367 249.057 45.1628C250.832 45.8224 252.791 44.2599 252.791 44.2599L249.976 37.138Z" fill="#F57739"/>
<path d="M255.282 49.2383C258.757 48.0093 259.95 45.1079 260.003 44.9733C260.06 44.83 259.992 44.6658 259.853 44.6077C259.712 44.5497 259.553 44.6188 259.496 44.7609C259.481 44.7955 258.127 48.1007 254.117 48.9913C253.969 49.0246 253.876 49.1741 253.91 49.326C253.941 49.4767 254.087 49.5718 254.236 49.5397C254.605 49.4557 254.954 49.3556 255.282 49.2383Z" fill="#2A373C"/>
<path d="M257.398 29.98L257.599 29.7897C257.763 29.5291 257.69 29.182 257.435 29.0141C254.914 27.3602 252.606 28.4508 252.51 28.4978C252.24 28.5978 252.121 28.9647 252.251 29.245C252.382 29.5242 252.708 29.6427 252.981 29.5106C253.076 29.4661 254.862 28.6571 256.842 29.9577C257.016 30.0726 257.229 30.0738 257.398 29.98Z" fill="#2A373C"/>
<path d="M244.627 31.7563L244.589 31.4784C244.473 31.1931 244.151 31.0572 243.872 31.1758C241.105 32.3504 240.668 34.9121 240.651 35.0196C240.577 35.3024 240.803 35.6125 241.104 35.6631C241.402 35.7125 241.683 35.5062 241.732 35.2012C241.751 35.0949 242.119 33.1335 244.293 32.2109C244.482 32.1306 244.606 31.9515 244.627 31.7563Z" fill="#2A373C"/>
<path d="M305.453 66.7664C306.617 68.7648 307.629 70.5608 308.628 72.4901C309.626 74.3897 310.594 76.3005 311.543 78.2261C313.456 82.0674 315.185 86.0162 316.839 90.0416C318.444 94.0867 319.959 98.2158 321.217 102.547C322.446 106.894 323.539 111.383 323.957 116.445C324.142 118.987 324.183 121.684 323.684 124.727C323.459 126.139 322.979 128.109 322.082 129.93C321.207 131.76 319.892 133.486 318.396 134.796C316.899 136.129 315.274 137.047 313.731 137.686C312.181 138.329 310.696 138.709 309.29 138.955C306.477 139.446 303.943 139.362 301.549 139.17C299.156 138.967 296.896 138.561 294.713 138.04C292.53 137.531 290.418 136.917 288.361 136.208C284.216 134.797 280.369 133.151 276.452 131.056L279.515 122.742C287.024 124.194 295.093 125.545 301.863 125.12C303.525 125.019 305.076 124.725 306.239 124.353C307.412 123.981 308.066 123.428 308.017 123.256L307.914 123.137C307.882 123.073 307.877 123.003 307.942 122.363C308.031 121.291 307.95 119.801 307.708 118.219C307.232 115.02 306.248 111.431 305.01 107.875C303.775 104.301 302.343 100.68 300.752 97.0931C299.205 93.4839 297.473 89.9144 295.746 86.3337C294.872 84.5464 293.974 82.7702 293.055 81.0077L290.324 75.8361L305.453 66.7664Z" fill="#F89E63"/>
<path d="M299.794 58.4772C288.116 56.6603 282.384 66.8997 287.877 82.1884C293.369 97.4784 298.535 106.069 298.535 106.069L323.69 94.7833C319.182 79.6551 311.753 60.3361 299.794 58.4772Z" fill="#2A373C"/>
<path d="M273.052 121.56L267.656 123.221L275.302 134.324C275.302 134.324 286.639 130.172 284.317 125.133L281.468 123.474C279.026 122.051 275.939 120.548 273.052 121.56Z" fill="#F89E63"/>
<path d="M262.892 130.873L268.288 136.391L275.302 134.323L267.656 123.22L262.892 130.873Z" fill="#F89E63"/>
<path d="M276.4 33.4019C276.4 34.5889 275.623 35.5498 274.665 35.5498C273.707 35.5498 272.931 34.5889 272.931 33.4019C272.931 32.2149 273.707 31.2527 274.665 31.2527C275.623 31.2527 276.4 32.2149 276.4 33.4019Z" fill="white"/>
<path d="M276.107 39.083L275.1 39.0484L274.483 34.0955L276.4 33.6558L276.107 39.083Z" fill="white"/>
<path d="M283.042 132.443C279.377 132.443 276.205 131.896 274.251 130.093C272.856 128.806 272.148 126.933 272.148 124.525C272.148 118.576 273.356 113.752 274.421 109.495C276.106 102.765 277.437 97.4503 273.399 90.9003C266.977 80.483 268.888 65.9193 273.382 56.7965C276.826 49.8117 275.656 42.0809 275.216 39.1709C275.158 38.7904 275.114 38.4977 275.094 38.305C275.076 38.1086 275.215 37.9345 275.405 37.9135C275.59 37.9036 275.768 38.037 275.787 38.2322C275.805 38.4187 275.848 38.699 275.903 39.0622C276.352 42.034 277.547 49.929 274.006 57.1176C269.596 66.0663 267.71 80.3372 273.989 90.5211C278.186 97.3292 276.753 103.049 275.095 109.672C274.039 113.888 272.844 118.665 272.844 124.525C272.844 126.754 273.456 128.402 274.717 129.565C277.97 132.566 285.171 131.804 292.137 131.069C295.249 130.74 298.468 130.399 301.308 130.399C301.5 130.399 301.656 130.559 301.656 130.755C301.656 130.953 301.5 131.112 301.308 131.112C298.503 131.112 295.304 131.45 292.208 131.778C289.083 132.107 285.911 132.443 283.042 132.443Z" fill="white"/>
<path d="M315.783 129.806H302.034C301.633 129.806 301.309 130.137 301.309 130.546V131.536C301.309 131.946 301.633 132.278 302.034 132.278H315.783C316.184 132.278 316.508 131.946 316.508 131.536V130.546C316.508 130.137 316.184 129.806 315.783 129.806Z" fill="white"/>
<path d="M402.046 140.504H67.1341C64.9213 140.504 63.1119 138.652 63.1119 136.391C63.1119 134.128 64.9213 132.278 67.1341 132.278H402.046C404.259 132.278 406.068 134.128 406.068 136.391C406.068 138.652 404.259 140.504 402.046 140.504Z" fill="#406FBF"/>
<path d="M402.046 140.504H323.643C321.431 140.504 319.621 138.652 319.621 136.391C319.621 134.128 321.431 132.278 323.643 132.278H402.046C404.259 132.278 406.068 134.128 406.068 136.391C406.068 137.871 405.294 139.175 404.139 139.899C403.528 140.283 402.812 140.504 402.046 140.504Z" fill="#3665B9"/>
<path d="M398.353 334.307H406.068L397.188 140.513H386.514L398.353 334.307Z" fill="#2A373C"/>
<path d="M406.068 334.307H398.353L386.514 140.513H397.188L406.068 334.307Z" fill="#2B3C43"/>
<path d="M327.335 334.307H319.621L328.502 140.513H339.176L327.335 334.307Z" fill="#2A373C"/>
<path d="M327.335 334.307H319.621L327.285 167.064H331.821V150.823H328.029L328.502 140.513H339.176L330.22 287.095L329.767 294.506L329.749 294.815L328.753 311.106L328.734 311.414L327.335 334.307Z" fill="#405158"/>
<path d="M141.845 334.307H149.559L140.678 140.513H130.004L141.845 334.307Z" fill="#2A373C"/>
<path d="M149.559 334.307H141.845L131.626 167.064H141.896L149.559 334.307Z" fill="#2B3C43"/>
<path d="M141.152 150.813H130.635L130.004 140.504H140.678L141.152 150.813Z" fill="#2B3C43"/>
<path d="M70.8253 334.307H63.1119L71.9921 140.513H82.6659L70.8253 334.307Z" fill="#2A373C"/>
<path d="M70.8253 334.307H63.1119L71.9921 140.513H82.6659L82.0366 150.823H74.2411V167.064H81.0437L78.2053 213.517L77.3574 227.408L74.5817 272.843L73.2579 294.506L73.2386 294.815L70.8253 334.307Z" fill="#405158"/>
<path d="M74.2411 167.055H331.821V150.814H74.2411V167.055Z" fill="#2A373C"/>
<path d="M331.821 167.055H74.2411V150.814H331.821V167.055Z" fill="#405158"/>
<path d="M116.618 121.349C115.684 121.349 114.928 122.122 114.928 123.077V130.55C114.928 131.505 115.684 132.278 116.618 132.278H171.397C171.702 132.278 171.948 132.026 171.948 131.715V121.911C171.948 121.601 171.702 121.349 171.397 121.349H116.618Z" fill="#406FBF"/>
<path d="M171.948 131.237H149.038C148.5 131.237 148.063 130.791 148.063 130.239V123.389C148.063 122.837 148.5 122.391 149.038 122.391H171.948V131.237Z" fill="#E6EFFA"/>
<path d="M145.262 121.349H89.9309C88.9973 121.349 88.2411 122.122 88.2411 123.077V130.55C88.2411 131.505 88.9973 132.278 89.9309 132.278H145.262C146.194 132.278 146.95 131.505 146.95 130.55V123.077C146.95 122.122 146.194 121.349 145.262 121.349Z" fill="#406FBF"/>
<path d="M145.262 132.278H130.173C130.554 132.278 130.862 131.962 130.862 131.574V122.054C130.862 121.664 130.554 121.349 130.173 121.349H135.356H145.262C146.194 121.349 146.95 122.122 146.95 123.077V130.55C146.95 131.505 146.194 132.278 145.262 132.278Z" fill="#3563B7"/>
<path d="M121.785 132.278H118.049C118.429 132.278 118.737 131.962 118.737 131.574V122.054C118.737 121.664 118.429 121.349 118.049 121.349H121.785C121.404 121.349 121.096 121.664 121.096 122.054V131.574C121.096 131.962 121.404 132.278 121.785 132.278Z" fill="#3563B7"/>
<path d="M109.66 132.278H89.9309C88.9973 132.278 88.2411 131.505 88.2411 130.55V123.077C88.2411 122.122 88.9973 121.349 89.9309 121.349H109.66C109.28 121.349 108.972 121.664 108.972 122.054V131.574C108.972 131.962 109.28 132.278 109.66 132.278Z" fill="#3563B7"/>
<path d="M118.049 132.278H109.66C109.28 132.278 108.972 131.962 108.972 131.574V122.054C108.972 121.664 109.28 121.349 109.66 121.349H118.049C118.429 121.349 118.737 121.664 118.737 122.054V131.574C118.737 131.962 118.429 132.278 118.049 132.278Z" fill="#3B69BC"/>
<path d="M130.174 132.278H121.785C121.405 132.278 121.097 131.962 121.097 131.574V122.054C121.097 121.664 121.405 121.349 121.785 121.349H130.174C130.554 121.349 130.862 121.664 130.862 122.054V131.574C130.862 131.962 130.554 132.278 130.174 132.278Z" fill="#3B69BC"/>
<path d="M106.712 107.897C105.778 107.897 105.022 108.67 105.022 109.624V119.621C105.022 120.575 105.778 121.349 106.712 121.349H166.053C166.356 121.349 166.602 121.097 166.602 120.786V108.459C166.602 108.148 166.356 107.897 166.053 107.897H106.712Z" fill="#406FBF"/>
<path d="M166.602 120.307H139.133C138.594 120.307 138.157 119.861 138.157 119.311V109.934C138.157 109.384 138.594 108.937 139.133 108.937H166.602V120.307Z" fill="#E6EFFA"/>
<path d="M135.356 107.897H88.8249C87.8913 107.897 87.1351 108.67 87.1351 109.624V119.621C87.1351 120.575 87.8913 121.349 88.8249 121.349H135.356C136.29 121.349 137.046 120.575 137.046 119.621V109.624C137.046 108.67 136.29 107.897 135.356 107.897Z" fill="#406FBF"/>
<path d="M135.356 121.349H88.8249C87.8913 121.349 87.1351 120.575 87.1351 119.621V109.624C87.1351 108.67 87.8913 107.897 88.8249 107.897H97.0432H102.343H104.096H135.356C136.29 107.897 137.046 108.67 137.046 109.624V119.621C137.046 120.575 136.29 121.349 135.356 121.349ZM96.9236 110.565C96.3559 110.565 95.8945 111.037 95.8945 111.617V117.629C95.8945 118.208 96.3559 118.68 96.9236 118.68H130.992C131.561 118.68 132.023 118.208 132.023 117.629V111.617C132.023 111.037 131.561 110.565 130.992 110.565H96.9236Z" fill="#5D87CD"/>
<path d="M130.992 118.681H96.9233C96.3556 118.681 95.8942 118.209 95.8942 117.63V111.618C95.8942 111.038 96.3556 110.566 96.9233 110.566H130.992C131.561 110.566 132.022 111.038 132.022 111.618V117.63C132.022 118.209 131.561 118.681 130.992 118.681Z" fill="#4A77C4"/>
<path d="M124.122 101.452C123.188 101.452 122.432 101.908 122.432 102.471V106.877C122.432 107.439 123.188 107.897 124.122 107.897H178.902C179.205 107.897 179.453 107.748 179.453 107.565V101.783C179.453 101.6 179.205 101.452 178.902 101.452H124.122Z" fill="#406FBF"/>
<path d="M179.453 107.283H156.316C155.902 107.283 155.568 106.939 155.568 106.516V102.832C155.568 102.408 155.902 102.066 156.316 102.066H179.453V107.283Z" fill="#E6EFFA"/>
<path d="M153.159 101.452H97.0431C96.3268 101.452 95.7458 102.045 95.7458 102.778V106.569C95.7458 107.302 96.3268 107.897 97.0431 107.897H153.159C153.875 107.897 154.456 107.302 154.456 106.569V102.778C154.456 102.045 153.875 101.452 153.159 101.452Z" fill="#406FBF"/>
<path d="M153.159 107.897H149.658C149.799 107.897 149.911 107.781 149.911 107.638V101.71C149.911 101.568 149.799 101.452 149.658 101.452H153.159C153.875 101.452 154.456 102.045 154.456 102.778V106.569C154.456 107.302 153.875 107.897 153.159 107.897ZM147.938 107.897H104.096C104.236 107.897 104.349 107.78 104.349 107.636V101.713C104.349 101.569 104.236 101.452 104.096 101.452H143.253H147.938C147.798 101.452 147.686 101.568 147.686 101.71V107.638C147.686 107.781 147.798 107.897 147.938 107.897ZM102.343 107.897H97.0431C96.3268 107.897 95.7458 107.302 95.7458 106.569V102.778C95.7458 102.045 96.3268 101.452 97.0431 101.452H102.343C102.203 101.452 102.088 101.569 102.088 101.713V107.636C102.088 107.78 102.203 107.897 102.343 107.897Z" fill="#3563B7"/>
<path d="M104.096 107.897H102.343C102.203 107.897 102.088 107.78 102.088 107.636V101.713C102.088 101.569 102.203 101.452 102.343 101.452H104.096C104.236 101.452 104.35 101.569 104.35 101.713V107.636C104.35 107.78 104.236 107.897 104.096 107.897Z" fill="#3B69BC"/>
<path d="M149.658 107.897H147.938C147.798 107.897 147.686 107.781 147.686 107.638V101.71C147.686 101.568 147.798 101.452 147.938 101.452H149.658C149.799 101.452 149.911 101.568 149.911 101.71V107.638C149.911 107.781 149.799 107.897 149.658 107.897Z" fill="#3B69BC"/>
<path d="M114.216 92.1391C113.283 92.1391 112.527 92.5961 112.527 93.1581V100.433C112.527 100.996 113.283 101.452 114.216 101.452H173.557C173.86 101.452 174.107 101.304 174.107 101.12V92.4714C174.107 92.2886 173.86 92.1391 173.557 92.1391H114.216Z" fill="#406FBF"/>
<path d="M174.107 100.838H146.41C145.997 100.838 145.662 100.495 145.662 100.073V93.5189C145.662 93.0964 145.997 92.7531 146.41 92.7531H174.107V100.838Z" fill="#E6EFFA"/>
<path d="M143.253 92.1391H95.9365C95.2202 92.1391 94.6392 92.7332 94.6392 93.4657V100.126C94.6392 100.858 95.2202 101.452 95.9365 101.452H143.253C143.969 101.452 144.55 100.858 144.55 100.126V93.4657C144.55 92.7332 143.969 92.1391 143.253 92.1391Z" fill="#406FBF"/>
<path d="M143.253 101.452H95.9365C95.2202 101.452 94.6392 100.858 94.6392 100.126V93.4657C94.6392 92.7332 95.2202 92.1391 95.9365 92.1391H143.253C143.969 92.1391 144.55 92.7332 144.55 93.4657V100.126C144.55 100.858 143.969 101.452 143.253 101.452Z" fill="#3B69BB"/>
<path d="M246.571 130.221H196.718C196.166 130.221 195.713 130.684 195.713 131.249C195.713 131.815 196.166 132.278 196.718 132.278H246.571C247.124 132.278 247.576 131.815 247.576 131.249C247.576 130.684 247.124 130.221 246.571 130.221Z" fill="white"/>
<path d="M344.094 127.776H376.85L379.809 132.157H341.134L344.094 127.776Z" fill="#2A373C"/>
<path d="M394.679 52.9431C394.679 55.432 392.706 57.4502 390.272 57.4502C387.838 57.4502 385.866 55.432 385.866 52.9431C385.866 50.4555 387.838 48.4373 390.272 48.4373C392.706 48.4373 394.679 50.4555 394.679 52.9431Z" fill="#040606"/>
<path d="M361.554 130.742C361.374 130.742 361.19 130.705 361.014 130.628C360.305 130.323 359.974 129.487 360.273 128.763L391.832 52.3898C392.131 51.6648 392.945 51.3227 393.655 51.6327C394.364 51.9378 394.696 52.774 394.397 53.4978L362.838 129.871C362.613 130.414 362.097 130.742 361.554 130.742Z" fill="#2A373C"/>
<path d="M393.113 54.3672C392.823 54.3672 392.529 54.2758 392.279 54.0831L334.96 10.1475C334.344 9.67444 334.219 8.78267 334.681 8.15398C335.14 7.52529 336.015 7.39559 336.63 7.86742L393.95 51.8055C394.564 52.2761 394.69 53.1678 394.227 53.7978C393.954 54.1708 393.537 54.3672 393.113 54.3672Z" fill="#2A373C"/>
<path d="M397.521 52.9431C397.521 55.432 395.548 57.4502 393.115 57.4502C390.68 57.4502 388.708 55.432 388.708 52.9431C388.708 50.4555 390.68 48.4373 393.115 48.4373C395.548 48.4373 397.521 50.4555 397.521 52.9431Z" fill="#2A373C"/>
<path d="M338.905 12.1861C337.188 13.9412 334.404 13.9412 332.686 12.1861C330.97 10.4297 330.97 7.58267 332.686 5.82752C334.404 4.07113 337.188 4.07113 338.905 5.82752C340.623 7.58267 340.623 10.4297 338.905 12.1861Z" fill="#2A373C"/>
<path d="M329.634 29.5525C325.787 33.4877 319.55 33.4877 315.703 29.5525C311.856 25.6185 311.856 19.2414 315.703 15.3075C319.55 11.3735 325.787 11.3735 329.634 15.3075C333.481 19.2414 333.481 25.6185 329.634 29.5525Z" fill="#406FBF"/>
<path d="M327.593 31.1572L314.135 17.3951L327.593 31.1572Z" fill="#B8D2EF"/>
<path d="M335.796 9.00725C327.549 0.573635 314.179 0.573635 305.932 9.00725L335.796 39.5464C344.042 31.1128 344.042 17.4396 335.796 9.00725Z" fill="#2A373C"/>
<path d="M281.179 59.0034V33.337L289.479 25.1788V58.602L281.179 59.0034Z" fill="#DDE4EC"/>
<path d="M319.366 96.7764C319.36 96.7615 319.355 96.7467 319.35 96.7319L319.383 96.7171L319.366 96.7764ZM321.726 88.5564C317.119 74.8117 310.157 60.0886 299.794 58.478C298.895 58.3384 298.029 58.2693 297.203 58.2693C297.109 58.2693 297.016 58.2705 296.924 58.2717C296.839 58.2705 296.754 58.2693 296.669 58.2693C296.489 58.2693 296.307 58.273 296.124 58.2828L289.479 58.6027V25.1795L305.932 9.00768L314.135 17.3956C313.257 18.9482 312.818 20.6897 312.818 22.4313C312.818 25.0091 313.781 27.5869 315.704 29.5532C317.627 31.5208 320.147 32.504 322.669 32.504C324.371 32.504 326.074 32.0556 327.593 31.1577L335.796 39.5468L321.726 88.5564Z" fill="#EAF1FA"/>
<path d="M277.491 52.9033C277.012 51.72 276.605 50.496 276.256 49.2498C276.269 49.1398 276.282 49.0299 276.294 48.92C276.762 48.5358 277.162 47.9565 277.491 47.2352V52.9033Z" fill="#DDE4EC"/>
<path d="M281.006 59.0117C279.539 57.217 278.391 55.1333 277.491 52.9026V47.2345C278.676 44.6333 278.934 40.1831 278.196 36.3738C278.218 36.3183 278.24 36.2627 278.26 36.2059L281.179 33.3366V59.0031L281.006 59.0117Z" fill="#D3D9E1"/>
<path d="M256.373 132.278H252.308C252.354 132.221 252.399 132.165 252.443 132.109C253.825 130.381 254.912 128.653 255.904 126.915C256.066 128.655 256.223 130.444 256.373 132.278ZM222.903 128.791C222.867 128.791 222.832 128.791 222.797 128.791C221.232 128.785 219.634 128.705 218.022 128.574L215.652 128.328C214.696 126.65 213.245 125.208 211.466 124.217L205.48 121.858L204.011 121.928L203.031 120V110.153L257.426 56.6853C257.564 56.7112 257.7 56.7359 257.838 56.7582C258.651 60.4649 260.249 63.0241 262.008 65.1053L257.372 67.3644C251.988 68.318 247.066 73.9082 244.507 83.5412C240.33 99.2585 239.679 109.323 239.679 109.323L244.55 110.353C243.712 113.302 242.717 116.113 241.567 118.591C240.95 119.868 240.326 121.124 239.658 122.096C238.976 123.098 238.424 123.758 237.658 124.498C236.185 125.929 234.103 127.037 231.51 127.77C228.953 128.476 225.989 128.791 222.903 128.791ZM262.663 64.7854C260.956 62.7931 259.393 60.3599 258.577 56.8607C259.142 56.9249 259.709 56.957 260.274 56.957C261.225 56.957 262.172 56.8656 263.102 56.6804C263.526 57.2263 264.047 58.081 264.454 58.8579C264.534 59.0099 264.609 59.1593 264.678 59.3038C264.696 59.3396 264.714 59.3742 264.732 59.41C265.404 60.7922 265.986 61.994 265.511 63.3984L262.663 64.7854Z" fill="#EAF1FA"/>
<path d="M195.041 132.278H180.521L198.646 114.461L202.479 122.003L198.305 122.204L195.041 132.278ZM203.031 120L199.694 113.432L203.031 110.153V120Z" fill="#E6EEF7"/>
<path d="M252.308 132.278H246.571C247.124 132.278 247.576 131.815 247.576 131.249C247.576 130.684 247.124 130.221 246.571 130.221H216.485C216.277 129.567 215.996 128.932 215.652 128.328L218.022 128.574C219.634 128.705 221.232 128.785 222.797 128.791C222.832 128.791 222.867 128.791 222.903 128.791C225.989 128.791 228.953 128.476 231.51 127.77C234.103 127.037 236.184 125.929 237.658 124.498C238.424 123.758 238.976 123.098 239.658 122.096C240.326 121.124 240.949 119.868 241.567 118.591C242.716 116.113 243.712 113.302 244.55 110.353L250.404 111.592C250.404 111.594 250.404 111.596 250.403 111.599L254.314 112.425C254.875 116.854 255.415 121.674 255.904 126.915C254.912 128.653 253.825 130.381 252.443 132.109C252.399 132.165 252.354 132.221 252.308 132.278Z" fill="#F9A87B"/>
<path d="M250.405 111.592L244.55 110.353L239.679 109.323C239.679 109.323 240.33 99.2588 244.507 83.5415C247.066 73.9085 251.988 68.3182 257.372 67.3647L255.665 68.196C251.019 70.4588 248.413 75.5945 249.287 80.7809C250.126 85.745 251.368 92.2542 252.661 100.637C251.668 104.034 250.909 107.785 250.405 111.592Z" fill="#364A5B"/>
<path d="M254.314 112.425L250.403 111.599C250.405 111.596 250.405 111.594 250.405 111.592L254.314 112.418C254.314 112.419 254.314 112.424 254.314 112.425Z" fill="#BB8164"/>
<path d="M254.314 112.418L250.404 111.592C250.909 107.785 251.668 104.034 252.661 100.638C253.211 104.216 253.772 108.134 254.314 112.418Z" fill="#2D3E4B"/>
<path d="M216.485 130.221H208.135C208.135 130.11 208.11 129.998 208.057 129.893L205.423 124.707L205.479 121.858L211.465 124.217C213.245 125.208 214.695 126.65 215.652 128.328C215.996 128.932 216.276 129.567 216.485 130.221ZM206.655 130.221H205.311L205.362 127.679L206.655 130.221Z" fill="#F9A87B"/>
<path d="M196.718 132.278H195.041L198.305 122.204L202.479 122.003L205.363 127.679L205.312 130.221H196.718C196.166 130.221 195.713 130.684 195.713 131.249C195.713 131.815 196.166 132.278 196.718 132.278ZM205.423 124.708L204.011 121.928L205.48 121.858L205.423 124.708Z" fill="#F9A87B"/>
<path d="M208.136 130.221H206.655L205.362 127.679L202.479 122.002L198.647 114.461L199.694 113.432L203.031 120L204.011 121.928L205.423 124.707L208.057 129.893C208.11 129.998 208.136 130.11 208.136 130.221Z" fill="#364A5B"/>
<path d="M273.893 132.278L267.656 123.22L262.892 130.873L264.264 132.278H256.372C256.222 130.444 256.065 128.655 255.904 126.915C255.414 121.674 254.875 116.854 254.314 112.425C254.314 112.424 254.314 112.419 254.314 112.418C253.772 108.133 253.211 104.215 252.661 100.637C251.368 92.254 250.125 85.7447 249.287 80.7807C248.412 75.5942 251.019 70.4585 255.664 68.1957L257.371 67.3644L262.008 65.1053C262.379 65.545 262.758 65.9625 263.139 66.3664C262.718 66.7147 262.235 67.0803 261.684 67.4645C260.556 68.2513 259.846 69.6284 260.102 71.0007C260.345 72.3025 261.393 73.5772 264.564 73.5772C265.444 73.5772 266.489 73.4796 267.726 73.2561C268.051 73.1968 268.37 73.1326 268.684 73.0634C268.95 73.6785 269.15 74.3369 269.267 75.0582C269.288 80.5954 270.486 86.1745 273.399 90.9002C277.437 97.4503 276.106 102.765 274.421 109.495C273.523 113.085 272.522 117.079 272.231 121.812L267.656 123.22L273.893 132.278ZM299.221 125.199C293.36 125.199 286.77 124.126 280.509 122.934C278.837 122.029 276.941 121.228 275.048 121.228C274.379 121.228 273.71 121.328 273.052 121.559L272.943 121.593C273.251 117.037 274.222 113.163 275.095 109.672C276.754 103.049 278.186 97.3292 273.989 90.521C271.172 85.9522 269.998 80.5596 269.959 75.1941C269.974 75.1447 269.979 75.0903 269.97 75.0347C269.967 75.0088 269.962 74.9828 269.958 74.9581C269.957 74.2121 269.979 73.4673 270.02 72.7262C275.363 71.2094 279.121 68.0993 282.004 65.151C283.899 63.2131 283.463 61.7544 281.638 59.7472C281.421 59.5089 281.209 59.2631 281.005 59.0123L281.179 59.0037L289.478 58.6023L296.124 58.2823C296.306 58.2725 296.489 58.2688 296.669 58.2688C296.753 58.2688 296.839 58.27 296.924 58.2712C287.214 58.454 282.854 68.2117 287.877 82.1887C290.738 90.1567 293.513 96.3053 295.512 100.366C295.541 103.278 295.851 106.007 296.465 108.302C297.944 113.846 302.325 115.365 306.679 115.365C306.844 115.365 307.009 115.364 307.173 115.359C307.39 116.338 307.57 117.295 307.707 118.219C307.95 119.802 308.031 121.291 307.942 122.363C307.876 123.003 307.881 123.073 307.914 123.138L308.017 123.256C308.066 123.428 307.411 123.981 306.239 124.353C305.075 124.725 303.525 125.019 301.863 125.12C301.001 125.174 300.12 125.199 299.221 125.199ZM263.671 65.9032C263.332 65.545 262.995 65.1733 262.663 64.7854L265.511 63.3984C265.255 64.1543 264.692 64.9694 263.671 65.9032Z" fill="#364A5B"/>
<path d="M306.68 115.365C302.325 115.365 297.944 113.846 296.465 108.302C295.851 106.007 295.541 103.278 295.512 100.366C297.35 104.099 298.535 106.069 298.535 106.069L303.534 103.826C304.052 105.18 304.545 106.531 305.01 107.875C305.891 110.403 306.642 112.949 307.174 115.359C307.009 115.364 306.844 115.365 306.68 115.365Z" fill="#2D3E4B"/>
<path d="M276.294 48.9204C276.701 45.0766 276.288 41.6775 275.997 39.6889C276.22 39.5258 276.436 39.3208 276.64 39.0725C277.252 38.3302 277.793 37.4101 278.196 36.375C278.934 40.1842 278.676 44.6344 277.491 47.2357C277.162 47.957 276.762 48.5363 276.294 48.9204ZM275.73 47.1628C275.318 45.3496 275.016 43.5179 274.794 41.7294C274.818 41.2229 274.823 40.7091 274.812 40.1867C274.991 40.1607 275.169 40.115 275.346 40.0471C275.582 41.7146 275.871 44.254 275.73 47.1628Z" fill="#364A5B"/>
<path d="M264.564 73.5767C261.393 73.5767 260.345 72.302 260.102 71.0001C259.846 69.6279 260.556 68.2507 261.684 67.4639C262.235 67.0798 262.718 66.7141 263.139 66.3658C263.645 66.9031 264.153 67.4145 264.651 67.9135C266.332 69.6007 267.841 71.115 268.684 73.0628C268.37 73.132 268.051 73.1962 267.726 73.2555C266.489 73.4791 265.444 73.5767 264.564 73.5767ZM269.324 72.7886C268.417 70.695 266.813 69.0856 265.139 67.4034C264.657 66.9192 264.163 66.4239 263.671 65.9026C264.692 64.9689 265.255 64.1537 265.511 63.3978C265.986 61.9934 265.403 60.7916 264.732 59.4095C264.824 59.5923 264.909 59.7751 265.005 59.9579C266.745 58.5362 268.389 56.1548 269.209 53.7463C270.507 52.6495 271.655 51.2636 272.583 49.5752C274.021 46.9567 274.668 44.432 274.793 41.7282C275.016 43.5167 275.317 45.3485 275.729 47.1617C275.583 50.1643 274.978 53.561 273.382 56.7959C271.206 61.214 269.636 66.9081 269.324 72.7886ZM270.02 72.7256C270.339 66.9883 271.879 61.4339 274.006 57.117C275.297 54.4973 275.958 51.7836 276.256 49.2491C276.605 50.4954 277.012 51.7194 277.49 52.9027C278.39 55.1334 279.539 57.2171 281.005 59.0118C281.209 59.2625 281.421 59.5083 281.638 59.7467C283.463 61.7538 283.899 63.2125 282.004 65.1505C279.121 68.0988 275.363 71.2089 270.02 72.7256ZM264.454 58.8574C264.047 58.0805 263.525 57.2257 263.101 56.6798C263.101 56.6798 263.101 56.6798 263.102 56.6798C263.526 57.222 264.049 58.078 264.454 58.8574Z" fill="#F9A87B"/>
<path d="M264.733 59.4097C264.714 59.374 264.696 59.3395 264.678 59.3038C264.609 59.1598 264.534 59.0109 264.454 58.8594C264.535 59.0109 264.61 59.1598 264.68 59.3026C264.697 59.3383 264.714 59.374 264.733 59.4097Z" fill="#BCC4CD"/>
<path d="M265.005 59.9585C264.91 59.7757 264.824 59.5929 264.732 59.4101C264.714 59.3743 264.697 59.3384 264.68 59.3026C264.61 59.1593 264.535 59.0099 264.454 58.858C264.05 58.0786 263.527 57.2226 263.103 56.6804C265.301 56.2407 267.402 55.2748 269.21 53.7469C268.39 56.1555 266.746 58.5368 265.005 59.9585Z" fill="#D5906C"/>
<path d="M269.96 75.1934C269.958 75.1143 269.958 75.0365 269.958 74.9574C269.962 74.9821 269.967 75.0081 269.971 75.034C269.979 75.0896 269.974 75.144 269.96 75.1934ZM269.268 75.0575C269.15 74.3362 268.95 73.6778 268.684 73.0627C267.841 71.1149 266.332 69.6006 264.651 67.9134C264.153 67.4144 263.645 66.903 263.139 66.3657C262.758 65.9618 262.379 65.5443 262.008 65.1046C260.249 63.0234 258.651 60.4642 257.838 56.7575C258.084 56.7982 258.33 56.8316 258.577 56.86C259.393 60.3592 260.956 62.7924 262.663 64.7847C262.995 65.1726 263.332 65.5443 263.672 65.9025C264.163 66.4238 264.657 66.9191 265.139 67.4032C266.813 69.0855 268.417 70.6949 269.324 72.7885C269.284 73.5432 269.265 74.3003 269.268 75.0575Z" fill="#EFF6FC"/>
<path d="M260.274 56.957C259.709 56.957 259.142 56.9249 258.577 56.8607C258.33 56.8323 258.084 56.7989 257.838 56.7582C257.7 56.736 257.563 56.7112 257.426 56.6853L274.197 40.201C274.28 40.2084 274.365 40.2133 274.448 40.2133C274.569 40.2133 274.691 40.2047 274.812 40.1861C274.822 40.7086 274.818 41.2224 274.793 41.7288C274.668 44.4326 274.022 46.9572 272.583 49.5758C271.655 51.2642 270.507 52.6501 269.21 53.7469C267.401 55.2748 265.301 56.2406 263.103 56.6804C263.101 56.6804 263.101 56.6804 263.101 56.6804C262.171 56.8656 261.224 56.957 260.274 56.957Z" fill="#F9A87B"/>
<path d="M274.448 40.2129C274.365 40.2129 274.28 40.208 274.197 40.2006L275.22 39.1951C275.257 39.4446 275.301 39.73 275.345 40.0462C275.169 40.1141 274.99 40.1598 274.811 40.1857C274.691 40.2042 274.569 40.2129 274.448 40.2129ZM275.996 39.688C275.965 39.4656 275.934 39.2618 275.906 39.0753L276.108 39.0827L276.151 38.2799L278.26 36.2061C278.239 36.2629 278.218 36.3185 278.196 36.3741C277.792 37.4091 277.251 38.3293 276.64 39.0716C276.436 39.3199 276.22 39.5249 275.996 39.688Z" fill="#F9A87B"/>
<path d="M309.174 132.278H286.969C288.69 132.149 290.456 131.963 292.208 131.778C295.304 131.45 298.504 131.112 301.308 131.112H301.31V131.536C301.31 131.946 301.633 132.278 302.034 132.278H309.174ZM279.909 132.278H279.607C279.625 132.267 279.643 132.257 279.66 132.247C279.743 132.258 279.825 132.268 279.909 132.278ZM283.018 131.732C282.196 131.732 281.403 131.705 280.647 131.64C283.204 129.971 285.483 127.663 284.317 125.132L281.468 123.474C281.159 123.293 280.839 123.112 280.509 122.934C286.771 124.126 293.361 125.199 299.221 125.199C300.12 125.199 301.002 125.174 301.863 125.12C303.525 125.019 305.076 124.725 306.239 124.353C307.412 123.981 308.066 123.428 308.017 123.256L307.914 123.138C307.882 123.073 307.877 123.003 307.942 122.363C308.031 121.291 307.95 119.802 307.708 118.219C307.57 117.295 307.39 116.338 307.174 115.359C306.642 112.949 305.891 110.403 305.01 107.875C304.545 106.531 304.053 105.18 303.534 103.826L319.35 96.7314C319.355 96.7462 319.36 96.761 319.366 96.7759L309.883 129.806H302.034C301.683 129.806 301.391 130.061 301.324 130.4C301.318 130.399 301.313 130.399 301.308 130.399C298.469 130.399 295.25 130.74 292.137 131.069C289.02 131.398 285.855 131.732 283.018 131.732Z" fill="#F9A87B"/>
<path d="M298.535 106.069C298.535 106.069 297.35 104.099 295.512 100.366C293.513 96.305 290.739 90.1564 287.877 82.1884C282.855 68.2115 287.214 58.4538 296.924 58.271C297.016 58.2697 297.109 58.2685 297.203 58.2685C298.029 58.2685 298.895 58.3377 299.794 58.4772C310.157 60.0879 317.119 74.8109 321.726 88.5556L319.383 96.7163L319.35 96.7311L303.535 103.826L298.535 106.069Z" fill="#364A5B"/>
<path d="M279.607 132.278H273.894L267.656 123.22L272.232 121.812C272.177 122.691 272.148 123.593 272.148 124.525C272.148 126.933 272.856 128.806 274.251 130.093C275.573 131.312 277.45 131.957 279.66 132.247C279.643 132.257 279.625 132.267 279.607 132.278ZM280.647 131.64C278.174 131.431 276.093 130.834 274.717 129.565C273.456 128.402 272.844 126.754 272.844 124.525C272.844 123.517 272.879 122.54 272.943 121.593L273.052 121.559C273.71 121.328 274.379 121.228 275.048 121.228C276.941 121.228 278.837 122.029 280.509 122.934C280.839 123.112 281.159 123.293 281.468 123.474L284.317 125.132C285.483 127.663 283.204 129.971 280.647 131.64Z" fill="#F9A87B"/>
<path d="M273.893 132.278H264.264L262.892 130.873L267.656 123.22L273.893 132.278Z" fill="#F9A87B"/>
<path d="M276.108 39.083L275.906 39.0756C275.905 39.0719 275.905 39.067 275.903 39.062C275.877 38.8854 275.853 38.7285 275.833 38.5927L276.151 38.2802L276.108 39.083Z" fill="#EFF6FC"/>
<path d="M286.968 132.278H279.908C279.825 132.268 279.743 132.258 279.66 132.247C277.449 131.957 275.572 131.312 274.251 130.093C272.856 128.806 272.148 126.933 272.148 124.525C272.148 123.593 272.177 122.691 272.231 121.812C272.522 117.079 273.523 113.085 274.421 109.495C276.106 102.765 277.437 97.4502 273.399 90.9002C270.486 86.1745 269.288 80.5954 269.267 75.0582C269.265 74.301 269.284 73.5439 269.324 72.7892C269.636 66.9086 271.206 61.2146 273.382 56.7964C274.978 53.5616 275.583 50.1649 275.729 47.1623C275.871 44.2535 275.582 41.714 275.345 40.0466C275.301 39.7304 275.257 39.445 275.22 39.1955L275.833 38.5928C275.853 38.7286 275.877 38.8855 275.903 39.0621C275.904 39.0671 275.904 39.072 275.906 39.0757C275.933 39.2622 275.965 39.466 275.996 39.6883C276.287 41.6769 276.7 45.0761 276.293 48.9199C276.281 49.0298 276.269 49.1397 276.256 49.2497C275.958 51.7842 275.297 54.4978 274.006 57.1176C271.879 61.4344 270.339 66.9889 270.02 72.7262C269.979 73.4673 269.957 74.2121 269.958 74.9581C269.958 75.0372 269.958 75.115 269.959 75.1941C269.998 80.5596 271.172 85.9522 273.989 90.521C278.186 97.3292 276.754 103.049 275.095 109.672C274.222 113.163 273.251 117.037 272.943 121.593C272.879 122.54 272.844 123.517 272.844 124.525C272.844 126.754 273.456 128.402 274.717 129.565C276.093 130.834 278.174 131.431 280.646 131.64C281.403 131.705 282.196 131.732 283.018 131.732C285.855 131.732 289.019 131.398 292.137 131.069C295.249 130.74 298.468 130.399 301.308 130.399C301.313 130.399 301.318 130.399 301.324 130.4C301.314 130.447 301.309 130.497 301.309 130.546V131.112H301.308C298.503 131.112 295.304 131.45 292.208 131.778C290.455 131.963 288.69 132.149 286.968 132.278Z" fill="#EFF6FC"/>
<path d="M309.174 132.278H302.034C301.633 132.278 301.309 131.946 301.309 131.536V131.112V130.546C301.309 130.497 301.314 130.447 301.324 130.4C301.39 130.061 301.682 129.806 302.034 129.806H309.883L309.174 132.278Z" fill="#EFF6FC"/>
<path d="M246.571 132.278H196.718C196.166 132.278 195.713 131.815 195.713 131.249C195.713 130.684 196.166 130.221 196.718 130.221H205.312H206.655H208.136H216.485H246.571C247.124 130.221 247.576 130.684 247.576 131.249C247.576 131.815 247.124 132.278 246.571 132.278Z" fill="#EFF6FC"/>
<path d="M322.669 32.5034C320.147 32.5034 317.627 31.5203 315.704 29.5527C313.781 27.5863 312.818 25.0085 312.818 22.4307C312.818 20.6892 313.257 18.9476 314.135 17.395L327.593 31.1571C326.074 32.0551 324.371 32.5034 322.669 32.5034Z" fill="#B8D2EF"/>
</svg>
