<svg width="1726" height="37" viewBox="0 0 1726 37" fill="none" xmlns="http://www.w3.org/2000/svg">
<g opacity="0.8">
<path d="M7.87053 18.2628C10.5246 17.6806 11.1957 15.0005 10.6686 12.5979C10.1415 10.1953 8.41316 8.0562 5.75912 8.63845C3.09111 9.22376 2.43086 11.8868 2.95795 14.2894C3.48504 16.6921 5.20252 18.8481 7.87053 18.2628ZM7.48441 16.5028C6.14342 16.797 5.34636 15.5663 4.96943 13.8482C4.59251 12.13 4.80425 10.6927 6.14524 10.3985C7.47226 10.1074 8.26626 11.3241 8.64318 13.0422C9.02011 14.7604 8.81143 16.2117 7.48441 16.5028Z" fill="white"/>
<path d="M20.4457 15.9812C23.1361 15.6007 24.0075 12.9789 23.6631 10.5434C23.3187 8.10784 21.7565 5.84453 19.0661 6.22498C16.3616 6.60743 15.5024 9.21314 15.8468 11.6487C16.1912 14.0842 17.7412 16.3636 20.4457 15.9812ZM20.1935 14.197C18.8341 14.3893 18.1321 13.102 17.8858 11.3603C17.6395 9.61864 17.9591 8.20136 19.3184 8.00913C20.6636 7.81891 21.3636 9.09202 21.6099 10.8337C21.8562 12.5754 21.5386 14.0068 20.1935 14.197Z" fill="white"/>
<path d="M33.6527 14.4412L32.9533 4.92819L31.1848 5.0582L28.411 8.28774L29.6553 9.41511L31.12 7.68708L31.6274 14.5901L33.6527 14.4412Z" fill="white"/>
<path d="M43.0912 14.2875C45.8083 14.2704 47.0226 11.7887 47.0071 9.32899C46.9917 6.8693 45.7463 4.41734 43.0292 4.43443C40.2978 4.45161 39.0978 6.91895 39.1132 9.37865C39.1287 11.8383 40.3598 14.3047 43.0912 14.2875ZM43.0799 12.4856C41.707 12.4943 41.1836 11.1247 41.1725 9.36569C41.1614 7.60673 41.6677 6.24494 43.0406 6.2363C44.3991 6.22776 44.9225 7.58307 44.9336 9.34204C44.9446 11.101 44.4384 12.4771 43.0799 12.4856Z" fill="white"/>
<path d="M55.4106 14.4711L59.4773 6.5957L59.5693 5.18291L52.4197 4.71754L52.3036 6.50137L57.0985 6.81347L53.1844 14.3262L55.4106 14.4711Z" fill="white"/>
<path d="M67.1678 15.8237C69.8597 16.1928 71.4143 13.9088 71.7485 11.4719C72.0827 9.03496 71.1985 6.43093 68.5065 6.06177C65.8004 5.69066 64.2619 7.96244 63.9277 10.3994C63.5935 12.8363 64.4617 15.4526 67.1678 15.8237ZM67.4126 14.0385C66.0525 13.852 65.7289 12.4219 65.9679 10.6792C66.2069 8.93647 66.9015 7.66044 68.2617 7.84696C69.6077 8.03155 69.9331 9.44747 69.6941 11.1902C69.4552 12.9329 68.7586 14.2231 67.4126 14.0385Z" fill="white"/>
<path d="M79.66 17.9991C81.6174 18.4199 83.5903 17.9518 83.9631 16.2181C84.2065 15.0856 83.4981 14.0264 82.4638 13.3944C83.5765 13.2534 84.5457 12.7596 84.7952 11.5991C85.1709 9.85148 83.4507 8.73564 81.731 8.36592C79.9973 7.9932 77.9845 8.30647 77.6088 10.0541C77.3593 11.2146 78.0259 12.06 78.9824 12.646C77.7797 12.797 76.7125 13.4745 76.4691 14.607C76.0933 16.3546 77.7026 17.5783 79.66 17.9991ZM80.8984 12.2388C80.3432 12.0316 79.4057 11.4936 79.556 10.7946C79.7002 10.1235 80.4415 9.87326 81.3643 10.0717C82.2731 10.267 82.8461 10.7998 82.7018 11.4709C82.5515 12.17 81.4897 12.2781 80.8984 12.2388ZM80.0267 16.2934C79.048 16.0829 78.3892 15.4732 78.5365 14.7881C78.7048 14.0052 79.9324 13.8742 80.5377 13.9165C81.0929 14.1237 82.1722 14.7506 82.0039 15.5336C81.8566 16.2187 80.9774 16.4978 80.0267 16.2934Z" fill="white"/>
<path d="M91.5058 20.9563C94.2077 21.7544 96.3368 20.251 97.1512 17.4943C97.917 14.9022 97.3832 12.4183 94.6128 11.5999C92.5282 10.984 90.7007 11.9204 90.174 13.7034C89.5987 15.6509 90.776 17.1171 92.4218 17.6033C93.423 17.899 94.508 17.6082 95.1292 17.1207C95.1089 17.1893 95.0887 17.2578 95.0684 17.3264C94.6795 18.643 93.525 19.6739 92.0163 19.2282C91.2072 18.9891 90.7589 18.5883 90.4029 17.9761L89.0973 19.2158C89.5717 19.9823 90.3949 20.6281 91.5058 20.9563ZM93.4647 16.0921C92.6144 15.8409 91.8993 15.1823 92.1829 14.2223C92.3693 13.5914 93.156 13.0484 94.1983 13.3563C95.4875 13.7372 95.6896 14.8705 95.5125 15.7726C94.9157 16.1778 94.1504 16.2947 93.4647 16.0921Z" fill="white"/>
<path d="M114.545 27.7119L114.961 25.9735L111.178 25.0678C114.004 23.8914 115.641 22.8276 116.02 21.2421C116.463 19.3923 115.158 17.9035 113.183 17.4306C111.89 17.121 110.4 17.2642 109.246 18.0909L110.059 19.6679C110.842 19.1641 111.748 18.94 112.805 19.193C113.57 19.3761 114.211 19.9559 114.018 20.7626C113.745 21.903 112.402 22.5963 107.933 24.4967L107.563 26.0404L114.545 27.7119Z" fill="white"/>
<path d="M123.147 29.5756C125.823 30.0498 127.465 27.8283 127.895 25.4063C128.324 22.9843 127.542 20.3477 124.867 19.8735C122.177 19.3969 120.551 21.6068 120.122 24.0288C119.692 26.4508 120.458 29.099 123.147 29.5756ZM123.462 27.8014C122.11 27.5618 121.842 26.1202 122.149 24.3881C122.456 22.6561 123.2 21.4082 124.552 21.6478C125.89 21.8849 126.16 23.3124 125.853 25.0444C125.546 26.7765 124.799 28.0384 123.462 27.8014Z" fill="white"/>
<path d="M135.95 31.4549C138.649 31.7643 140.153 29.4463 140.433 27.0026C140.713 24.5588 139.771 21.975 137.071 21.6657C134.358 21.3548 132.87 23.6601 132.59 26.1039C132.31 28.5476 133.236 31.144 135.95 31.4549ZM136.155 29.6647C134.791 29.5084 134.436 28.0859 134.636 26.3383C134.836 24.5908 135.502 23.2996 136.866 23.4559C138.216 23.6106 138.573 25.0189 138.373 26.7665C138.172 28.5141 137.505 29.8194 136.155 29.6647Z" fill="white"/>
<path d="M149.345 32.408L149.913 22.8863L148.143 22.7807L144.966 25.6139L146.05 26.8963L147.73 25.3777L147.318 32.287L149.345 32.408Z" fill="white"/>
<path d="M158.904 32.8479C161.621 32.8618 162.863 30.394 162.876 27.9343C162.888 25.4746 161.671 23.0086 158.954 22.9948C156.223 22.9808 154.995 25.4343 154.982 27.894C154.969 30.3537 156.172 32.8339 158.904 32.8479ZM158.913 31.046C157.54 31.039 157.032 29.6635 157.041 27.9045C157.05 26.1456 157.572 24.7896 158.945 24.7966C160.303 24.8036 160.811 26.1648 160.802 27.9237C160.793 29.6827 160.272 31.053 158.913 31.046Z" fill="white"/>
<path d="M171.355 32.3852L174.468 24.0865L174.394 22.6727L167.239 23.0507L167.333 24.8358L172.132 24.5823L169.128 32.5029L171.355 32.3852Z" fill="white"/>
<path d="M183.303 31.5833C186.003 31.2831 186.953 28.6884 186.681 26.2437C186.409 23.799 184.915 21.4901 182.215 21.7903C179.5 22.092 178.563 24.671 178.835 27.1156C179.107 29.5603 180.588 31.885 183.303 31.5833ZM183.104 29.7924C181.739 29.944 181.076 28.6364 180.882 26.8882C180.688 25.1399 181.049 23.7328 182.414 23.5812C183.764 23.4311 184.426 24.7245 184.62 26.4727C184.814 28.221 184.454 29.6423 183.104 29.7924Z" fill="white"/>
<path d="M196.017 29.7914C197.989 29.4487 199.644 28.276 199.34 26.5288C199.142 25.3876 198.088 24.6706 196.893 24.4719C197.872 23.9245 198.586 23.1038 198.382 21.9343C198.076 20.1731 196.064 19.7824 194.331 20.0835C192.583 20.387 190.834 21.4311 191.14 23.1923C191.343 24.3617 192.278 24.8961 193.384 25.0813C192.326 25.6716 191.59 26.6994 191.788 27.8407C192.094 29.6019 194.044 30.134 196.017 29.7914ZM195.008 23.9864C194.416 24.0022 193.345 23.8543 193.223 23.1498C193.105 22.4735 193.699 21.964 194.629 21.8024C195.545 21.6434 196.276 21.9228 196.393 22.5992C196.516 23.3036 195.571 23.8015 195.008 23.9864ZM195.718 28.0724C194.732 28.2437 193.893 27.925 193.773 27.2346C193.636 26.4456 194.725 25.8645 195.302 25.6771C195.895 25.6613 197.13 25.8386 197.267 26.6277C197.387 27.3181 196.676 27.906 195.718 28.0724Z" fill="white"/>
<path d="M208.136 27.3245C210.877 26.6732 211.976 24.31 211.312 21.5134C210.687 18.8837 208.989 16.9943 206.178 17.6621C204.063 18.1646 202.944 19.8859 203.373 21.6946C203.843 23.6703 205.593 24.3568 207.263 23.96C208.279 23.7187 209.075 22.9267 209.372 22.1949C209.388 22.2644 209.405 22.334 209.421 22.4036C209.739 23.7392 209.25 25.2077 207.719 25.5714C206.899 25.7664 206.31 25.6416 205.697 25.2876L205.181 27.0124C205.974 27.4414 207.009 27.5923 208.136 27.3245ZM207.416 22.1304C206.554 22.3353 205.606 22.1196 205.374 21.1457C205.222 20.5056 205.635 19.6433 206.692 19.392C208 19.0813 208.739 19.964 209.034 20.8346C208.718 21.4831 208.112 21.9651 207.416 22.1304Z" fill="white"/>
<path d="M231.581 19.427L231.071 17.7137L227.343 18.8236C229.2 16.3907 230.084 14.6502 229.619 13.0877C229.076 11.2647 227.201 10.6293 225.255 11.2087C223.98 11.5882 222.762 12.4581 222.177 13.7513L223.671 14.7092C224.096 13.8814 224.768 13.2336 225.81 12.9235C226.564 12.699 227.409 12.8803 227.645 13.6752C227.98 14.7992 227.165 16.0713 224.247 19.9539L224.7 21.4753L231.581 19.427Z" fill="white"/>
<path d="M240.038 17.5475C242.692 16.9653 243.363 14.2851 242.836 11.8825C242.309 9.47993 240.581 7.34087 237.927 7.92312C235.259 8.50843 234.599 11.1715 235.126 13.5741C235.653 15.9767 237.37 18.1328 240.038 17.5475ZM239.652 15.7875C238.311 16.0816 237.514 14.851 237.137 13.1328C236.76 11.4147 236.972 9.97735 238.313 9.68316C239.64 9.39204 240.434 10.6087 240.811 12.3269C241.188 14.045 240.979 15.4963 239.652 15.7875Z" fill="white"/>
<path d="M252.613 15.2659C255.304 14.8854 256.175 12.2635 255.831 9.82802C255.486 7.39251 253.924 5.1292 251.234 5.50965C248.529 5.8921 247.67 8.49781 248.015 10.9333C248.359 13.3688 249.909 15.6483 252.613 15.2659ZM252.361 13.4817C251.002 13.6739 250.3 12.3867 250.054 10.645C249.807 8.90331 250.127 7.48603 251.486 7.2938C252.831 7.10358 253.531 8.37669 253.778 10.1184C254.024 11.86 253.706 13.2915 252.361 13.4817Z" fill="white"/>
<path d="M265.82 13.7258L265.121 4.21285L263.353 4.34287L260.579 7.57241L261.823 8.69978L263.288 6.97175L263.795 13.8747L265.82 13.7258Z" fill="white"/>
<path d="M275.259 13.5722C277.976 13.5551 279.19 11.0734 279.175 8.61366C279.159 6.15397 277.914 3.70201 275.197 3.7191C272.466 3.73628 271.265 6.20362 271.281 8.66332C271.296 11.123 272.528 13.5894 275.259 13.5722ZM275.248 11.7703C273.875 11.7789 273.351 10.4093 273.34 8.65036C273.329 6.8914 273.835 5.52961 275.208 5.52097C276.567 5.51243 277.09 6.86774 277.101 8.6267C277.112 10.3857 276.606 11.7618 275.248 11.7703Z" fill="white"/>
<path d="M287.578 13.7557L291.645 5.88037L291.737 4.46757L284.587 4.00221L284.471 5.78604L289.266 6.09814L285.352 13.6108L287.578 13.7557Z" fill="white"/>
<path d="M299.336 15.1083C302.027 15.4775 303.582 13.1935 303.916 10.7566C304.25 8.31963 303.366 5.7156 300.674 5.34644C297.968 4.97533 296.43 7.24711 296.095 9.68404C295.761 12.121 296.629 14.7372 299.336 15.1083ZM299.58 13.3231C298.22 13.1366 297.897 11.7065 298.136 9.96383C298.375 8.22114 299.069 6.94511 300.429 7.13163C301.775 7.31621 302.101 8.73214 301.862 10.4748C301.623 12.2175 300.926 13.5077 299.58 13.3231Z" fill="white"/>
<path d="M311.828 17.2838C313.785 17.7046 315.758 17.2365 316.131 15.5028C316.374 14.3703 315.666 13.3111 314.631 12.6791C315.744 12.538 316.713 12.0443 316.963 10.8838C317.339 9.13615 315.618 8.02031 313.899 7.65059C312.165 7.27787 310.152 7.59114 309.777 9.33881C309.527 10.4993 310.194 11.3447 311.15 11.9307C309.947 12.0817 308.88 12.7591 308.637 13.8916C308.261 15.6393 309.87 16.8629 311.828 17.2838ZM313.066 11.5234C312.511 11.3163 311.573 10.7783 311.724 10.0792C311.868 9.40814 312.609 9.15793 313.532 9.35632C314.441 9.5517 315.014 10.0845 314.869 10.7556C314.719 11.4546 313.657 11.5628 313.066 11.5234ZM312.194 15.578C311.216 15.3676 310.557 14.7579 310.704 14.0728C310.873 13.2899 312.1 13.1588 312.705 13.2012C313.261 13.4083 314.34 14.0353 314.172 14.8183C314.024 15.5033 313.145 15.7824 312.194 15.578Z" fill="white"/>
<path d="M323.674 20.2409C326.375 21.0391 328.505 19.5357 329.319 16.779C330.085 14.1869 329.551 11.703 326.781 10.8846C324.696 10.2687 322.868 11.2051 322.342 12.9881C321.766 14.9356 322.944 16.4018 324.59 16.8879C325.591 17.1837 326.676 16.8929 327.297 16.4053C327.277 16.4739 327.256 16.5425 327.236 16.6111C326.847 17.9277 325.693 18.9585 324.184 18.5128C323.375 18.2738 322.927 17.873 322.571 17.2608L321.265 18.5005C321.739 19.2669 322.563 19.9127 323.674 20.2409ZM325.632 15.3768C324.782 15.1256 324.067 14.467 324.351 13.507C324.537 12.8761 325.324 12.3331 326.366 12.641C327.655 13.0218 327.857 14.1552 327.68 15.0572C327.083 15.4625 326.318 15.5794 325.632 15.3768Z" fill="white"/>
<path d="M346.713 27.7119L347.129 25.9735L343.346 25.0678C346.172 23.8914 347.809 22.8276 348.188 21.2421C348.631 19.3923 347.326 17.9035 345.351 17.4306C344.058 17.121 342.567 17.2642 341.414 18.0909L342.227 19.6679C343.01 19.1641 343.916 18.94 344.973 19.193C345.738 19.3761 346.379 19.9559 346.186 20.7626C345.912 21.903 344.57 22.5963 340.101 24.4967L339.731 26.0404L346.713 27.7119Z" fill="white"/>
<path d="M355.315 29.5756C357.991 30.0498 359.633 27.8283 360.063 25.4063C360.492 22.9843 359.71 20.3477 357.035 19.8735C354.345 19.3969 352.719 21.6068 352.29 24.0288C351.86 26.4508 352.626 29.099 355.315 29.5756ZM355.63 27.8014C354.278 27.5618 354.01 26.1202 354.317 24.3881C354.624 22.6561 355.368 21.4082 356.72 21.6478C358.058 21.8849 358.328 23.3124 358.021 25.0444C357.714 26.7765 356.967 28.0384 355.63 27.8014Z" fill="white"/>
<path d="M368.118 31.4549C370.817 31.7643 372.321 29.4463 372.601 27.0026C372.881 24.5588 371.939 21.975 369.239 21.6657C366.526 21.3548 365.038 23.6601 364.758 26.1039C364.478 28.5476 365.404 31.144 368.118 31.4549ZM368.323 29.6647C366.959 29.5084 366.604 28.0859 366.804 26.3383C367.004 24.5908 367.67 23.2996 369.034 23.4559C370.384 23.6106 370.741 25.0189 370.54 26.7665C370.34 28.5141 369.672 29.8194 368.323 29.6647Z" fill="white"/>
<path d="M381.513 32.408L382.081 22.8863L380.311 22.7807L377.134 25.6139L378.218 26.8963L379.898 25.3777L379.486 32.287L381.513 32.408Z" fill="white"/>
<path d="M391.072 32.8479C393.789 32.8618 395.031 30.394 395.044 27.9343C395.056 25.4746 393.839 23.0086 391.122 22.9948C388.391 22.9808 387.163 25.4343 387.15 27.894C387.137 30.3537 388.34 32.8339 391.072 32.8479ZM391.081 31.046C389.708 31.039 389.2 29.6635 389.209 27.9045C389.218 26.1456 389.74 24.7896 391.113 24.7966C392.471 24.8036 392.979 26.1648 392.97 27.9237C392.961 29.6827 392.439 31.053 391.081 31.046Z" fill="white"/>
<path d="M403.523 32.3852L406.636 24.0865L406.562 22.6727L399.407 23.0507L399.501 24.8358L404.3 24.5823L401.296 32.5029L403.523 32.3852Z" fill="white"/>
<path d="M415.471 31.5833C418.171 31.2831 419.12 28.6884 418.849 26.2437C418.577 23.799 417.083 21.4901 414.383 21.7903C411.668 22.092 410.731 24.671 411.003 27.1156C411.275 29.5603 412.756 31.885 415.471 31.5833ZM415.272 29.7924C413.907 29.944 413.244 28.6364 413.05 26.8882C412.855 25.1399 413.217 23.7328 414.582 23.5812C415.932 23.4311 416.594 24.7245 416.788 26.4727C416.982 28.221 416.622 29.6423 415.272 29.7924Z" fill="white"/>
<path d="M428.185 29.7914C430.157 29.4487 431.812 28.276 431.508 26.5288C431.31 25.3876 430.256 24.6706 429.061 24.4719C430.04 23.9245 430.753 23.1038 430.55 21.9343C430.244 20.1731 428.232 19.7824 426.498 20.0835C424.751 20.387 423.002 21.4311 423.308 23.1923C423.511 24.3617 424.446 24.8961 425.552 25.0813C424.494 25.6716 423.758 26.6994 423.956 27.8407C424.262 29.6019 426.212 30.134 428.185 29.7914ZM427.176 23.9864C426.584 24.0022 425.513 23.8543 425.391 23.1498C425.273 22.4735 425.867 21.964 426.797 21.8024C427.713 21.6434 428.444 21.9228 428.561 22.5992C428.684 23.3036 427.739 23.8015 427.176 23.9864ZM427.886 28.0724C426.9 28.2437 426.061 27.925 425.941 27.2346C425.804 26.4456 426.893 25.8645 427.47 25.6771C428.062 25.6613 429.298 25.8386 429.435 26.6277C429.555 27.3181 428.844 27.906 427.886 28.0724Z" fill="white"/>
<path d="M440.304 27.3245C443.045 26.6732 444.144 24.31 443.48 21.5134C442.855 18.8837 441.157 16.9943 438.346 17.6621C436.231 18.1646 435.112 19.8859 435.541 21.6946C436.011 23.6703 437.761 24.3568 439.431 23.96C440.447 23.7187 441.243 22.9267 441.54 22.1949C441.556 22.2644 441.573 22.334 441.589 22.4036C441.907 23.7392 441.418 25.2077 439.887 25.5714C439.066 25.7664 438.478 25.6416 437.865 25.2876L437.349 27.0124C438.142 27.4414 439.177 27.5923 440.304 27.3245ZM439.584 22.1304C438.722 22.3353 437.774 22.1196 437.542 21.1457C437.39 20.5056 437.803 19.6433 438.86 19.392C440.168 19.0813 440.907 19.964 441.202 20.8346C440.886 21.4831 440.28 21.9651 439.584 22.1304Z" fill="white"/>
<path d="M463.749 19.427L463.239 17.7137L459.511 18.8236C461.368 16.3907 462.252 14.6502 461.787 13.0877C461.244 11.2647 459.369 10.6293 457.423 11.2087C456.148 11.5882 454.93 12.4581 454.345 13.7513L455.839 14.7092C456.264 13.8814 456.936 13.2336 457.978 12.9235C458.732 12.699 459.577 12.8803 459.813 13.6752C460.148 14.7992 459.333 16.0713 456.415 19.9539L456.868 21.4753L463.749 19.427Z" fill="white"/>
<path d="M472.206 17.5475C474.86 16.9653 475.531 14.2851 475.004 11.8825C474.477 9.47993 472.749 7.34087 470.095 7.92312C467.427 8.50843 466.767 11.1715 467.294 13.5741C467.821 15.9767 469.538 18.1328 472.206 17.5475ZM471.82 15.7875C470.479 16.0816 469.682 14.851 469.305 13.1328C468.928 11.4147 469.14 9.97735 470.481 9.68316C471.808 9.39204 472.602 10.6087 472.979 12.3269C473.356 14.045 473.147 15.4963 471.82 15.7875Z" fill="white"/>
<path d="M484.781 15.2659C487.472 14.8854 488.343 12.2635 487.999 9.82802C487.654 7.39251 486.092 5.1292 483.402 5.50965C480.697 5.8921 479.838 8.49781 480.182 10.9333C480.527 13.3688 482.077 15.6483 484.781 15.2659ZM484.529 13.4817C483.17 13.6739 482.468 12.3867 482.222 10.645C481.975 8.90331 482.295 7.48603 483.654 7.2938C484.999 7.10358 485.699 8.37669 485.946 10.1184C486.192 11.86 485.874 13.2915 484.529 13.4817Z" fill="white"/>
<path d="M497.988 13.7258L497.289 4.21285L495.521 4.34287L492.747 7.57241L493.991 8.69978L495.456 6.97175L495.963 13.8747L497.988 13.7258Z" fill="white"/>
<path d="M507.427 13.5722C510.144 13.5551 511.358 11.0734 511.343 8.61366C511.327 6.15397 510.082 3.70201 507.365 3.7191C504.634 3.73628 503.433 6.20362 503.449 8.66332C503.464 11.123 504.696 13.5894 507.427 13.5722ZM507.416 11.7703C506.043 11.7789 505.519 10.4093 505.508 8.65036C505.497 6.8914 506.003 5.52961 507.376 5.52097C508.735 5.51243 509.258 6.86774 509.269 8.6267C509.28 10.3857 508.774 11.7618 507.416 11.7703Z" fill="white"/>
<path d="M519.746 13.7557L523.813 5.88037L523.905 4.46757L516.755 4.00221L516.639 5.78604L521.434 6.09814L517.52 13.6108L519.746 13.7557Z" fill="white"/>
<path d="M531.503 15.1083C534.195 15.4775 535.75 13.1935 536.084 10.7566C536.418 8.31963 535.534 5.7156 532.842 5.34644C530.136 4.97533 528.598 7.24711 528.263 9.68404C527.929 12.121 528.797 14.7372 531.503 15.1083ZM531.748 13.3231C530.388 13.1366 530.065 11.7065 530.304 9.96383C530.543 8.22114 531.237 6.94511 532.597 7.13163C533.943 7.31621 534.269 8.73214 534.03 10.4748C533.791 12.2175 533.094 13.5077 531.748 13.3231Z" fill="white"/>
<path d="M543.996 17.2838C545.953 17.7046 547.926 17.2365 548.299 15.5028C548.542 14.3703 547.834 13.3111 546.799 12.6791C547.912 12.538 548.881 12.0443 549.131 10.8838C549.507 9.13615 547.786 8.02031 546.067 7.65059C544.333 7.27787 542.32 7.59114 541.944 9.33881C541.695 10.4993 542.362 11.3447 543.318 11.9307C542.115 12.0817 541.048 12.7591 540.805 13.8916C540.429 15.6393 542.038 16.8629 543.996 17.2838ZM545.234 11.5234C544.679 11.3163 543.741 10.7783 543.892 10.0792C544.036 9.40814 544.777 9.15793 545.7 9.35632C546.609 9.5517 547.182 10.0845 547.037 10.7556C546.887 11.4546 545.825 11.5628 545.234 11.5234ZM544.362 15.578C543.384 15.3676 542.725 14.7579 542.872 14.0728C543.041 13.2899 544.268 13.1588 544.873 13.2012C545.429 13.4083 546.508 14.0353 546.34 14.8183C546.192 15.5033 545.313 15.7824 544.362 15.578Z" fill="white"/>
<path d="M555.842 20.2409C558.543 21.0391 560.673 19.5357 561.487 16.779C562.253 14.1869 561.719 11.703 558.949 10.8846C556.864 10.2687 555.036 11.2051 554.51 12.9881C553.934 14.9356 555.112 16.4018 556.757 16.8879C557.759 17.1837 558.844 16.8929 559.465 16.4053C559.445 16.4739 559.424 16.5425 559.404 16.6111C559.015 17.9277 557.861 18.9585 556.352 18.5128C555.543 18.2738 555.095 17.873 554.739 17.2608L553.433 18.5005C553.907 19.2669 554.731 19.9127 555.842 20.2409ZM557.8 15.3768C556.95 15.1256 556.235 14.467 556.519 13.507C556.705 12.8761 557.492 12.3331 558.534 12.641C559.823 13.0218 560.025 14.1552 559.848 15.0572C559.251 15.4625 558.486 15.5794 557.8 15.3768Z" fill="white"/>
<path d="M578.881 27.7119L579.297 25.9735L575.514 25.0678C578.339 23.8914 579.976 22.8276 580.356 21.2421C580.799 19.3923 579.494 17.9035 577.519 17.4306C576.225 17.121 574.735 17.2642 573.581 18.0909L574.395 19.6679C575.177 19.1641 576.084 18.94 577.141 19.193C577.906 19.3761 578.546 19.9559 578.353 20.7626C578.08 21.903 576.738 22.5963 572.268 24.4967L571.899 26.0404L578.881 27.7119Z" fill="white"/>
<path d="M587.483 29.5756C590.158 30.0498 591.801 27.8283 592.23 25.4063C592.659 22.9843 591.878 20.3477 589.202 19.8735C586.513 19.3969 584.887 21.6068 584.457 24.0288C584.028 26.4508 584.793 29.099 587.483 29.5756ZM587.797 27.8014C586.445 27.5618 586.178 26.1202 586.485 24.3881C586.792 22.6561 587.536 21.4082 588.888 21.6478C590.226 21.8849 590.495 23.3124 590.188 25.0444C589.882 26.7765 589.135 28.0384 587.797 27.8014Z" fill="white"/>
<path d="M600.285 31.4549C602.985 31.7643 604.488 29.4463 604.768 27.0026C605.048 24.5588 604.107 21.975 601.407 21.6657C598.693 21.3548 597.206 23.6601 596.926 26.1039C596.646 28.5476 597.572 31.144 600.285 31.4549ZM600.49 29.6647C599.126 29.5084 598.771 28.0859 598.972 26.3383C599.172 24.5908 599.838 23.2996 601.202 23.4559C602.552 23.6106 602.908 25.0189 602.708 26.7665C602.508 28.5141 601.84 29.8194 600.49 29.6647Z" fill="white"/>
<path d="M613.681 32.408L614.249 22.8863L612.479 22.7807L609.301 25.6139L610.385 26.8963L612.066 25.3777L611.654 32.287L613.681 32.408Z" fill="white"/>
<path d="M623.239 32.8479C625.957 32.8618 627.199 30.394 627.212 27.9343C627.224 25.4746 626.007 23.0086 623.29 22.9948C620.558 22.9808 619.33 25.4343 619.318 27.894C619.305 30.3537 620.508 32.8339 623.239 32.8479ZM623.249 31.046C621.876 31.039 621.368 29.6635 621.377 27.9045C621.386 26.1456 621.908 24.7896 623.281 24.7966C624.639 24.8036 625.147 26.1648 625.138 27.9237C625.129 29.6827 624.607 31.053 623.249 31.046Z" fill="white"/>
<path d="M635.691 32.3852L638.804 24.0865L638.729 22.6727L631.575 23.0507L631.669 24.8358L636.467 24.5823L633.463 32.5029L635.691 32.3852Z" fill="white"/>
<path d="M647.639 31.5833C650.339 31.2831 651.288 28.6884 651.017 26.2437C650.745 23.799 649.251 21.4901 646.55 21.7903C643.836 22.092 642.899 24.671 643.171 27.1156C643.442 29.5603 644.924 31.885 647.639 31.5833ZM647.44 29.7924C646.075 29.944 645.412 28.6364 645.217 26.8882C645.023 25.1399 645.385 23.7328 646.749 23.5812C648.1 23.4311 648.761 24.7245 648.956 26.4727C649.15 28.221 648.79 29.6423 647.44 29.7924Z" fill="white"/>
<path d="M660.353 29.7914C662.325 29.4487 663.98 28.276 663.676 26.5288C663.478 25.3876 662.424 24.6706 661.229 24.4719C662.208 23.9245 662.921 23.1038 662.718 21.9343C662.412 20.1731 660.4 19.7824 658.666 20.0835C656.919 20.387 655.17 21.4311 655.476 23.1923C655.679 24.3617 656.614 24.8961 657.72 25.0813C656.662 25.6716 655.926 26.6994 656.124 27.8407C656.43 29.6019 658.38 30.134 660.353 29.7914ZM659.344 23.9864C658.752 24.0022 657.681 23.8543 657.559 23.1498C657.441 22.4735 658.035 21.964 658.965 21.8024C659.881 21.6434 660.612 21.9228 660.729 22.5992C660.851 23.3036 659.907 23.8015 659.344 23.9864ZM660.054 28.0724C659.068 28.2437 658.229 27.925 658.109 27.2346C657.972 26.4456 659.061 25.8645 659.638 25.6771C660.23 25.6613 661.466 25.8386 661.603 26.6277C661.723 27.3181 661.012 27.906 660.054 28.0724Z" fill="white"/>
<path d="M672.472 27.3245C675.213 26.6732 676.312 24.31 675.648 21.5134C675.023 18.8837 673.324 16.9943 670.514 17.6621C668.399 18.1646 667.279 19.8859 667.709 21.6946C668.179 23.6703 669.929 24.3568 671.599 23.96C672.614 23.7187 673.411 22.9267 673.708 22.1949C673.724 22.2644 673.741 22.334 673.757 22.4036C674.074 23.7392 673.586 25.2077 672.055 25.5714C671.234 25.7664 670.646 25.6416 670.033 25.2876L669.517 27.0124C670.309 27.4414 671.345 27.5923 672.472 27.3245ZM671.752 22.1304C670.889 22.3353 669.941 22.1196 669.71 21.1457C669.558 20.5056 669.97 19.6433 671.028 19.392C672.336 19.0813 673.075 19.964 673.37 20.8346C673.053 21.4831 672.448 21.9651 671.752 22.1304Z" fill="white"/>
<path d="M695.917 19.427L695.407 17.7137L691.679 18.8236C693.536 16.3907 694.42 14.6502 693.955 13.0877C693.413 11.2647 691.537 10.6293 689.591 11.2087C688.316 11.5882 687.098 12.4581 686.513 13.7513L688.007 14.7092C688.432 13.8814 689.105 13.2336 690.146 12.9235C690.9 12.699 691.745 12.8803 691.982 13.6752C692.316 14.7992 691.501 16.0713 688.584 19.9539L689.037 21.4753L695.917 19.427Z" fill="white"/>
<path d="M704.375 17.5475C707.029 16.9653 707.7 14.2851 707.173 11.8825C706.646 9.47993 704.917 7.34087 702.263 7.92312C699.595 8.50843 698.935 11.1715 699.462 13.5741C699.989 15.9767 701.707 18.1328 704.375 17.5475ZM703.989 15.7875C702.648 16.0816 701.851 14.851 701.474 13.1328C701.097 11.4147 701.308 9.97735 702.649 9.68316C703.976 9.39204 704.77 10.6087 705.147 12.3269C705.524 14.045 705.316 15.4963 703.989 15.7875Z" fill="white"/>
<path d="M716.95 15.2659C719.64 14.8854 720.511 12.2635 720.167 9.82802C719.822 7.39251 718.26 5.1292 715.57 5.50965C712.865 5.8921 712.006 8.49781 712.351 10.9333C712.695 13.3688 714.245 15.6483 716.95 15.2659ZM716.697 13.4817C715.338 13.6739 714.636 12.3867 714.39 10.645C714.143 8.90331 714.463 7.48603 715.822 7.2938C717.167 7.10358 717.867 8.37669 718.114 10.1184C718.36 11.86 718.042 13.2915 716.697 13.4817Z" fill="white"/>
<path d="M730.157 13.7258L729.457 4.21285L727.689 4.34287L724.915 7.57241L726.159 8.69978L727.624 6.97175L728.131 13.8747L730.157 13.7258Z" fill="white"/>
<path d="M739.595 13.5722C742.312 13.5551 743.526 11.0734 743.511 8.61366C743.495 6.15397 742.25 3.70201 739.533 3.7191C736.802 3.73628 735.602 6.20362 735.617 8.66332C735.632 11.123 736.864 13.5894 739.595 13.5722ZM739.584 11.7703C738.211 11.7789 737.687 10.4093 737.676 8.65036C737.665 6.8914 738.172 5.52961 739.544 5.52097C740.903 5.51243 741.426 6.86774 741.437 8.6267C741.448 10.3857 740.942 11.7618 739.584 11.7703Z" fill="white"/>
<path d="M751.914 13.7557L755.981 5.88037L756.073 4.46757L748.923 4.00221L748.807 5.78604L753.602 6.09814L749.688 13.6108L751.914 13.7557Z" fill="white"/>
<path d="M763.672 15.1083C766.364 15.4775 767.918 13.1935 768.252 10.7566C768.587 8.31963 767.702 5.7156 765.01 5.34644C762.304 4.97533 760.766 7.24711 760.432 9.68404C760.097 12.121 760.966 14.7372 763.672 15.1083ZM763.917 13.3231C762.556 13.1366 762.233 11.7065 762.472 9.96383C762.711 8.22114 763.405 6.94511 764.766 7.13163C766.112 7.31621 766.437 8.73214 766.198 10.4748C765.959 12.2175 765.262 13.5077 763.917 13.3231Z" fill="white"/>
<path d="M776.164 17.2838C778.121 17.7046 780.094 17.2365 780.467 15.5028C780.71 14.3703 780.002 13.3111 778.968 12.6791C780.08 12.538 781.05 12.0443 781.299 10.8838C781.675 9.13615 779.955 8.02031 778.235 7.65059C776.501 7.27787 774.488 7.59114 774.113 9.33881C773.863 10.4993 774.53 11.3447 775.486 11.9307C774.284 12.0817 773.216 12.7591 772.973 13.8916C772.597 15.6393 774.207 16.8629 776.164 17.2838ZM777.402 11.5234C776.847 11.3163 775.91 10.7783 776.06 10.0792C776.204 9.40814 776.945 9.15793 777.868 9.35632C778.777 9.5517 779.35 10.0845 779.206 10.7556C779.055 11.4546 777.994 11.5628 777.402 11.5234ZM776.531 15.578C775.552 15.3676 774.893 14.7579 775.04 14.0728C775.209 13.2899 776.436 13.1588 777.042 13.2012C777.597 13.4083 778.676 14.0353 778.508 14.8183C778.36 15.5033 777.481 15.7824 776.531 15.578Z" fill="white"/>
<path d="M788.01 20.2409C790.712 21.0391 792.841 19.5357 793.655 16.779C794.421 14.1869 793.887 11.703 791.117 10.8846C789.032 10.2687 787.205 11.2051 786.678 12.9881C786.103 14.9356 787.28 16.4018 788.926 16.8879C789.927 17.1837 791.012 16.8929 791.633 16.4053C791.613 16.4739 791.593 16.5425 791.572 16.6111C791.183 17.9277 790.029 18.9585 788.52 18.5128C787.711 18.2738 787.263 17.873 786.907 17.2608L785.601 18.5005C786.076 19.2669 786.899 19.9127 788.01 20.2409ZM789.969 15.3768C789.118 15.1256 788.403 14.467 788.687 13.507C788.873 12.8761 789.66 12.3331 790.702 12.641C791.991 13.0218 792.193 14.1552 792.016 15.0572C791.42 15.4625 790.654 15.5794 789.969 15.3768Z" fill="white"/>
<path d="M811.049 27.7119L811.465 25.9735L807.682 25.0678C810.507 23.8914 812.144 22.8276 812.524 21.2421C812.967 19.3923 811.662 17.9035 809.687 17.4306C808.393 17.121 806.903 17.2642 805.75 18.0909L806.563 19.6679C807.345 19.1641 808.252 18.94 809.309 19.193C810.074 19.3761 810.714 19.9559 810.521 20.7626C810.248 21.903 808.906 22.5963 804.436 24.4967L804.067 26.0404L811.049 27.7119Z" fill="white"/>
<path d="M819.651 29.5756C822.326 30.0498 823.969 27.8283 824.398 25.4063C824.827 22.9843 824.046 20.3477 821.37 19.8735C818.681 19.3969 817.055 21.6068 816.625 24.0288C816.196 26.4508 816.961 29.099 819.651 29.5756ZM819.965 27.8014C818.613 27.5618 818.346 26.1202 818.653 24.3881C818.96 22.6561 819.704 21.4082 821.056 21.6478C822.394 21.8849 822.663 23.3124 822.356 25.0444C822.05 26.7765 821.303 28.0384 819.965 27.8014Z" fill="white"/>
<path d="M832.454 31.4549C835.153 31.7643 836.657 29.4463 836.937 27.0026C837.217 24.5588 836.275 21.975 833.575 21.6657C830.862 21.3548 829.374 23.6601 829.094 26.1039C828.814 28.5476 829.74 31.144 832.454 31.4549ZM832.659 29.6647C831.295 29.5084 830.94 28.0859 831.14 26.3383C831.34 24.5908 832.006 23.2996 833.37 23.4559C834.72 23.6106 835.077 25.0189 834.876 26.7665C834.676 28.5141 834.008 29.8194 832.659 29.6647Z" fill="white"/>
<path d="M845.849 32.408L846.417 22.8863L844.647 22.7807L841.469 25.6139L842.553 26.8963L844.234 25.3777L843.822 32.287L845.849 32.408Z" fill="white"/>
<path d="M855.408 32.8479C858.125 32.8618 859.367 30.394 859.38 27.9343C859.392 25.4746 858.175 23.0086 855.458 22.9948C852.726 22.9808 851.498 25.4343 851.486 27.894C851.473 30.3537 852.676 32.8339 855.408 32.8479ZM855.417 31.046C854.044 31.039 853.536 29.6635 853.545 27.9045C853.554 26.1456 854.076 24.7896 855.449 24.7966C856.807 24.8036 857.315 26.1648 857.306 27.9237C857.297 29.6827 856.775 31.053 855.417 31.046Z" fill="white"/>
<path d="M867.859 32.3852L870.972 24.0865L870.898 22.6727L863.743 23.0507L863.837 24.8358L868.635 24.5823L865.631 32.5029L867.859 32.3852Z" fill="white"/>
<path d="M879.807 31.5833C882.507 31.2831 883.456 28.6884 883.185 26.2437C882.913 23.799 881.419 21.4901 878.718 21.7903C876.004 22.092 875.067 24.671 875.339 27.1156C875.611 29.5603 877.092 31.885 879.807 31.5833ZM879.608 29.7924C878.243 29.944 877.58 28.6364 877.386 26.8882C877.191 25.1399 877.553 23.7328 878.918 23.5812C880.268 23.4311 880.93 24.7245 881.124 26.4727C881.318 28.221 880.958 29.6423 879.608 29.7924Z" fill="white"/>
<path d="M892.521 29.7914C894.493 29.4487 896.147 28.276 895.844 26.5288C895.646 25.3876 894.592 24.6706 893.396 24.4719C894.375 23.9245 895.089 23.1038 894.886 21.9343C894.58 20.1731 892.567 19.7824 890.834 20.0835C889.087 20.387 887.338 21.4311 887.644 23.1923C887.847 24.3617 888.782 24.8961 889.888 25.0813C888.829 25.6716 888.093 26.6994 888.292 27.8407C888.598 29.6019 890.548 30.134 892.521 29.7914ZM891.512 23.9864C890.92 24.0022 889.849 23.8543 889.727 23.1498C889.609 22.4735 890.203 21.964 891.133 21.8024C892.049 21.6434 892.779 21.9228 892.897 22.5992C893.019 23.3036 892.075 23.8015 891.512 23.9864ZM892.222 28.0724C891.236 28.2437 890.397 27.925 890.277 27.2346C890.14 26.4456 891.229 25.8645 891.806 25.6771C892.398 25.6613 893.634 25.8386 893.771 26.6277C893.891 27.3181 893.18 27.906 892.222 28.0724Z" fill="white"/>
<path d="M904.64 27.3245C907.381 26.6732 908.48 24.31 907.816 21.5134C907.191 18.8837 905.492 16.9943 902.682 17.6621C900.567 18.1646 899.447 19.8859 899.877 21.6946C900.346 23.6703 902.097 24.3568 903.767 23.96C904.782 23.7187 905.579 22.9267 905.875 22.1949C905.892 22.2644 905.909 22.334 905.925 22.4036C906.242 23.7392 905.754 25.2077 904.223 25.5714C903.402 25.7664 902.814 25.6416 902.201 25.2876L901.684 27.0124C902.477 27.4414 903.513 27.5923 904.64 27.3245ZM903.92 22.1304C903.057 22.3353 902.109 22.1196 901.878 21.1457C901.726 20.5056 902.138 19.6433 903.196 19.392C904.504 19.0813 905.243 19.964 905.538 20.8346C905.221 21.4831 904.616 21.9651 903.92 22.1304Z" fill="white"/>
<path d="M928.085 19.427L927.575 17.7137L923.847 18.8236C925.704 16.3907 926.588 14.6502 926.123 13.0877C925.58 11.2647 923.705 10.6293 921.759 11.2087C920.484 11.5882 919.266 12.4581 918.681 13.7513L920.175 14.7092C920.6 13.8814 921.272 13.2336 922.314 12.9235C923.068 12.699 923.913 12.8803 924.149 13.6752C924.484 14.7992 923.669 16.0713 920.751 19.9539L921.204 21.4753L928.085 19.427Z" fill="white"/>
<path d="M936.542 17.5475C939.196 16.9653 939.868 14.2851 939.341 11.8825C938.813 9.47993 937.085 7.34087 934.431 7.92312C931.763 8.50843 931.103 11.1715 931.63 13.5741C932.157 15.9767 933.874 18.1328 936.542 17.5475ZM936.156 15.7875C934.815 16.0816 934.018 14.851 933.641 13.1328C933.264 11.4147 933.476 9.97735 934.817 9.68316C936.144 9.39204 936.938 10.6087 937.315 12.3269C937.692 14.045 937.483 15.4963 936.156 15.7875Z" fill="white"/>
<path d="M949.117 15.2659C951.808 14.8854 952.679 12.2635 952.334 9.82802C951.99 7.39251 950.428 5.1292 947.738 5.50965C945.033 5.8921 944.174 8.49781 944.518 10.9333C944.863 13.3688 946.413 15.6483 949.117 15.2659ZM948.865 13.4817C947.505 13.6739 946.803 12.3867 946.557 10.645C946.311 8.90331 946.63 7.48603 947.99 7.2938C949.335 7.10358 950.035 8.37669 950.281 10.1184C950.528 11.86 950.21 13.2915 948.865 13.4817Z" fill="white"/>
<path d="M962.324 13.7258L961.625 4.21285L959.857 4.34287L957.083 7.57241L958.327 8.69978L959.792 6.97175L960.299 13.8747L962.324 13.7258Z" fill="white"/>
<path d="M971.763 13.5722C974.48 13.5551 975.694 11.0734 975.679 8.61366C975.663 6.15397 974.418 3.70201 971.701 3.7191C968.969 3.73628 967.769 6.20362 967.785 8.66332C967.8 11.123 969.031 13.5894 971.763 13.5722ZM971.751 11.7703C970.379 11.7789 969.855 10.4093 969.844 8.65036C969.833 6.8914 970.339 5.52961 971.712 5.52097C973.071 5.51243 973.594 6.86774 973.605 8.6267C973.616 10.3857 973.11 11.7618 971.751 11.7703Z" fill="white"/>
<path d="M984.082 13.7557L988.149 5.88037L988.241 4.46757L981.091 4.00221L980.975 5.78604L985.77 6.09814L981.856 13.6108L984.082 13.7557Z" fill="white"/>
<path d="M995.84 15.1083C998.532 15.4775 1000.09 13.1935 1000.42 10.7566C1000.75 8.31963 999.87 5.7156 997.178 5.34644C994.472 4.97533 992.934 7.24711 992.6 9.68404C992.265 12.121 993.134 14.7372 995.84 15.1083ZM996.084 13.3231C994.724 13.1366 994.401 11.7065 994.64 9.96383C994.879 8.22114 995.573 6.94511 996.934 7.13163C998.28 7.31621 998.605 8.73214 998.366 10.4748C998.127 12.2175 997.43 13.5077 996.084 13.3231Z" fill="white"/>
<path d="M1008.33 17.2838C1010.29 17.7046 1012.26 17.2365 1012.63 15.5028C1012.88 14.3703 1012.17 13.3111 1011.14 12.6791C1012.25 12.538 1013.22 12.0443 1013.47 10.8838C1013.84 9.13615 1012.12 8.02031 1010.4 7.65059C1008.67 7.27787 1006.66 7.59114 1006.28 9.33881C1006.03 10.4993 1006.7 11.3447 1007.65 11.9307C1006.45 12.0817 1005.38 12.7591 1005.14 13.8916C1004.76 15.6393 1006.37 16.8629 1008.33 17.2838ZM1009.57 11.5234C1009.01 11.3163 1008.08 10.7783 1008.23 10.0792C1008.37 9.40814 1009.11 9.15793 1010.04 9.35632C1010.94 9.5517 1011.52 10.0845 1011.37 10.7556C1011.22 11.4546 1010.16 11.5628 1009.57 11.5234ZM1008.7 15.578C1007.72 15.3676 1007.06 14.7579 1007.21 14.0728C1007.38 13.2899 1008.6 13.1588 1009.21 13.2012C1009.76 13.4083 1010.84 14.0353 1010.68 14.8183C1010.53 15.5033 1009.65 15.7824 1008.7 15.578Z" fill="white"/>
<path d="M1020.18 20.2409C1022.88 21.0391 1025.01 19.5357 1025.82 16.779C1026.59 14.1869 1026.05 11.703 1023.28 10.8846C1021.2 10.2687 1019.37 11.2051 1018.85 12.9881C1018.27 14.9356 1019.45 16.4018 1021.09 16.8879C1022.09 17.1837 1023.18 16.8929 1023.8 16.4053C1023.78 16.4739 1023.76 16.5425 1023.74 16.6111C1023.35 17.9277 1022.2 18.9585 1020.69 18.5128C1019.88 18.2738 1019.43 17.873 1019.07 17.2608L1017.77 18.5005C1018.24 19.2669 1019.07 19.9127 1020.18 20.2409ZM1022.14 15.3768C1021.29 15.1256 1020.57 14.467 1020.85 13.507C1021.04 12.8761 1021.83 12.3331 1022.87 12.641C1024.16 13.0218 1024.36 14.1552 1024.18 15.0572C1023.59 15.4625 1022.82 15.5794 1022.14 15.3768Z" fill="white"/>
<path d="M1043.22 27.7119L1043.63 25.9735L1039.85 25.0678C1042.68 23.8914 1044.31 22.8276 1044.69 21.2421C1045.13 19.3923 1043.83 17.9035 1041.85 17.4306C1040.56 17.121 1039.07 17.2642 1037.92 18.0909L1038.73 19.6679C1039.51 19.1641 1040.42 18.94 1041.48 19.193C1042.24 19.3761 1042.88 19.9559 1042.69 20.7626C1042.42 21.903 1041.07 22.5963 1036.6 24.4967L1036.23 26.0404L1043.22 27.7119Z" fill="white"/>
<path d="M1051.82 29.5756C1054.49 30.0498 1056.14 27.8283 1056.57 25.4063C1057 22.9843 1056.21 20.3477 1053.54 19.8735C1050.85 19.3969 1049.22 21.6068 1048.79 24.0288C1048.36 26.4508 1049.13 29.099 1051.82 29.5756ZM1052.13 27.8014C1050.78 27.5618 1050.51 26.1202 1050.82 24.3881C1051.13 22.6561 1051.87 21.4082 1053.22 21.6478C1054.56 21.8849 1054.83 23.3124 1054.52 25.0444C1054.22 26.7765 1053.47 28.0384 1052.13 27.8014Z" fill="white"/>
<path d="M1064.62 31.4549C1067.32 31.7643 1068.82 29.4463 1069.1 27.0026C1069.38 24.5588 1068.44 21.975 1065.74 21.6657C1063.03 21.3548 1061.54 23.6601 1061.26 26.1039C1060.98 28.5476 1061.91 31.144 1064.62 31.4549ZM1064.83 29.6647C1063.46 29.5084 1063.11 28.0859 1063.31 26.3383C1063.51 24.5908 1064.17 23.2996 1065.54 23.4559C1066.89 23.6106 1067.24 25.0189 1067.04 26.7665C1066.84 28.5141 1066.18 29.8194 1064.83 29.6647Z" fill="white"/>
<path d="M1078.02 32.408L1078.58 22.8863L1076.81 22.7807L1073.64 25.6139L1074.72 26.8963L1076.4 25.3777L1075.99 32.287L1078.02 32.408Z" fill="white"/>
<path d="M1087.58 32.8479C1090.29 32.8618 1091.53 30.394 1091.55 27.9343C1091.56 25.4746 1090.34 23.0086 1087.63 22.9948C1084.89 22.9808 1083.67 25.4343 1083.65 27.894C1083.64 30.3537 1084.84 32.8339 1087.58 32.8479ZM1087.58 31.046C1086.21 31.039 1085.7 29.6635 1085.71 27.9045C1085.72 26.1456 1086.24 24.7896 1087.62 24.7966C1088.97 24.8036 1089.48 26.1648 1089.47 27.9237C1089.46 29.6827 1088.94 31.053 1087.58 31.046Z" fill="white"/>
<path d="M1100.03 32.3852L1103.14 24.0865L1103.07 22.6727L1095.91 23.0507L1096 24.8358L1100.8 24.5823L1097.8 32.5029L1100.03 32.3852Z" fill="white"/>
<path d="M1111.97 31.5833C1114.67 31.2831 1115.62 28.6884 1115.35 26.2437C1115.08 23.799 1113.59 21.4901 1110.89 21.7903C1108.17 22.092 1107.23 24.671 1107.51 27.1156C1107.78 29.5603 1109.26 31.885 1111.97 31.5833ZM1111.78 29.7924C1110.41 29.944 1109.75 28.6364 1109.55 26.8882C1109.36 25.1399 1109.72 23.7328 1111.09 23.5812C1112.44 23.4311 1113.1 24.7245 1113.29 26.4727C1113.49 28.221 1113.13 29.6423 1111.78 29.7924Z" fill="white"/>
<path d="M1124.69 29.7914C1126.66 29.4487 1128.32 28.276 1128.01 26.5288C1127.81 25.3876 1126.76 24.6706 1125.56 24.4719C1126.54 23.9245 1127.26 23.1038 1127.05 21.9343C1126.75 20.1731 1124.74 19.7824 1123 20.0835C1121.25 20.387 1119.51 21.4311 1119.81 23.1923C1120.01 24.3617 1120.95 24.8961 1122.06 25.0813C1121 25.6716 1120.26 26.6994 1120.46 27.8407C1120.77 29.6019 1122.72 30.134 1124.69 29.7914ZM1123.68 23.9864C1123.09 24.0022 1122.02 23.8543 1121.89 23.1498C1121.78 22.4735 1122.37 21.964 1123.3 21.8024C1124.22 21.6434 1124.95 21.9228 1125.06 22.5992C1125.19 23.3036 1124.24 23.8015 1123.68 23.9864ZM1124.39 28.0724C1123.4 28.2437 1122.56 27.925 1122.44 27.2346C1122.31 26.4456 1123.4 25.8645 1123.97 25.6771C1124.57 25.6613 1125.8 25.8386 1125.94 26.6277C1126.06 27.3181 1125.35 27.906 1124.39 28.0724Z" fill="white"/>
<path d="M1136.81 27.3245C1139.55 26.6732 1140.65 24.31 1139.98 21.5134C1139.36 18.8837 1137.66 16.9943 1134.85 17.6621C1132.73 18.1646 1131.61 19.8859 1132.04 21.6946C1132.51 23.6703 1134.26 24.3568 1135.93 23.96C1136.95 23.7187 1137.75 22.9267 1138.04 22.1949C1138.06 22.2644 1138.08 22.334 1138.09 22.4036C1138.41 23.7392 1137.92 25.2077 1136.39 25.5714C1135.57 25.7664 1134.98 25.6416 1134.37 25.2876L1133.85 27.0124C1134.64 27.4414 1135.68 27.5923 1136.81 27.3245ZM1136.09 22.1304C1135.22 22.3353 1134.28 22.1196 1134.05 21.1457C1133.89 20.5056 1134.31 19.6433 1135.36 19.392C1136.67 19.0813 1137.41 19.964 1137.71 20.8346C1137.39 21.4831 1136.78 21.9651 1136.09 22.1304Z" fill="white"/>
<path d="M1160.25 19.427L1159.74 17.7137L1156.01 18.8236C1157.87 16.3907 1158.76 14.6502 1158.29 13.0877C1157.75 11.2647 1155.87 10.6293 1153.93 11.2087C1152.65 11.5882 1151.43 12.4581 1150.85 13.7513L1152.34 14.7092C1152.77 13.8814 1153.44 13.2336 1154.48 12.9235C1155.24 12.699 1156.08 12.8803 1156.32 13.6752C1156.65 14.7992 1155.84 16.0713 1152.92 19.9539L1153.37 21.4753L1160.25 19.427Z" fill="white"/>
<path d="M1168.71 17.5475C1171.36 16.9653 1172.04 14.2851 1171.51 11.8825C1170.98 9.47993 1169.25 7.34087 1166.6 7.92312C1163.93 8.50843 1163.27 11.1715 1163.8 13.5741C1164.32 15.9767 1166.04 18.1328 1168.71 17.5475ZM1168.32 15.7875C1166.98 16.0816 1166.19 14.851 1165.81 13.1328C1165.43 11.4147 1165.64 9.97735 1166.98 9.68316C1168.31 9.39204 1169.11 10.6087 1169.48 12.3269C1169.86 14.045 1169.65 15.4963 1168.32 15.7875Z" fill="white"/>
<path d="M1181.28 15.2659C1183.98 14.8854 1184.85 12.2635 1184.5 9.82802C1184.16 7.39251 1182.6 5.1292 1179.91 5.50965C1177.2 5.8921 1176.34 8.49781 1176.69 10.9333C1177.03 13.3688 1178.58 15.6483 1181.28 15.2659ZM1181.03 13.4817C1179.67 13.6739 1178.97 12.3867 1178.72 10.645C1178.48 8.90331 1178.8 7.48603 1180.16 7.2938C1181.5 7.10358 1182.2 8.37669 1182.45 10.1184C1182.7 11.86 1182.38 13.2915 1181.03 13.4817Z" fill="white"/>
<path d="M1194.49 13.7258L1193.79 4.21285L1192.02 4.34287L1189.25 7.57241L1190.49 8.69978L1191.96 6.97175L1192.47 13.8747L1194.49 13.7258Z" fill="white"/>
<path d="M1203.93 13.5722C1206.65 13.5551 1207.86 11.0734 1207.85 8.61366C1207.83 6.15397 1206.59 3.70201 1203.87 3.7191C1201.14 3.73628 1199.94 6.20362 1199.95 8.66332C1199.97 11.123 1201.2 13.5894 1203.93 13.5722ZM1203.92 11.7703C1202.55 11.7789 1202.02 10.4093 1202.01 8.65036C1202 6.8914 1202.51 5.52961 1203.88 5.52097C1205.24 5.51243 1205.76 6.86774 1205.77 8.6267C1205.78 10.3857 1205.28 11.7618 1203.92 11.7703Z" fill="white"/>
<path d="M1216.25 13.7557L1220.32 5.88037L1220.41 4.46757L1213.26 4.00221L1213.14 5.78604L1217.94 6.09814L1214.02 13.6108L1216.25 13.7557Z" fill="white"/>
<path d="M1228.01 15.1083C1230.7 15.4775 1232.25 13.1935 1232.59 10.7566C1232.92 8.31963 1232.04 5.7156 1229.35 5.34644C1226.64 4.97533 1225.1 7.24711 1224.77 9.68404C1224.43 12.121 1225.3 14.7372 1228.01 15.1083ZM1228.25 13.3231C1226.89 13.1366 1226.57 11.7065 1226.81 9.96383C1227.05 8.22114 1227.74 6.94511 1229.1 7.13163C1230.45 7.31621 1230.77 8.73214 1230.53 10.4748C1230.29 12.2175 1229.6 13.5077 1228.25 13.3231Z" fill="white"/>
<path d="M1240.5 17.2838C1242.46 17.7046 1244.43 17.2365 1244.8 15.5028C1245.05 14.3703 1244.34 13.3111 1243.3 12.6791C1244.42 12.538 1245.39 12.0443 1245.63 10.8838C1246.01 9.13615 1244.29 8.02031 1242.57 7.65059C1240.84 7.27787 1238.82 7.59114 1238.45 9.33881C1238.2 10.4993 1238.87 11.3447 1239.82 11.9307C1238.62 12.0817 1237.55 12.7591 1237.31 13.8916C1236.93 15.6393 1238.54 16.8629 1240.5 17.2838ZM1241.74 11.5234C1241.18 11.3163 1240.25 10.7783 1240.4 10.0792C1240.54 9.40814 1241.28 9.15793 1242.2 9.35632C1243.11 9.5517 1243.69 10.0845 1243.54 10.7556C1243.39 11.4546 1242.33 11.5628 1241.74 11.5234ZM1240.87 15.578C1239.89 15.3676 1239.23 14.7579 1239.38 14.0728C1239.54 13.2899 1240.77 13.1588 1241.38 13.2012C1241.93 13.4083 1243.01 14.0353 1242.84 14.8183C1242.7 15.5033 1241.82 15.7824 1240.87 15.578Z" fill="white"/>
<path d="M1252.35 20.2409C1255.05 21.0391 1257.18 19.5357 1257.99 16.779C1258.76 14.1869 1258.22 11.703 1255.45 10.8846C1253.37 10.2687 1251.54 11.2051 1251.01 12.9881C1250.44 14.9356 1251.62 16.4018 1253.26 16.8879C1254.26 17.1837 1255.35 16.8929 1255.97 16.4053C1255.95 16.4739 1255.93 16.5425 1255.91 16.6111C1255.52 17.9277 1254.36 18.9585 1252.86 18.5128C1252.05 18.2738 1251.6 17.873 1251.24 17.2608L1249.94 18.5005C1250.41 19.2669 1251.23 19.9127 1252.35 20.2409ZM1254.3 15.3768C1253.45 15.1256 1252.74 14.467 1253.02 13.507C1253.21 12.8761 1254 12.3331 1255.04 12.641C1256.33 13.0218 1256.53 14.1552 1256.35 15.0572C1255.76 15.4625 1254.99 15.5794 1254.3 15.3768Z" fill="white"/>
<path d="M1275.38 27.7119L1275.8 25.9735L1272.02 25.0678C1274.84 23.8914 1276.48 22.8276 1276.86 21.2421C1277.3 19.3923 1276 17.9035 1274.02 17.4306C1272.73 17.121 1271.24 17.2642 1270.09 18.0909L1270.9 19.6679C1271.68 19.1641 1272.59 18.94 1273.64 19.193C1274.41 19.3761 1275.05 19.9559 1274.86 20.7626C1274.58 21.903 1273.24 22.5963 1268.77 24.4967L1268.4 26.0404L1275.38 27.7119Z" fill="white"/>
<path d="M1283.99 29.5756C1286.66 30.0498 1288.3 27.8283 1288.73 25.4063C1289.16 22.9843 1288.38 20.3477 1285.71 19.8735C1283.02 19.3969 1281.39 21.6068 1280.96 24.0288C1280.53 26.4508 1281.3 29.099 1283.99 29.5756ZM1284.3 27.8014C1282.95 27.5618 1282.68 26.1202 1282.99 24.3881C1283.3 22.6561 1284.04 21.4082 1285.39 21.6478C1286.73 21.8849 1287 23.3124 1286.69 25.0444C1286.38 26.7765 1285.64 28.0384 1284.3 27.8014Z" fill="white"/>
<path d="M1296.79 31.4549C1299.49 31.7643 1300.99 29.4463 1301.27 27.0026C1301.55 24.5588 1300.61 21.975 1297.91 21.6657C1295.2 21.3548 1293.71 23.6601 1293.43 26.1039C1293.15 28.5476 1294.08 31.144 1296.79 31.4549ZM1296.99 29.6647C1295.63 29.5084 1295.27 28.0859 1295.48 26.3383C1295.68 24.5908 1296.34 23.2996 1297.71 23.4559C1299.06 23.6106 1299.41 25.0189 1299.21 26.7665C1299.01 28.5141 1298.34 29.8194 1296.99 29.6647Z" fill="white"/>
<path d="M1310.18 32.408L1310.75 22.8863L1308.98 22.7807L1305.8 25.6139L1306.89 26.8963L1308.57 25.3777L1308.16 32.287L1310.18 32.408Z" fill="white"/>
<path d="M1319.74 32.8479C1322.46 32.8618 1323.7 30.394 1323.72 27.9343C1323.73 25.4746 1322.51 23.0086 1319.79 22.9948C1317.06 22.9808 1315.83 25.4343 1315.82 27.894C1315.81 30.3537 1317.01 32.8339 1319.74 32.8479ZM1319.75 31.046C1318.38 31.039 1317.87 29.6635 1317.88 27.9045C1317.89 26.1456 1318.41 24.7896 1319.78 24.7966C1321.14 24.8036 1321.65 26.1648 1321.64 27.9237C1321.63 29.6827 1321.11 31.053 1319.75 31.046Z" fill="white"/>
<path d="M1332.19 32.3852L1335.31 24.0865L1335.23 22.6727L1328.08 23.0507L1328.17 24.8358L1332.97 24.5823L1329.97 32.5029L1332.19 32.3852Z" fill="white"/>
<path d="M1344.14 31.5833C1346.84 31.2831 1347.79 28.6884 1347.52 26.2437C1347.25 23.799 1345.75 21.4901 1343.05 21.7903C1340.34 22.092 1339.4 24.671 1339.67 27.1156C1339.95 29.5603 1341.43 31.885 1344.14 31.5833ZM1343.94 29.7924C1342.58 29.944 1341.92 28.6364 1341.72 26.8882C1341.53 25.1399 1341.89 23.7328 1343.25 23.5812C1344.6 23.4311 1345.26 24.7245 1345.46 26.4727C1345.65 28.221 1345.29 29.6423 1343.94 29.7924Z" fill="white"/>
<path d="M1356.86 29.7914C1358.83 29.4487 1360.48 28.276 1360.18 26.5288C1359.98 25.3876 1358.93 24.6706 1357.73 24.4719C1358.71 23.9245 1359.42 23.1038 1359.22 21.9343C1358.92 20.1731 1356.9 19.7824 1355.17 20.0835C1353.42 20.387 1351.67 21.4311 1351.98 23.1923C1352.18 24.3617 1353.12 24.8961 1354.22 25.0813C1353.16 25.6716 1352.43 26.6994 1352.63 27.8407C1352.93 29.6019 1354.88 30.134 1356.86 29.7914ZM1355.85 23.9864C1355.26 24.0022 1354.18 23.8543 1354.06 23.1498C1353.94 22.4735 1354.54 21.964 1355.47 21.8024C1356.38 21.6434 1357.11 21.9228 1357.23 22.5992C1357.35 23.3036 1356.41 23.8015 1355.85 23.9864ZM1356.56 28.0724C1355.57 28.2437 1354.73 27.925 1354.61 27.2346C1354.48 26.4456 1355.56 25.8645 1356.14 25.6771C1356.73 25.6613 1357.97 25.8386 1358.11 26.6277C1358.23 27.3181 1357.52 27.906 1356.56 28.0724Z" fill="white"/>
<path d="M1368.98 27.3245C1371.72 26.6732 1372.82 24.31 1372.15 21.5134C1371.53 18.8837 1369.83 16.9943 1367.02 17.6621C1364.9 18.1646 1363.78 19.8859 1364.21 21.6946C1364.68 23.6703 1366.43 24.3568 1368.1 23.96C1369.12 23.7187 1369.91 22.9267 1370.21 22.1949C1370.23 22.2644 1370.24 22.334 1370.26 22.4036C1370.58 23.7392 1370.09 25.2077 1368.56 25.5714C1367.74 25.7664 1367.15 25.6416 1366.54 25.2876L1366.02 27.0124C1366.81 27.4414 1367.85 27.5923 1368.98 27.3245ZM1368.26 22.1304C1367.39 22.3353 1366.44 22.1196 1366.21 21.1457C1366.06 20.5056 1366.47 19.6433 1367.53 19.392C1368.84 19.0813 1369.58 19.964 1369.87 20.8346C1369.56 21.4831 1368.95 21.9651 1368.26 22.1304Z" fill="white"/>
<path d="M1392.42 19.427L1391.91 17.7137L1388.18 18.8236C1390.04 16.3907 1390.92 14.6502 1390.46 13.0877C1389.92 11.2647 1388.04 10.6293 1386.09 11.2087C1384.82 11.5882 1383.6 12.4581 1383.02 13.7513L1384.51 14.7092C1384.94 13.8814 1385.61 13.2336 1386.65 12.9235C1387.4 12.699 1388.25 12.8803 1388.49 13.6752C1388.82 14.7992 1388 16.0713 1385.09 19.9539L1385.54 21.4753L1392.42 19.427Z" fill="white"/>
<path d="M1400.88 17.5475C1403.53 16.9653 1404.2 14.2851 1403.68 11.8825C1403.15 9.47993 1401.42 7.34087 1398.77 7.92312C1396.1 8.50843 1395.44 11.1715 1395.97 13.5741C1396.49 15.9767 1398.21 18.1328 1400.88 17.5475ZM1400.49 15.7875C1399.15 16.0816 1398.35 14.851 1397.98 13.1328C1397.6 11.4147 1397.81 9.97735 1399.15 9.68316C1400.48 9.39204 1401.27 10.6087 1401.65 12.3269C1402.03 14.045 1401.82 15.4963 1400.49 15.7875Z" fill="white"/>
<path d="M1413.45 15.2659C1416.14 14.8854 1417.01 12.2635 1416.67 9.82802C1416.33 7.39251 1414.76 5.1292 1412.07 5.50965C1409.37 5.8921 1408.51 8.49781 1408.85 10.9333C1409.2 13.3688 1410.75 15.6483 1413.45 15.2659ZM1413.2 13.4817C1411.84 13.6739 1411.14 12.3867 1410.89 10.645C1410.65 8.90331 1410.97 7.48603 1412.33 7.2938C1413.67 7.10358 1414.37 8.37669 1414.62 10.1184C1414.86 11.86 1414.55 13.2915 1413.2 13.4817Z" fill="white"/>
<path d="M1426.66 13.7258L1425.96 4.21285L1424.19 4.34287L1421.42 7.57241L1422.66 8.69978L1424.13 6.97175L1424.64 13.8747L1426.66 13.7258Z" fill="white"/>
<path d="M1436.1 13.5722C1438.82 13.5551 1440.03 11.0734 1440.01 8.61366C1440 6.15397 1438.75 3.70201 1436.04 3.7191C1433.31 3.73628 1432.11 6.20362 1432.12 8.66332C1432.14 11.123 1433.37 13.5894 1436.1 13.5722ZM1436.09 11.7703C1434.71 11.7789 1434.19 10.4093 1434.18 8.65036C1434.17 6.8914 1434.68 5.52961 1436.05 5.52097C1437.41 5.51243 1437.93 6.86774 1437.94 8.6267C1437.95 10.3857 1437.45 11.7618 1436.09 11.7703Z" fill="white"/>
<path d="M1448.42 13.7557L1452.49 5.88037L1452.58 4.46757L1445.43 4.00221L1445.31 5.78604L1450.11 6.09814L1446.19 13.6108L1448.42 13.7557Z" fill="white"/>
<path d="M1460.18 15.1083C1462.87 15.4775 1464.42 13.1935 1464.76 10.7566C1465.09 8.31963 1464.21 5.7156 1461.51 5.34644C1458.81 4.97533 1457.27 7.24711 1456.94 9.68404C1456.6 12.121 1457.47 14.7372 1460.18 15.1083ZM1460.42 13.3231C1459.06 13.1366 1458.74 11.7065 1458.98 9.96383C1459.21 8.22114 1459.91 6.94511 1461.27 7.13163C1462.62 7.31621 1462.94 8.73214 1462.7 10.4748C1462.46 12.2175 1461.77 13.5077 1460.42 13.3231Z" fill="white"/>
<path d="M1472.67 17.2838C1474.62 17.7046 1476.6 17.2365 1476.97 15.5028C1477.21 14.3703 1476.51 13.3111 1475.47 12.6791C1476.58 12.538 1477.55 12.0443 1477.8 10.8838C1478.18 9.13615 1476.46 8.02031 1474.74 7.65059C1473 7.27787 1470.99 7.59114 1470.62 9.33881C1470.37 10.4993 1471.03 11.3447 1471.99 11.9307C1470.79 12.0817 1469.72 12.7591 1469.48 13.8916C1469.1 15.6393 1470.71 16.8629 1472.67 17.2838ZM1473.91 11.5234C1473.35 11.3163 1472.41 10.7783 1472.56 10.0792C1472.71 9.40814 1473.45 9.15793 1474.37 9.35632C1475.28 9.5517 1475.85 10.0845 1475.71 10.7556C1475.56 11.4546 1474.5 11.5628 1473.91 11.5234ZM1473.03 15.578C1472.06 15.3676 1471.4 14.7579 1471.54 14.0728C1471.71 13.2899 1472.94 13.1588 1473.55 13.2012C1474.1 13.4083 1475.18 14.0353 1475.01 14.8183C1474.86 15.5033 1473.99 15.7824 1473.03 15.578Z" fill="white"/>
<path d="M1484.51 20.2409C1487.22 21.0391 1489.34 19.5357 1490.16 16.779C1490.92 14.1869 1490.39 11.703 1487.62 10.8846C1485.54 10.2687 1483.71 11.2051 1483.18 12.9881C1482.61 14.9356 1483.78 16.4018 1485.43 16.8879C1486.43 17.1837 1487.52 16.8929 1488.14 16.4053C1488.12 16.4739 1488.1 16.5425 1488.08 16.6111C1487.69 17.9277 1486.53 18.9585 1485.02 18.5128C1484.21 18.2738 1483.77 17.873 1483.41 17.2608L1482.1 18.5005C1482.58 19.2669 1483.4 19.9127 1484.51 20.2409ZM1486.47 15.3768C1485.62 15.1256 1484.91 14.467 1485.19 13.507C1485.38 12.8761 1486.16 12.3331 1487.21 12.641C1488.5 13.0218 1488.7 14.1552 1488.52 15.0572C1487.92 15.4625 1487.16 15.5794 1486.47 15.3768Z" fill="white"/>
<path d="M1507.55 27.7119L1507.97 25.9735L1504.19 25.0678C1507.01 23.8914 1508.65 22.8276 1509.03 21.2421C1509.47 19.3923 1508.17 17.9035 1506.19 17.4306C1504.9 17.121 1503.41 17.2642 1502.25 18.0909L1503.07 19.6679C1503.85 19.1641 1504.76 18.94 1505.81 19.193C1506.58 19.3761 1507.22 19.9559 1507.02 20.7626C1506.75 21.903 1505.41 22.5963 1500.94 24.4967L1500.57 26.0404L1507.55 27.7119Z" fill="white"/>
<path d="M1516.15 29.5756C1518.83 30.0498 1520.47 27.8283 1520.9 25.4063C1521.33 22.9843 1520.55 20.3477 1517.87 19.8735C1515.18 19.3969 1513.56 21.6068 1513.13 24.0288C1512.7 26.4508 1513.46 29.099 1516.15 29.5756ZM1516.47 27.8014C1515.12 27.5618 1514.85 26.1202 1515.16 24.3881C1515.46 22.6561 1516.21 21.4082 1517.56 21.6478C1518.9 21.8849 1519.17 23.3124 1518.86 25.0444C1518.55 26.7765 1517.81 28.0384 1516.47 27.8014Z" fill="white"/>
<path d="M1528.96 31.4549C1531.66 31.7643 1533.16 29.4463 1533.44 27.0026C1533.72 24.5588 1532.78 21.975 1530.08 21.6657C1527.37 21.3548 1525.88 23.6601 1525.6 26.1039C1525.32 28.5476 1526.24 31.144 1528.96 31.4549ZM1529.16 29.6647C1527.8 29.5084 1527.44 28.0859 1527.64 26.3383C1527.84 24.5908 1528.51 23.2996 1529.87 23.4559C1531.22 23.6106 1531.58 25.0189 1531.38 26.7665C1531.18 28.5141 1530.51 29.8194 1529.16 29.6647Z" fill="white"/>
<path d="M1542.35 32.408L1542.92 22.8863L1541.15 22.7807L1537.97 25.6139L1539.06 26.8963L1540.74 25.3777L1540.33 32.287L1542.35 32.408Z" fill="white"/>
<path d="M1551.91 32.8479C1554.63 32.8618 1555.87 30.394 1555.88 27.9343C1555.9 25.4746 1554.68 23.0086 1551.96 22.9948C1549.23 22.9808 1548 25.4343 1547.99 27.894C1547.98 30.3537 1549.18 32.8339 1551.91 32.8479ZM1551.92 31.046C1550.55 31.039 1550.04 29.6635 1550.05 27.9045C1550.06 26.1456 1550.58 24.7896 1551.95 24.7966C1553.31 24.8036 1553.82 26.1648 1553.81 27.9237C1553.8 29.6827 1553.28 31.053 1551.92 31.046Z" fill="white"/>
<path d="M1564.36 32.3852L1567.48 24.0865L1567.4 22.6727L1560.25 23.0507L1560.34 24.8358L1565.14 24.5823L1562.13 32.5029L1564.36 32.3852Z" fill="white"/>
<path d="M1576.31 31.5833C1579.01 31.2831 1579.96 28.6884 1579.69 26.2437C1579.42 23.799 1577.92 21.4901 1575.22 21.7903C1572.51 22.092 1571.57 24.671 1571.84 27.1156C1572.11 29.5603 1573.6 31.885 1576.31 31.5833ZM1576.11 29.7924C1574.75 29.944 1574.08 28.6364 1573.89 26.8882C1573.69 25.1399 1574.06 23.7328 1575.42 23.5812C1576.77 23.4311 1577.43 24.7245 1577.63 26.4727C1577.82 28.221 1577.46 29.6423 1576.11 29.7924Z" fill="white"/>
<path d="M1589.02 29.7914C1591 29.4487 1592.65 28.276 1592.35 26.5288C1592.15 25.3876 1591.1 24.6706 1589.9 24.4719C1590.88 23.9245 1591.59 23.1038 1591.39 21.9343C1591.08 20.1731 1589.07 19.7824 1587.34 20.0835C1585.59 20.387 1583.84 21.4311 1584.15 23.1923C1584.35 24.3617 1585.29 24.8961 1586.39 25.0813C1585.33 25.6716 1584.6 26.6994 1584.8 27.8407C1585.1 29.6019 1587.05 30.134 1589.02 29.7914ZM1588.02 23.9864C1587.42 24.0022 1586.35 23.8543 1586.23 23.1498C1586.11 22.4735 1586.71 21.964 1587.64 21.8024C1588.55 21.6434 1589.28 21.9228 1589.4 22.5992C1589.52 23.3036 1588.58 23.8015 1588.02 23.9864ZM1588.73 28.0724C1587.74 28.2437 1586.9 27.925 1586.78 27.2346C1586.64 26.4456 1587.73 25.8645 1588.31 25.6771C1588.9 25.6613 1590.14 25.8386 1590.27 26.6277C1590.39 27.3181 1589.68 27.906 1588.73 28.0724Z" fill="white"/>
<path d="M1601.14 27.3245C1603.88 26.6732 1604.98 24.31 1604.32 21.5134C1603.69 18.8837 1602 16.9943 1599.19 17.6621C1597.07 18.1646 1595.95 19.8859 1596.38 21.6946C1596.85 23.6703 1598.6 24.3568 1600.27 23.96C1601.29 23.7187 1602.08 22.9267 1602.38 22.1949C1602.4 22.2644 1602.41 22.334 1602.43 22.4036C1602.75 23.7392 1602.26 25.2077 1600.73 25.5714C1599.91 25.7664 1599.32 25.6416 1598.7 25.2876L1598.19 27.0124C1598.98 27.4414 1600.02 27.5923 1601.14 27.3245ZM1600.42 22.1304C1599.56 22.3353 1598.61 22.1196 1598.38 21.1457C1598.23 20.5056 1598.64 19.6433 1599.7 19.392C1601.01 19.0813 1601.75 19.964 1602.04 20.8346C1601.72 21.4831 1601.12 21.9651 1600.42 22.1304Z" fill="white"/>
<path d="M1624.59 19.427L1624.08 17.7137L1620.35 18.8236C1622.21 16.3907 1623.09 14.6502 1622.63 13.0877C1622.08 11.2647 1620.21 10.6293 1618.26 11.2087C1616.99 11.5882 1615.77 12.4581 1615.18 13.7513L1616.68 14.7092C1617.1 13.8814 1617.78 13.2336 1618.82 12.9235C1619.57 12.699 1620.42 12.8803 1620.65 13.6752C1620.99 14.7992 1620.17 16.0713 1617.26 19.9539L1617.71 21.4753L1624.59 19.427Z" fill="white"/>
<path d="M1633.05 17.5475C1635.7 16.9653 1636.37 14.2851 1635.84 11.8825C1635.32 9.47993 1633.59 7.34087 1630.93 7.92312C1628.27 8.50843 1627.61 11.1715 1628.13 13.5741C1628.66 15.9767 1630.38 18.1328 1633.05 17.5475ZM1632.66 15.7875C1631.32 16.0816 1630.52 14.851 1630.15 13.1328C1629.77 11.4147 1629.98 9.97735 1631.32 9.68316C1632.65 9.39204 1633.44 10.6087 1633.82 12.3269C1634.2 14.045 1633.99 15.4963 1632.66 15.7875Z" fill="white"/>
<path d="M1645.62 15.2659C1648.31 14.8854 1649.18 12.2635 1648.84 9.82802C1648.49 7.39251 1646.93 5.1292 1644.24 5.50965C1641.54 5.8921 1640.68 8.49781 1641.02 10.9333C1641.37 13.3688 1642.92 15.6483 1645.62 15.2659ZM1645.37 13.4817C1644.01 13.6739 1643.31 12.3867 1643.06 10.645C1642.81 8.90331 1643.13 7.48603 1644.49 7.2938C1645.84 7.10358 1646.54 8.37669 1646.79 10.1184C1647.03 11.86 1646.71 13.2915 1645.37 13.4817Z" fill="white"/>
<path d="M1658.83 13.7258L1658.13 4.21285L1656.36 4.34287L1653.59 7.57241L1654.83 8.69978L1656.3 6.97175L1656.8 13.8747L1658.83 13.7258Z" fill="white"/>
<path d="M1668.27 13.5722C1670.98 13.5551 1672.2 11.0734 1672.18 8.61366C1672.17 6.15397 1670.92 3.70201 1668.2 3.7191C1665.47 3.73628 1664.27 6.20362 1664.29 8.66332C1664.3 11.123 1665.54 13.5894 1668.27 13.5722ZM1668.26 11.7703C1666.88 11.7789 1666.36 10.4093 1666.35 8.65036C1666.34 6.8914 1666.84 5.52961 1668.22 5.52097C1669.57 5.51243 1670.1 6.86774 1670.11 8.6267C1670.12 10.3857 1669.61 11.7618 1668.26 11.7703Z" fill="white"/>
<path d="M1680.59 13.7557L1684.65 5.88037L1684.74 4.46757L1677.6 4.00221L1677.48 5.78604L1682.27 6.09814L1678.36 13.6108L1680.59 13.7557Z" fill="white"/>
<path d="M1692.34 15.1083C1695.04 15.4775 1696.59 13.1935 1696.92 10.7566C1697.26 8.31963 1696.37 5.7156 1693.68 5.34644C1690.98 4.97533 1689.44 7.24711 1689.1 9.68404C1688.77 12.121 1689.64 14.7372 1692.34 15.1083ZM1692.59 13.3231C1691.23 13.1366 1690.9 11.7065 1691.14 9.96383C1691.38 8.22114 1692.08 6.94511 1693.44 7.13163C1694.78 7.31621 1695.11 8.73214 1694.87 10.4748C1694.63 12.2175 1693.93 13.5077 1692.59 13.3231Z" fill="white"/>
<path d="M1704.84 17.2838C1706.79 17.7046 1708.77 17.2365 1709.14 15.5028C1709.38 14.3703 1708.67 13.3111 1707.64 12.6791C1708.75 12.538 1709.72 12.0443 1709.97 10.8838C1710.35 9.13615 1708.63 8.02031 1706.91 7.65059C1705.17 7.27787 1703.16 7.59114 1702.78 9.33881C1702.53 10.4993 1703.2 11.3447 1704.16 11.9307C1702.96 12.0817 1701.89 12.7591 1701.64 13.8916C1701.27 15.6393 1702.88 16.8629 1704.84 17.2838ZM1706.07 11.5234C1705.52 11.3163 1704.58 10.7783 1704.73 10.0792C1704.88 9.40814 1705.62 9.15793 1706.54 9.35632C1707.45 9.5517 1708.02 10.0845 1707.88 10.7556C1707.73 11.4546 1706.67 11.5628 1706.07 11.5234ZM1705.2 15.578C1704.22 15.3676 1703.56 14.7579 1703.71 14.0728C1703.88 13.2899 1705.11 13.1588 1705.71 13.2012C1706.27 13.4083 1707.35 14.0353 1707.18 14.8183C1707.03 15.5033 1706.15 15.7824 1705.2 15.578Z" fill="white"/>
<path d="M1716.68 20.2409C1719.38 21.0391 1721.51 19.5357 1722.33 16.779C1723.09 14.1869 1722.56 11.703 1719.79 10.8846C1717.7 10.2687 1715.88 11.2051 1715.35 12.9881C1714.77 14.9356 1715.95 16.4018 1717.6 16.8879C1718.6 17.1837 1719.68 16.8929 1720.3 16.4053C1720.28 16.4739 1720.26 16.5425 1720.24 16.6111C1719.85 17.9277 1718.7 18.9585 1717.19 18.5128C1716.38 18.2738 1715.93 17.873 1715.58 17.2608L1714.27 18.5005C1714.75 19.2669 1715.57 19.9127 1716.68 20.2409ZM1718.64 15.3768C1717.79 15.1256 1717.07 14.467 1717.36 13.507C1717.54 12.8761 1718.33 12.3331 1719.37 12.641C1720.66 13.0218 1720.86 14.1552 1720.69 15.0572C1720.09 15.4625 1719.33 15.5794 1718.64 15.3768Z" fill="white"/>
</g>
</svg>
