<svg width="263" height="1006" viewBox="0 0 263 1006" fill="none" xmlns="http://www.w3.org/2000/svg">
<path fill-rule="evenodd" clip-rule="evenodd" d="M0.000120067 829.264L0.00012207 1006L263 1006L263 574.803L263 457.652L263 272.332L263 -8.00001L9.00284e-05 -8L9.25572e-05 199.914L0.000120067 829.264ZM116.716 189.423C105.827 183.129 95.2002 172.112 95.2002 152.827C95.2002 126.588 113.567 106.247 140.462 106.238C167.357 106.229 185.724 126.558 185.724 152.797C185.724 172.083 175.229 183.238 164.339 189.407L156.468 173.404C163.552 169.728 169.194 161.855 169.194 152.802C169.194 136.928 156.993 125.387 140.462 125.392C123.932 125.398 111.731 136.947 111.731 152.821C111.731 161.874 117.241 169.743 124.456 173.414L116.716 189.423ZM128.523 263.087C110.419 263.093 95.2002 250.504 95.2002 229.513C95.2002 208.653 110.419 196.053 128.523 196.047C146.497 196.041 161.716 208.631 161.716 229.491C161.716 250.482 146.497 263.082 128.523 263.087ZM128.523 213.365C118.553 213.368 110.025 219.143 110.025 229.508C110.025 239.872 118.553 245.773 128.523 245.77C138.363 245.767 146.891 239.86 146.891 229.496C146.891 219.131 138.363 213.362 128.523 213.365ZM160.141 334.869L96.7745 334.89L96.7745 318.228L104.777 318.225C99.9232 313.897 95.2002 306.29 95.2002 295.925C95.2002 282.019 102.809 275.457 115.142 275.453L160.141 275.438L160.141 292.1L121.701 292.112C112.911 292.115 110.025 296.708 110.025 303.792C110.025 310.221 113.567 315.336 117.241 318.221L160.141 318.207L160.141 334.869ZM138.625 368.081L96.7745 368.095L96.7745 351.433L160.141 351.413L160.141 368.074L151.482 368.077C157.124 372.536 161.716 380.406 161.716 388.278L145.448 388.283C145.71 387.102 145.841 385.528 145.841 383.691C145.841 378.181 142.692 370.835 138.625 368.081ZM115.535 448.95C103.99 448.954 95.2002 439.118 95.2002 421.538C95.2002 410.517 98.8736 399.889 105.04 393.196L116.716 400.408C112.387 405.002 108.057 414.449 108.057 422.32C108.057 429.536 110.943 432.946 114.879 432.945C119.01 432.944 120.194 427.112 121.63 420.039C123.844 409.138 126.657 395.289 141.774 395.284C152.401 395.28 161.716 404.592 161.716 421.253C161.716 432.011 158.042 440.54 153.057 446.839L141.643 440.152C145.71 436.346 148.99 429.129 148.99 421.389C148.99 415.354 146.235 411.419 142.692 411.42C139.122 411.421 138.026 416.782 136.662 423.451C134.418 434.427 131.449 448.945 115.535 448.95ZM103.99 517.118C98.2177 510.822 95.2002 500.853 95.2002 491.013C95.2002 471.727 108.188 457.161 128.523 457.154C146.891 457.148 161.716 470.656 161.716 489.942C161.716 508.834 147.547 521.695 126.818 521.702L123.145 521.703L123.145 474.605C115.142 475.657 108.451 482.087 108.451 492.845C108.451 498.224 110.812 505.702 114.748 509.767L103.99 517.118ZM134.427 474.339L134.427 505.563C140.462 505.167 148.465 500.966 148.465 489.946C148.465 479.582 140.725 475.124 134.427 474.339ZM184.281 612.828L96.7745 612.857L96.7745 594.096L133.509 594.084L133.509 552.758L96.7745 552.77L96.7745 534.14L184.281 534.112L184.281 552.741L149.908 552.753L149.908 594.079L184.281 594.068L184.281 612.828ZM160.141 689.118L96.7745 689.139L96.7745 672.477L104.777 672.475C99.9232 668.147 95.2002 660.539 95.2002 650.175C95.2002 636.268 102.809 629.706 115.142 629.702L160.141 629.687L160.141 646.349L121.701 646.362C112.911 646.364 110.025 650.957 110.025 658.042C110.025 664.47 113.567 669.586 117.241 672.471L160.141 672.457L160.141 689.118ZM139.544 722.33L117.11 722.338C113.043 725.094 110.025 731.261 110.025 736.64C110.025 746.349 117.372 752.775 128.392 752.771C139.413 752.768 146.891 746.337 146.891 736.628C146.891 731.249 143.742 725.084 139.544 722.33ZM104.909 722.342L96.7745 722.344L96.7745 705.683L184.281 705.654L184.281 722.316L152.007 722.326C158.436 727.31 161.716 734.393 161.716 741.871C161.716 758.008 149.121 769.951 128.392 769.958C107.27 769.964 95.2002 757.899 95.2002 741.893C95.2002 734.284 98.6112 727.329 104.909 722.342Z" fill="black"/>
<path d="M121.601 843.856V838.6C122.225 837.592 123.641 836.728 125.057 836.728C127.409 836.728 128.801 838.648 128.801 841.216C128.801 843.784 127.409 845.68 125.057 845.68C123.641 845.68 122.225 844.864 121.601 843.856ZM121.601 847V845.272C122.465 846.448 123.881 847.288 125.513 847.288C128.537 847.288 130.673 844.984 130.673 841.216C130.673 837.52 128.537 835.12 125.513 835.12C123.929 835.12 122.537 835.888 121.601 837.16V830.992H119.801V847H121.601ZM132.957 851.536C133.293 851.632 133.893 851.704 134.277 851.704C135.813 851.68 136.989 851.032 137.685 849.352L143.493 835.408H141.525L137.685 844.912L133.821 835.408H131.877L136.725 847.12L135.957 848.872C135.549 849.832 135.021 850.096 134.229 850.096C133.941 850.096 133.509 850.024 133.245 849.904L132.957 851.536Z" fill="white"/>
<path d="M96.7326 914.156C96.7326 913.362 96.873 912.587 97.1539 911.829C97.4469 911.06 97.8682 910.364 98.4177 909.741C98.9672 909.106 99.6388 908.606 100.432 908.24C101.226 907.861 102.13 907.672 103.143 907.672C104.34 907.672 105.372 907.934 106.239 908.459C107.118 908.984 107.771 909.668 108.198 910.511L106.257 911.848C106.037 911.359 105.75 910.975 105.396 910.694C105.042 910.401 104.663 910.199 104.261 910.089C103.858 909.967 103.461 909.906 103.07 909.906C102.435 909.906 101.879 910.034 101.403 910.291C100.939 910.547 100.548 910.883 100.231 911.298C99.9135 911.713 99.6754 912.177 99.5166 912.69C99.3701 913.203 99.2969 913.716 99.2969 914.229C99.2969 914.803 99.3884 915.358 99.5716 915.896C99.7548 916.421 100.011 916.891 100.341 917.306C100.683 917.709 101.086 918.033 101.55 918.277C102.026 918.509 102.545 918.625 103.107 918.625C103.51 918.625 103.919 918.558 104.334 918.423C104.749 918.289 105.134 918.075 105.488 917.782C105.842 917.489 106.117 917.111 106.312 916.647L108.382 917.837C108.125 918.484 107.704 919.034 107.118 919.486C106.544 919.937 105.897 920.279 105.176 920.511C104.456 920.743 103.742 920.859 103.033 920.859C102.105 920.859 101.257 920.67 100.487 920.292C99.7181 919.901 99.0526 919.388 98.4909 918.753C97.9415 918.106 97.508 917.385 97.1905 916.592C96.8852 915.786 96.7326 914.974 96.7326 914.156ZM114.51 920.933C113.729 920.933 113.026 920.804 112.404 920.548C111.781 920.279 111.25 919.913 110.81 919.449C110.383 918.985 110.053 918.454 109.821 917.855C109.589 917.257 109.473 916.628 109.473 915.969C109.473 915.297 109.589 914.662 109.821 914.064C110.053 913.466 110.383 912.935 110.81 912.471C111.25 912.007 111.781 911.646 112.404 911.39C113.026 911.121 113.729 910.987 114.51 910.987C115.292 910.987 115.988 911.121 116.598 911.39C117.221 911.646 117.752 912.007 118.192 912.471C118.631 912.935 118.961 913.466 119.181 914.064C119.413 914.662 119.529 915.297 119.529 915.969C119.529 916.628 119.413 917.257 119.181 917.855C118.961 918.454 118.631 918.985 118.192 919.449C117.764 919.913 117.239 920.279 116.616 920.548C115.994 920.804 115.292 920.933 114.51 920.933ZM112.001 915.969C112.001 916.531 112.111 917.031 112.33 917.471C112.55 917.898 112.849 918.234 113.228 918.478C113.607 918.722 114.034 918.845 114.51 918.845C114.974 918.845 115.395 918.722 115.774 918.478C116.152 918.222 116.452 917.88 116.671 917.453C116.903 917.013 117.019 916.512 117.019 915.951C117.019 915.401 116.903 914.907 116.671 914.467C116.452 914.027 116.152 913.685 115.774 913.441C115.395 913.197 114.974 913.075 114.51 913.075C114.034 913.075 113.607 913.203 113.228 913.46C112.849 913.704 112.55 914.046 112.33 914.485C112.111 914.913 112.001 915.407 112.001 915.969ZM120.874 915.951C120.874 915.023 121.057 914.186 121.423 913.441C121.79 912.684 122.297 912.086 122.944 911.646C123.591 911.207 124.33 910.987 125.16 910.987C125.868 910.987 126.503 911.164 127.065 911.518C127.639 911.86 128.084 912.3 128.402 912.837V907.379H130.856V918.002C130.856 918.258 130.899 918.442 130.984 918.551C131.07 918.661 131.216 918.729 131.424 918.753V920.749C130.997 920.835 130.649 920.878 130.38 920.878C129.94 920.878 129.574 920.768 129.281 920.548C129 920.328 128.841 920.041 128.805 919.687L128.768 919.083C128.414 919.681 127.932 920.139 127.321 920.456C126.723 920.774 126.094 920.933 125.435 920.933C124.775 920.933 124.165 920.804 123.603 920.548C123.054 920.292 122.571 919.937 122.156 919.486C121.753 919.034 121.436 918.509 121.204 917.91C120.984 917.3 120.874 916.647 120.874 915.951ZM128.402 917.233V914.943C128.28 914.589 128.084 914.272 127.816 913.991C127.547 913.71 127.248 913.49 126.918 913.331C126.589 913.16 126.259 913.075 125.929 913.075C125.551 913.075 125.209 913.154 124.903 913.313C124.598 913.472 124.33 913.685 124.098 913.954C123.878 914.223 123.707 914.534 123.585 914.888C123.475 915.242 123.42 915.615 123.42 916.006C123.42 916.396 123.481 916.769 123.603 917.123C123.737 917.465 123.927 917.764 124.171 918.02C124.415 918.277 124.696 918.478 125.013 918.625C125.343 918.771 125.697 918.845 126.076 918.845C126.308 918.845 126.54 918.808 126.772 918.735C127.016 918.649 127.242 918.539 127.449 918.405C127.669 918.258 127.858 918.087 128.017 917.892C128.188 917.685 128.316 917.465 128.402 917.233ZM133.54 920.749V911.152H135.994V920.749H133.54ZM133.54 909.815V907.379H135.994V909.815H133.54ZM147.403 920.749H144.949V915.364C144.949 914.595 144.815 914.034 144.546 913.679C144.277 913.325 143.905 913.148 143.429 913.148C143.099 913.148 142.763 913.234 142.421 913.405C142.092 913.576 141.792 913.814 141.524 914.119C141.255 914.412 141.06 914.754 140.938 915.145V920.749H138.483V911.152H140.7V912.928C140.944 912.513 141.255 912.165 141.634 911.884C142.012 911.591 142.446 911.372 142.934 911.225C143.435 911.066 143.96 910.987 144.509 910.987C145.108 910.987 145.596 911.097 145.975 911.317C146.365 911.524 146.658 911.811 146.854 912.177C147.061 912.532 147.202 912.935 147.275 913.386C147.361 913.838 147.403 914.296 147.403 914.76V920.749ZM153.567 920.804C152.932 920.804 152.346 920.682 151.809 920.438C151.284 920.182 150.826 919.828 150.435 919.376C150.056 918.924 149.763 918.405 149.556 917.819C149.348 917.233 149.244 916.61 149.244 915.951C149.244 915.255 149.354 914.607 149.574 914.009C149.794 913.411 150.099 912.886 150.49 912.434C150.893 911.97 151.363 911.616 151.9 911.372C152.45 911.115 153.054 910.987 153.713 910.987C154.458 910.987 155.112 911.158 155.673 911.5C156.235 911.829 156.699 912.275 157.065 912.837V911.152H159.208V920.292C159.208 921.244 158.976 922.056 158.512 922.728C158.06 923.411 157.432 923.93 156.626 924.284C155.82 924.651 154.904 924.834 153.878 924.834C152.84 924.834 151.961 924.657 151.241 924.303C150.52 923.961 149.904 923.472 149.391 922.837L150.728 921.537C151.094 921.989 151.552 922.343 152.102 922.599C152.663 922.856 153.256 922.984 153.878 922.984C154.403 922.984 154.88 922.886 155.307 922.691C155.747 922.508 156.095 922.215 156.351 921.812C156.62 921.421 156.754 920.914 156.754 920.292V919.083C156.436 919.632 155.985 920.06 155.399 920.365C154.825 920.658 154.214 920.804 153.567 920.804ZM154.391 918.845C154.66 918.845 154.916 918.802 155.16 918.716C155.405 918.631 155.631 918.515 155.838 918.368C156.046 918.222 156.229 918.051 156.388 917.855C156.546 917.648 156.668 917.44 156.754 917.233V914.943C156.607 914.565 156.4 914.235 156.131 913.954C155.875 913.673 155.582 913.46 155.252 913.313C154.935 913.154 154.599 913.075 154.245 913.075C153.866 913.075 153.524 913.154 153.219 913.313C152.914 913.472 152.651 913.698 152.431 913.991C152.212 914.272 152.041 914.589 151.918 914.943C151.809 915.285 151.754 915.645 151.754 916.024C151.754 916.415 151.821 916.781 151.955 917.123C152.089 917.465 152.273 917.764 152.505 918.02C152.749 918.277 153.03 918.478 153.347 918.625C153.677 918.771 154.025 918.845 154.391 918.845ZM165.821 914.156C165.821 913.362 165.961 912.587 166.242 911.829C166.535 911.06 166.956 910.364 167.506 909.741C168.055 909.106 168.727 908.606 169.521 908.24C170.314 907.861 171.218 907.672 172.231 907.672C173.428 907.672 174.46 907.934 175.327 908.459C176.206 908.984 176.859 909.668 177.287 910.511L175.345 911.848C175.125 911.359 174.838 910.975 174.484 910.694C174.13 910.401 173.752 910.199 173.349 910.089C172.946 909.967 172.549 909.906 172.158 909.906C171.523 909.906 170.968 910.034 170.491 910.291C170.027 910.547 169.637 910.883 169.319 911.298C169.002 911.713 168.764 912.177 168.605 912.69C168.458 913.203 168.385 913.716 168.385 914.229C168.385 914.803 168.477 915.358 168.66 915.896C168.843 916.421 169.099 916.891 169.429 917.306C169.771 917.709 170.174 918.033 170.638 918.277C171.114 918.509 171.633 918.625 172.195 918.625C172.598 918.625 173.007 918.558 173.422 918.423C173.837 918.289 174.222 918.075 174.576 917.782C174.93 917.489 175.205 917.111 175.4 916.647L177.47 917.837C177.213 918.484 176.792 919.034 176.206 919.486C175.632 919.937 174.985 920.279 174.265 920.511C173.544 920.743 172.83 920.859 172.122 920.859C171.194 920.859 170.345 920.67 169.576 920.292C168.806 919.901 168.141 919.388 167.579 918.753C167.03 918.106 166.596 917.385 166.279 916.592C165.973 915.786 165.821 914.974 165.821 914.156ZM179.183 907.379H181.638V917.672C181.638 918.112 181.711 918.411 181.857 918.57C182.004 918.716 182.205 918.79 182.462 918.79C182.657 918.79 182.859 918.765 183.066 918.716C183.274 918.667 183.457 918.606 183.616 918.533L183.946 920.401C183.616 920.56 183.231 920.682 182.792 920.768C182.352 920.853 181.955 920.896 181.601 920.896C180.832 920.896 180.233 920.694 179.806 920.292C179.391 919.876 179.183 919.29 179.183 918.533V907.379ZM185.198 917.159V911.152H187.652V916.628C187.652 917.361 187.787 917.917 188.055 918.295C188.324 918.661 188.721 918.845 189.246 918.845C189.563 918.845 189.875 918.783 190.18 918.661C190.497 918.527 190.784 918.332 191.041 918.075C191.309 917.819 191.535 917.495 191.719 917.105V911.152H194.173V918.002C194.173 918.258 194.216 918.442 194.301 918.551C194.399 918.661 194.551 918.729 194.759 918.753V920.749C194.515 920.786 194.307 920.81 194.136 920.823C193.978 920.847 193.831 920.859 193.697 920.859C193.257 920.859 192.897 920.762 192.616 920.566C192.347 920.359 192.189 920.078 192.14 919.724L192.085 918.954C191.657 919.602 191.108 920.096 190.436 920.438C189.765 920.768 189.026 920.933 188.22 920.933C187.231 920.933 186.48 920.615 185.967 919.98C185.454 919.333 185.198 918.393 185.198 917.159ZM202.345 920.933C201.612 920.933 200.959 920.768 200.385 920.438C199.811 920.108 199.359 919.657 199.03 919.083V920.749H196.887V907.379H199.341V912.837C199.683 912.263 200.129 911.811 200.678 911.481C201.24 911.152 201.893 910.987 202.638 910.987C203.261 910.987 203.829 911.121 204.341 911.39C204.854 911.646 205.294 912.007 205.66 912.471C206.039 912.935 206.326 913.466 206.521 914.064C206.729 914.662 206.832 915.303 206.832 915.987C206.832 916.671 206.716 917.312 206.484 917.91C206.265 918.509 205.953 919.04 205.55 919.504C205.147 919.956 204.671 920.31 204.122 920.566C203.584 920.81 202.992 920.933 202.345 920.933ZM201.667 918.845C202.058 918.845 202.412 918.771 202.73 918.625C203.059 918.466 203.34 918.258 203.572 918.002C203.816 917.746 203.999 917.446 204.122 917.105C204.256 916.75 204.323 916.384 204.323 916.006C204.323 915.48 204.213 914.998 203.993 914.559C203.786 914.107 203.493 913.747 203.114 913.478C202.748 913.209 202.314 913.075 201.814 913.075C201.46 913.075 201.118 913.16 200.788 913.331C200.471 913.49 200.184 913.71 199.927 913.991C199.683 914.272 199.488 914.589 199.341 914.943V917.233C199.414 917.477 199.53 917.697 199.689 917.892C199.86 918.087 200.055 918.258 200.275 918.405C200.495 918.539 200.721 918.649 200.953 918.735C201.197 918.808 201.435 918.845 201.667 918.845Z" fill="white"/>
<path d="M102.532 940.752V927.747H104.18V940.752H102.532ZM107.29 940.752V927.747H108.938V940.752H107.29ZM121.425 929.213H116.938V940.752H115.289V929.213H110.802V927.747H121.425V929.213ZM132.597 940.843C131.742 940.843 130.942 940.66 130.197 940.294C129.465 939.915 128.824 939.415 128.274 938.792C127.725 938.157 127.297 937.449 126.992 936.667C126.687 935.874 126.534 935.055 126.534 934.213C126.534 933.334 126.687 932.503 126.992 931.722C127.297 930.928 127.718 930.226 128.256 929.615C128.805 929.005 129.446 928.529 130.179 928.187C130.924 927.833 131.73 927.656 132.597 927.656C133.854 927.656 134.892 927.918 135.71 928.443C136.528 928.968 137.145 929.652 137.56 930.495L136.296 931.374C135.918 930.617 135.399 930.055 134.74 929.689C134.08 929.322 133.354 929.139 132.56 929.139C131.901 929.139 131.302 929.28 130.765 929.561C130.228 929.841 129.764 930.226 129.373 930.714C128.994 931.191 128.701 931.734 128.494 932.345C128.298 932.955 128.201 933.59 128.201 934.249C128.201 934.945 128.311 935.605 128.53 936.228C128.762 936.838 129.086 937.382 129.501 937.858C129.916 938.322 130.399 938.688 130.948 938.957C131.498 939.225 132.09 939.36 132.725 939.36C133.47 939.36 134.178 939.17 134.85 938.792C135.521 938.413 136.156 937.833 136.754 937.052V938.755C135.582 940.147 134.196 940.843 132.597 940.843ZM136.553 935.513H133.751V934.268H137.945V940.752H136.553V935.513ZM140.104 936.924V931.191H141.716V936.612C141.716 937.589 141.887 938.322 142.228 938.81C142.57 939.299 143.077 939.543 143.749 939.543C144.188 939.543 144.61 939.451 145.013 939.268C145.428 939.073 145.8 938.798 146.13 938.444C146.459 938.09 146.716 937.668 146.899 937.18V931.191H148.511V938.92C148.511 939.115 148.548 939.262 148.621 939.36C148.706 939.445 148.841 939.494 149.024 939.506V940.752C148.841 940.776 148.694 940.788 148.584 940.788C148.486 940.801 148.389 940.807 148.291 940.807C147.986 940.807 147.723 940.715 147.504 940.532C147.284 940.337 147.168 940.098 147.156 939.818L147.119 938.7C146.704 939.409 146.142 939.958 145.434 940.349C144.738 940.739 143.975 940.935 143.144 940.935C142.143 940.935 141.386 940.599 140.873 939.927C140.36 939.244 140.104 938.242 140.104 936.924ZM163.175 931.191H164.731L160.665 940.752H159.255L157.405 936.246L155.573 940.752H154.163L150.097 931.191H151.635L154.932 939.158L156.471 935.239L154.859 931.209H156.269L157.405 934.249L158.541 931.209H159.951L158.357 935.239L159.896 939.158L163.175 931.191ZM165.255 937.986C165.255 937.375 165.426 936.85 165.768 936.411C166.122 935.959 166.604 935.611 167.215 935.367C167.825 935.123 168.534 935 169.34 935C169.767 935 170.219 935.037 170.695 935.11C171.171 935.171 171.592 935.269 171.959 935.403V934.707C171.959 933.975 171.739 933.401 171.299 932.986C170.86 932.558 170.237 932.345 169.431 932.345C168.906 932.345 168.399 932.442 167.911 932.638C167.435 932.821 166.928 933.089 166.391 933.444L165.805 932.308C166.427 931.881 167.05 931.563 167.673 931.356C168.296 931.136 168.943 931.026 169.614 931.026C170.835 931.026 171.8 931.368 172.508 932.052C173.217 932.723 173.571 933.663 173.571 934.872V938.92C173.571 939.115 173.607 939.262 173.681 939.36C173.766 939.445 173.9 939.494 174.083 939.506V940.752C173.925 940.776 173.784 940.794 173.662 940.807C173.552 940.819 173.461 940.825 173.387 940.825C173.009 940.825 172.722 940.721 172.527 940.514C172.343 940.306 172.24 940.086 172.215 939.854L172.179 939.25C171.763 939.787 171.22 940.202 170.548 940.495C169.877 940.788 169.211 940.935 168.552 940.935C167.917 940.935 167.349 940.807 166.849 940.55C166.348 940.282 165.957 939.927 165.676 939.488C165.396 939.036 165.255 938.535 165.255 937.986ZM171.483 938.664C171.629 938.493 171.745 938.322 171.831 938.151C171.916 937.968 171.959 937.815 171.959 937.693V936.502C171.58 936.356 171.183 936.246 170.768 936.173C170.353 936.087 169.944 936.044 169.541 936.044C168.723 936.044 168.057 936.209 167.545 936.539C167.044 936.856 166.794 937.296 166.794 937.858C166.794 938.163 166.873 938.462 167.032 938.755C167.203 939.036 167.447 939.268 167.764 939.451C168.094 939.634 168.497 939.726 168.973 939.726C169.474 939.726 169.95 939.628 170.402 939.433C170.854 939.225 171.214 938.969 171.483 938.664ZM184.445 940.752H182.833V935.403C182.833 934.427 182.656 933.694 182.302 933.205C181.96 932.717 181.466 932.473 180.819 932.473C180.403 932.473 179.982 932.583 179.555 932.802C179.14 933.022 178.773 933.321 178.456 933.7C178.138 934.066 177.906 934.494 177.76 934.982V940.752H176.148V927.381H177.76V933.242C178.138 932.558 178.651 932.021 179.298 931.63C179.958 931.227 180.666 931.026 181.423 931.026C181.997 931.026 182.473 931.13 182.852 931.337C183.242 931.533 183.554 931.813 183.786 932.18C184.018 932.546 184.183 932.973 184.28 933.462C184.39 933.938 184.445 934.463 184.445 935.037V940.752ZM186.201 937.986C186.201 937.375 186.372 936.85 186.713 936.411C187.068 935.959 187.55 935.611 188.16 935.367C188.771 935.123 189.479 935 190.285 935C190.712 935 191.164 935.037 191.64 935.11C192.117 935.171 192.538 935.269 192.904 935.403V934.707C192.904 933.975 192.685 933.401 192.245 932.986C191.805 932.558 191.183 932.345 190.377 932.345C189.852 932.345 189.345 932.442 188.856 932.638C188.38 932.821 187.873 933.089 187.336 933.444L186.75 932.308C187.373 931.881 187.996 931.563 188.618 931.356C189.241 931.136 189.888 931.026 190.56 931.026C191.781 931.026 192.746 931.368 193.454 932.052C194.162 932.723 194.516 933.663 194.516 934.872V938.92C194.516 939.115 194.553 939.262 194.626 939.36C194.711 939.445 194.846 939.494 195.029 939.506V940.752C194.87 940.776 194.73 940.794 194.608 940.807C194.498 940.819 194.406 940.825 194.333 940.825C193.954 940.825 193.667 940.721 193.472 940.514C193.289 940.306 193.185 940.086 193.161 939.854L193.124 939.25C192.709 939.787 192.166 940.202 191.494 940.495C190.822 940.788 190.157 940.935 189.498 940.935C188.863 940.935 188.295 940.807 187.794 940.55C187.293 940.282 186.903 939.927 186.622 939.488C186.341 939.036 186.201 938.535 186.201 937.986ZM192.428 938.664C192.575 938.493 192.691 938.322 192.776 938.151C192.862 937.968 192.904 937.815 192.904 937.693V936.502C192.526 936.356 192.129 936.246 191.714 936.173C191.299 936.087 190.89 936.044 190.487 936.044C189.668 936.044 189.003 936.209 188.49 936.539C187.989 936.856 187.739 937.296 187.739 937.858C187.739 938.163 187.819 938.462 187.977 938.755C188.148 939.036 188.392 939.268 188.71 939.451C189.04 939.634 189.443 939.726 189.919 939.726C190.419 939.726 190.896 939.628 191.347 939.433C191.799 939.225 192.159 938.969 192.428 938.664ZM201.967 940.275C201.833 940.337 201.65 940.416 201.418 940.514C201.186 940.611 200.917 940.697 200.612 940.77C200.307 940.843 199.983 940.88 199.641 940.88C199.25 940.88 198.89 940.813 198.56 940.678C198.231 940.532 197.968 940.312 197.773 940.019C197.577 939.714 197.48 939.335 197.48 938.883V932.454H196.179V931.191H197.48V928.004H199.092V931.191H201.235V932.454H199.092V938.389C199.116 938.731 199.232 938.987 199.44 939.158C199.647 939.317 199.891 939.396 200.172 939.396C200.49 939.396 200.783 939.341 201.051 939.231C201.32 939.122 201.497 939.042 201.583 938.993L201.967 940.275ZM203.461 940.752V931.191H205.073V940.752H203.461ZM203.461 929.396V927.381H205.073V929.396H203.461Z" fill="white"/>
<path d="M66.9316 923.979L87.5497 910.894L87.537 902.001L53.0001 923.979" fill="#5FB046"/>
<path d="M88.3755 924.096L53.8386 902L53.8259 910.968L74.444 924.165L53.7877 937.024L53.7877 946L88.3755 924.096Z" fill="white"/>
<path d="M53.0004 923.978L87.5881 946L87.5881 937.024L66.9244 923.978" fill="#5FB046"/>
</svg>
